{
.appVersion = "3414";
.formatVersion = 3;
axes = (
{
name = Weight;
tag = wght;
}
);
classes = (
{
code = "Euro bar cent colon comma degree divide dollar eight equal five four greater less minus multiply nine numbersign one paragraph percent period periodcentered plus plusminus quotedbl quotesingle section semicolon seven six slash sterling three two underscore yen zero";
name = tnum1;
},
{
code = "Euro.tnum bar.tnum cent.tnum colon.tnum comma.tnum degree.tnum divide.tnum dollar.tnum eight.tnum equal.tnum five.tnum four.tnum greater.tnum less.tnum minus.tnum multiply.tnum nine.tnum numbersign.tnum one.tnum paragraph.tnum percent.tnum period.tnum periodcentered.tnum plus.tnum plusminus.tnum quotedbl.tnum quotesingle.tnum section.tnum semicolon.tnum seven.tnum six.tnum slash.tnum sterling.tnum three.tnum two.tnum underscore.tnum yen.tnum zero.tnum";
name = tnum2;
}
);
customParameters = (
{
name = openTypeOS2Panose;
value = (
2,
2,
6,
2,
6,
3,
0,
0,
0,
4
);
},
{
name = fsType;
value = (
);
},
{
name = blueFuzz;
value = 0;
},
{
name = blueScale;
value = 0.01667;
},
{
name = blueShift;
value = 10;
},
{
name = "Use Typo Metrics";
value = 1;
},
{
name = "Write lastChange";
value = 0;
},
{
name = "Use Line Breaks";
value = 1;
}
);
date = "2020-04-22 21:30:27 +0000";
familyName = "Libre Caslon Condensed";
featurePrefixes = (
{
automatic = 1;
code = "languagesystem DFLT dflt;

languagesystem latn dflt;
languagesystem latn AZE;
languagesystem latn CRT;
languagesystem latn KAZ;
languagesystem latn TAT;
languagesystem latn TRK;
languagesystem latn CAT;
";
name = Languagesystems;
}
);
features = (
{
automatic = 1;
code = "feature frac;
feature tnum;
feature ordn;
feature sinf;
feature sups;
feature dnom;
feature numr;
feature onum;
feature ss01;
feature locl;
feature subs;
feature case;
";
tag = aalt;
},
{
code = "	sub f f i by f_f_i;
	sub f f l by f_f_l;
	sub f f b by f_f_b;
	sub f f h by f_f_h;
	sub f f j by f_f_j;
	sub f f k by f_f_k;
	sub f f t by f_f_t;		

glyphs = (
{
glyphname = A;
kernLeft = A;
kernRight = A;
layers = (
{
anchors = (
{
name = bottom;
pos = (778,0);
},
{
name = topcap;
pos = (1100,1643);
}
);
background = {
anchors = (
{
name = bottom;
pos = (778,0);
},
{
name = topcap;
pos = (1040,1643);
}
);
shapes = (
{
closed = 1;
nodes = (
(1028,1524,l),
(126,275,ls),
(12,117,o),
(-45,71,o),
(-193,45,c),
(-212,0,l),
(268,0,l),
(286,45,l),
(185,61,o),
(147,96,o),
(147,139,cs),
(147,172,o),
(164,201,o),
(215,271,cs),
(1002,1360,l)
);
},
{
closed = 1;
nodes = (
(835,639,l),
(454,639,l),
(402,565,l),
(826,565,l)
);
},
{
closed = 1;
nodes = (
(769,208,ls),
(755,93,o),
(705,47,o),
(570,45,c),
(550,0,l),
(1053,0,l),
(1072,45,l),
(949,55,o),
(927,92,o),
(937,182,cs),
(1083,1523,l),
(1028,1524,l),
(895,1286,l)
);
}
);
};
layerId = master01;
shapes = (
{
closed = 1;
nodes = (
(1028,1524,l),
(126,275,ls),
(12,117,o),
(-45,71,o),
(-193,45,c),
(-212,0,l),
(268,0,l),
(286,45,l),
(185,61,o),
(147,96,o),
(147,139,cs),
(147,172,o),
(164,201,o),
(215,271,cs),
(1002,1360,l)
);
},
{
closed = 1;
nodes = (
(835,639,l),
(454,639,l),
(402,565,l),
(826,565,l)
);
},
{
closed = 1;
nodes = (
(769,208,ls),
(755,93,o),
(705,47,o),
(570,45,c),
(550,0,l),
(1053,0,l),
(1072,45,l),
(949,55,o),
(927,92,o),
(937,182,cs),
(1083,1523,l),
(1028,1524,l),
(895,1286,l)
);
}
);
width = 1258;
},
{
anchors = (
{
name = bottom;
pos = (886,0);
},
{
name = topcap;
pos = (1198,1643);
}
);
associatedMasterId = master01;
layerId = "CA5349ED-4193-4C38-9110-5E52926B6C4B";
name = "Jan 9 19, 13:25";
shapes = (
{
closed = 1;
nodes = (
(264,0,l),
(289,55,l),
(172,71,o),
(122,94,o),
(120,136,cs),
(120,172,o),
(138,200,o),
(200,271,cs),
(456,565,l),
(925,565,l),
(875,208,ls),
(857,85,o),
(793,58,o),
(644,55,c),
(615,0,l),
(1224,0,l),
(1253,55,l),
(1130,63,o),
(1086,78,o),
(1084,149,cs),
(1084,159,o),
(1084,169,o),
(1086,182,cs),
(1267,1569,l),
(1052,1523,l),
(1032,1340,l),
(115,275,ls),
(-13,128,o),
(-71,83,o),
(-260,55,c),
(-287,0,l)
);
},
{
closed = 1;
nodes = (
(1018,1216,l),
(935,639,l),
(518,639,l)
);
}
);
width = 1480;
},
{
anchors = (
{
name = bottom;
pos = (838,0);
},
{
name = topcap;
pos = (1064,1643);
}
);
background = {
anchors = (
{
name = bottom;
pos = (838,0);
},
{
name = topcap;
pos = (984,1643);
}
);
shapes = (
{
closed = 1;
nodes = (
(1000,1523,l),
(120,292,ls),
(-1,123,o),
(-32,102,o),
(-189,68,c),
(-212,0,l),
(307,0,l),
(330,68,l),
(221,94,o),
(179,121,o),
(179,165,cs),
(179,193,o),
(197,231,o),
(238,289,cs),
(1019,1373,l)
);
},
{
closed = 1;
nodes = (
(859,547,l),
(323,547,l),
(285,443,l),
(820,443,l)
);
},
{
closed = 1;
nodes = (
(727,226,ls),
(715,102,o),
(684,79,o),
(525,68,c),
(502,0,l),
(1080,0,l),
(1104,68,l),
(984,83,o),
(960,106,o),
(969,193,cs),
(1101,1523,l),
(1000,1523,l),
(820,1152,l)
);
}
);
};
layerId = "D3934E74-9B53-4E98-B19F-CD3DFEE08352";
shapes = (
{
closed = 1;
nodes = (
(1000,1523,l),
(120,292,ls),
(-1,123,o),
(-32,102,o),
(-189,68,c),
(-212,0,l),
(307,0,l),
(330,68,l),
(221,94,o),
(179,121,o),
(179,165,cs),
(179,193,o),
(197,231,o),
(238,289,cs),
(1019,1373,l)
);
},
{
closed = 1;
nodes = (
(859,547,l),
(323,547,l),
(285,443,l),
(820,443,l)
);
},
{
closed = 1;
nodes = (
(727,226,ls),
(715,102,o),
(684,79,o),
(525,68,c),
(502,0,l),
(1080,0,l),
(1104,68,l),
(984,83,o),
(960,106,o),
(969,193,cs),
(1101,1523,l),
(1000,1523,l),
(820,1152,l)
);
}
);
width = 1273;
},
{
anchors = (
{
name = bottom;
pos = (886,0);
},
{
name = topcap;
pos = (1198,1643);
}
);
associatedMasterId = "D3934E74-9B53-4E98-B19F-CD3DFEE08352";
layerId = "682F6276-851F-41F1-906A-C63B3B00156A";
name = "Jan 9 19, 13:25";
shapes = (
{
closed = 1;
nodes = (
(264,0,l),
(289,55,l),
(172,71,o),
(122,94,o),
(120,136,cs),
(120,172,o),
(138,200,o),
(200,271,cs),
(456,565,l),
(925,565,l),
(875,208,ls),
(857,85,o),
(793,58,o),
(644,55,c),
(615,0,l),
(1224,0,l),
(1253,55,l),
(1130,63,o),
(1086,78,o),
(1084,149,cs),
(1084,159,o),
(1084,169,o),
(1086,182,cs),
(1267,1569,l),
(1052,1523,l),
(1032,1340,l),
(115,275,ls),
(-13,128,o),
(-71,83,o),
(-260,55,c),
(-287,0,l)
);
},
{
closed = 1;
nodes = (
(1018,1216,l),
(935,639,l),
(518,639,l)
);
}
);
width = 1480;
}
);
unicode = 65;
},
{
glyphname = Aacute;
kernLeft = A;
kernRight = A;
layers = (
{
background = {
anchors = (
{
name = bottom;
pos = (778,0);
},
{
name = topcap;
pos = (1040,1643);
}
);
shapes = (
{
closed = 1;
nodes = (
(1028,1524,l),
(126,275,ls),
(12,117,o),
(-45,71,o),
(-193,45,c),
(-212,0,l),
(268,0,l),
(286,45,l),
(185,61,o),
(147,96,o),
(147,139,cs),
(147,172,o),
(164,201,o),
(215,271,cs),
(1002,1360,l)
);
},
{
closed = 1;
nodes = (
(835,639,l),
(454,639,l),
(402,565,l),
(826,565,l)
);
},
{
closed = 1;
nodes = (
(769,208,ls),
(755,93,o),
(705,47,o),
(570,45,c),
(550,0,l),
(1053,0,l),
(1072,45,l),
(949,55,o),
(927,92,o),
(937,182,cs),
(1083,1523,l),
(1028,1524,l),
(895,1286,l)
);
},
{
closed = 1;
nodes = (
(1121,1703,ls),
(1209,1732,o),
(1235,1769,o),
(1235,1815,cs),
(1235,1864,o),
(1199,1900,o),
(1163,1900,cs),
(1136,1900,o),
(1115,1891,o),
(1090,1868,cs),
(852,1656,l),
(868,1614,l)
);
}
);
};
layerId = master01;
shapes = (
{
ref = A;
},
{
pos = (894,0);
ref = acute.cap;
scale = (0.84,1);
}
);
width = 1258;
},
{
background = {
anchors = (
{
name = bottom;
pos = (838,0);
},
{
name = topcap;
pos = (984,1643);
}
);
shapes = (
{
closed = 1;
nodes = (
(1000,1523,l),
(120,292,ls),
(-1,123,o),
(-32,102,o),
(-189,68,c),
(-212,0,l),
(307,0,l),
(330,68,l),
(221,94,o),
(179,121,o),
(179,165,cs),
(179,193,o),
(197,231,o),
(238,289,cs),
(1019,1373,l)
);
},
{
closed = 1;
nodes = (
(859,547,l),
(323,547,l),
(285,443,l),
(820,443,l)
);
},
{
closed = 1;
nodes = (
(727,226,ls),
(715,102,o),
(684,79,o),
(525,68,c),
(502,0,l),
(1080,0,l),
(1104,68,l),
(984,83,o),
(960,106,o),
(969,193,cs),
(1101,1523,l),
(1000,1523,l),
(820,1152,l)
);
},
{
closed = 1;
nodes = (
(1168,1692,ls),
(1214,1702,o),
(1244,1746,o),
(1244,1803,cs),
(1244,1871,o),
(1201,1924,o),
(1144,1924,cs),
(1110,1924,o),
(1076,1903,o),
(1041,1870,cs),
(833,1674,l),
(867,1622,l)
);
}
);
};
layerId = "D3934E74-9B53-4E98-B19F-CD3DFEE08352";
shapes = (
{
ref = A;
},
{
pos = (464,0);
ref = acute.cap;
scale = (0.84,1);
}
);
width = 1273;
}
);
metricLeft = A;
metricRight = A;
unicode = 193;
},
{
glyphname = Abreve;
kernLeft = A;
kernRight = A;
layers = (
{
background = {
anchors = (
{
name = bottom;
pos = (778,0);
},
{
name = topcap;
pos = (1040,1643);
}
);
shapes = (
{
closed = 1;
nodes = (
(1028,1524,l),
(126,275,ls),
(12,117,o),
(-45,71,o),
(-193,45,c),
(-212,0,l),
(268,0,l),
(286,45,l),
(185,61,o),
(147,96,o),
(147,139,cs),
(147,172,o),
(164,201,o),
(215,271,cs),
(1002,1360,l)
);
},
{
closed = 1;
nodes = (
(835,639,l),
(454,639,l),
(402,565,l),
(826,565,l)
);
},
{
closed = 1;
nodes = (
(769,208,ls),
(755,93,o),
(705,47,o),
(570,45,c),
(550,0,l),
(1053,0,l),
(1072,45,l),
(949,55,o),
(927,92,o),
(937,182,cs),
(1083,1523,l),
(1028,1524,l),
(895,1286,l)
);
},
{
closed = 1;
nodes = (
(1025,1625,o),
(1155,1655,o),
(1292,1900,c),
(1226,1900,l),
(1157,1809,o),
(1083,1771,o),
(1010,1771,cs),
(923,1771,o),
(881,1818,o),
(879,1900,c),
(820,1900,l),
(808,1856,o),
(805,1821,o),
(805,1789,cs),
(805,1669,o),
(877,1625,o),
(953,1625,cs)
);
}
);
};
layerId = master01;
shapes = (
{
ref = A;
},
{
alignment = -1;
pos = (887,0);
ref = breve.cap;
scale = (0.84,1);
}
);
width = 1258;
},
{
background = {
anchors = (
{
name = bottom;
pos = (838,0);
},
{
name = topcap;
pos = (984,1643);
}
);
shapes = (
{
closed = 1;
nodes = (
(1000,1523,l),
(120,292,ls),
(-1,123,o),
(-32,102,o),
(-189,68,c),
(-212,0,l),
(307,0,l),
(330,68,l),
(221,94,o),
(179,121,o),
(179,165,cs),
(179,193,o),
(197,231,o),
(238,289,cs),
(1019,1373,l)
);
},
{
closed = 1;
nodes = (
(859,547,l),
(323,547,l),
(285,443,l),
(820,443,l)
);
},
{
closed = 1;
nodes = (
(727,226,ls),
(715,102,o),
(684,79,o),
(525,68,c),
(502,0,l),
(1080,0,l),
(1104,68,l),
(984,83,o),
(960,106,o),
(969,193,cs),
(1101,1523,l),
(1000,1523,l),
(820,1152,l)
);
},
{
closed = 1;
nodes = (
(1132,1622,o),
(1266,1733,o),
(1373,1935,c),
(1286,1935,l),
(1221,1841,o),
(1146,1795,o),
(1057,1795,cs),
(968,1795,o),
(919,1842,o),
(926,1935,c),
(847,1935,l),
(833,1886,o),
(828,1857,o),
(828,1823,cs),
(828,1698,o),
(894,1622,o),
(1001,1622,cs)
);
}
);
};
layerId = "D3934E74-9B53-4E98-B19F-CD3DFEE08352";
shapes = (
{
ref = A;
},
{
pos = (410,0);
ref = breve.cap;
scale = (0.84,1);
}
);
width = 1273;
}
);
metricLeft = A;
metricRight = A;
unicode = 258;
},
{
glyphname = Acircumflex;
kernLeft = A;
kernRight = A;
layers = (
{
background = {
anchors = (
{
name = bottom;
pos = (778,0);
},
{
name = topcap;
pos = (1040,1643);
}
);
shapes = (
{
closed = 1;
nodes = (
(1028,1524,l),
(126,275,ls),
(12,117,o),
(-45,71,o),
(-193,45,c),
(-212,0,l),
(268,0,l),
(286,45,l),
(185,61,o),
(147,96,o),
(147,139,cs),
(147,172,o),
(164,201,o),
(215,271,cs),
(1002,1360,l)
);
},
{
closed = 1;
nodes = (
(835,639,l),
(454,639,l),
(402,565,l),
(826,565,l)
);
},
{
closed = 1;
nodes = (
(769,208,ls),
(755,93,o),
(705,47,o),
(570,45,c),
(550,0,l),
(1053,0,l),
(1072,45,l),
(949,55,o),
(927,92,o),
(937,182,cs),
(1083,1523,l),
(1028,1524,l),
(895,1286,l)
);
},
{
closed = 1;
nodes = (
(1078,1757,l),
(1229,1622,l),
(1272,1656,l),
(1183,1847,ls),
(1164,1885,o),
(1148,1900,o),
(1110,1900,cs),
(1069,1900,o),
(1043,1880,o),
(1003,1847,cs),
(785,1656,l),
(804,1622,l)
);
}
);
};
layerId = master01;
shapes = (
{
ref = A;
},
{
pos = (827,0);
ref = circumflex.cap;
scale = (0.84,1);
}
);
width = 1258;
},
{
background = {
anchors = (
{
name = bottom;
pos = (838,0);
},
{
name = topcap;
pos = (984,1643);
}
);
shapes = (
{
closed = 1;
nodes = (
(1000,1523,l),
(120,292,ls),
(-1,123,o),
(-32,102,o),
(-189,68,c),
(-212,0,l),
(307,0,l),
(330,68,l),
(221,94,o),
(179,121,o),
(179,165,cs),
(179,193,o),
(197,231,o),
(238,289,cs),
(1019,1373,l)
);
},
{
closed = 1;
nodes = (
(859,547,l),
(323,547,l),
(285,443,l),
(820,443,l)
);
},
{
closed = 1;
nodes = (
(727,226,ls),
(715,102,o),
(684,79,o),
(525,68,c),
(502,0,l),
(1080,0,l),
(1104,68,l),
(984,83,o),
(960,106,o),
(969,193,cs),
(1101,1523,l),
(1000,1523,l),
(820,1152,l)
);
},
{
closed = 1;
nodes = (
(1021,1747,l),
(1190,1622,l),
(1237,1659,l),
(1146,1865,ls),
(1123,1915,o),
(1101,1935,o),
(1059,1935,cs),
(1021,1935,o),
(989,1918,o),
(931,1865,cs),
(704,1657,l),
(725,1622,l)
);
}
);
};
layerId = "D3934E74-9B53-4E98-B19F-CD3DFEE08352";
shapes = (
{
ref = A;
},
{
pos = (340,0);
ref = circumflex.cap;
scale = (0.84,1);
}
);
width = 1273;
}
);
metricLeft = A;
metricRight = A;
unicode = 194;
},
{
glyphname = Adieresis;
kernLeft = A;
kernRight = A;
layers = (
{
background = {
anchors = (
{
name = bottom;
pos = (778,0);
},
{
name = topcap;
pos = (1040,1643);
}
);
shapes = (
{
closed = 1;
nodes = (
(1028,1524,l),
(126,275,ls),
(12,117,o),
(-45,71,o),
(-193,45,c),
(-212,0,l),
(268,0,l),
(286,45,l),
(185,61,o),
(147,96,o),
(147,139,cs),
(147,172,o),
(164,201,o),
(215,271,cs),
(1002,1360,l)
);
},
{
closed = 1;
nodes = (
(835,639,l),
(454,639,l),
(402,565,l),
(826,565,l)
);
},
{
closed = 1;
nodes = (
(769,208,ls),
(755,93,o),
(705,47,o),
(570,45,c),
(550,0,l),
(1053,0,l),
(1072,45,l),
(949,55,o),
(927,92,o),
(937,182,cs),
(1083,1523,l),
(1028,1524,l),
(895,1286,l)
);
},
{
closed = 1;
nodes = (
(1233,1680,o),
(1288,1740,o),
(1288,1802,cs),
(1288,1859,o),
(1243,1900,o),
(1194,1900,cs),
(1137,1900,o),
(1085,1845,o),
(1085,1781,cs),
(1085,1719,o),
(1121,1680,o),
(1176,1680,cs)
);
},
{
closed = 1;
nodes = (
(943,1680,o),
(997,1740,o),
(997,1802,cs),
(997,1859,o),
(953,1900,o),
(903,1900,cs),
(846,1900,o),
(796,1845,o),
(796,1781,cs),
(796,1719,o),
(830,1680,o),
(886,1680,cs)
);
}
);
};
layerId = master01;
shapes = (
{
ref = A;
},
{
pos = (838,0);
ref = dieresis.cap;
scale = (0.84,1);
}
);
width = 1258;
},
{
background = {
anchors = (
{
name = bottom;
pos = (838,0);
},
{
name = topcap;
pos = (984,1643);
}
);
shapes = (
{
closed = 1;
nodes = (
(1000,1523,l),
(120,292,ls),
(-1,123,o),
(-32,102,o),
(-189,68,c),
(-212,0,l),
(307,0,l),
(330,68,l),
(221,94,o),
(179,121,o),
(179,165,cs),
(179,193,o),
(197,231,o),
(238,289,cs),
(1019,1373,l)
);
},
{
closed = 1;
nodes = (
(859,547,l),
(323,547,l),
(285,443,l),
(820,443,l)
);
},
{
closed = 1;
nodes = (
(727,226,ls),
(715,102,o),
(684,79,o),
(525,68,c),
(502,0,l),
(1080,0,l),
(1104,68,l),
(984,83,o),
(960,106,o),
(969,193,cs),
(1101,1523,l),
(1000,1523,l),
(820,1152,l)
);
},
{
closed = 1;
nodes = (
(1254,1680,o),
(1315,1749,o),
(1315,1822,cs),
(1315,1886,o),
(1265,1933,o),
(1208,1933,cs),
(1143,1933,o),
(1084,1870,o),
(1084,1795,cs),
(1084,1727,o),
(1124,1680,o),
(1189,1680,cs)
);
},
{
closed = 1;
nodes = (
(922,1680,o),
(984,1749,o),
(984,1822,cs),
(984,1886,o),
(933,1933,o),
(876,1933,cs),
(812,1933,o),
(753,1870,o),
(753,1795,cs),
(753,1727,o),
(793,1680,o),
(857,1680,cs)
);
}
);
};
layerId = "D3934E74-9B53-4E98-B19F-CD3DFEE08352";
shapes = (
{
ref = A;
},
{
pos = (332,0);
ref = dieresis.cap;
scale = (0.84,1);
}
);
width = 1273;
}
);
metricLeft = A;
metricRight = A;
unicode = 196;
},
{
glyphname = Agrave;
kernLeft = A;
kernRight = A;
layers = (
{
background = {
anchors = (
{
name = bottom;
pos = (778,0);
},
{
name = topcap;
pos = (1040,1643);
}
);
shapes = (
{
closed = 1;
nodes = (
(1028,1524,l),
(126,275,ls),
(12,117,o),
(-45,71,o),
(-193,45,c),
(-212,0,l),
(268,0,l),
(286,45,l),
(185,61,o),
(147,96,o),
(147,139,cs),
(147,172,o),
(164,201,o),
(215,271,cs),
(1002,1360,l)
);
},
{
closed = 1;
nodes = (
(835,639,l),
(454,639,l),
(402,565,l),
(826,565,l)
);
},
{
closed = 1;
nodes = (
(769,208,ls),
(755,93,o),
(705,47,o),
(570,45,c),
(550,0,l),
(1053,0,l),
(1072,45,l),
(949,55,o),
(927,92,o),
(937,182,cs),
(1083,1523,l),
(1028,1524,l),
(895,1286,l)
);
},
{
closed = 1;
nodes = (
(1132,1656,l),
(958,1837,ls),
(920,1876,o),
(893,1900,o),
(855,1900,cs),
(804,1900,o),
(772,1862,o),
(772,1804,cs),
(772,1757,o),
(792,1721,o),
(832,1708,cs),
(1099,1614,l)
);
}
);
};
layerId = master01;
shapes = (
{
ref = A;
},
{
alignment = -1;
pos = (754,0);
ref = grave.cap;
scale = (0.84,1);
}
);
width = 1258;
},
{
background = {
anchors = (
{
name = bottom;
pos = (838,0);
},
{
name = topcap;
pos = (984,1643);
}
);
shapes = (
{
closed = 1;
nodes = (
(1000,1523,l),
(120,292,ls),
(-1,123,o),
(-32,102,o),
(-189,68,c),
(-212,0,l),
(307,0,l),
(330,68,l),
(221,94,o),
(179,121,o),
(179,165,cs),
(179,193,o),
(197,231,o),
(238,289,cs),
(1019,1373,l)
);
},
{
closed = 1;
nodes = (
(859,547,l),
(323,547,l),
(285,443,l),
(820,443,l)
);
},
{
closed = 1;
nodes = (
(727,226,ls),
(715,102,o),
(684,79,o),
(525,68,c),
(502,0,l),
(1080,0,l),
(1104,68,l),
(984,83,o),
(960,106,o),
(969,193,cs),
(1101,1523,l),
(1000,1523,l),
(820,1152,l)
);
},
{
closed = 1;
nodes = (
(1221,1674,l),
(1033,1870,ls),
(999,1906,o),
(964,1924,o),
(931,1924,cs),
(873,1924,o),
(830,1871,o),
(830,1803,cs),
(830,1746,o),
(860,1703,o),
(906,1692,cs),
(1188,1622,l)
);
}
);
};
layerId = "D3934E74-9B53-4E98-B19F-CD3DFEE08352";
shapes = (
{
ref = A;
},
{
pos = (406,0);
ref = grave.cap;
scale = (0.84,1);
}
);
width = 1273;
}
);
metricLeft = A;
metricRight = A;
unicode = 192;
},
{
glyphname = Amacron;
kernLeft = A;
kernRight = A;
layers = (
{
background = {
anchors = (
{
name = bottom;
pos = (778,0);
},
{
name = topcap;
pos = (1040,1643);
}
);
shapes = (
{
closed = 1;
nodes = (
(1028,1524,l),
(126,275,ls),
(12,117,o),
(-45,71,o),
(-193,45,c),
(-212,0,l),
(268,0,l),
(286,45,l),
(185,61,o),
(147,96,o),
(147,139,cs),
(147,172,o),
(164,201,o),
(215,271,cs),
(1002,1360,l)
);
},
{
closed = 1;
nodes = (
(835,639,l),
(454,639,l),
(402,565,l),
(826,565,l)
);
},
{
closed = 1;
nodes = (
(769,208,ls),
(755,93,o),
(705,47,o),
(570,45,c),
(550,0,l),
(1053,0,l),
(1072,45,l),
(949,55,o),
(927,92,o),
(937,182,cs),
(1083,1523,l),
(1028,1524,l),
(895,1286,l)
);
},
{
closed = 1;
nodes = (
(1229,1694,l),
(1278,1835,l),
(800,1835,l),
(755,1694,l)
);
}
);
};
layerId = master01;
shapes = (
{
ref = A;
},
{
alignment = -1;
pos = (817,-2);
ref = macron.cap;
scale = (0.84,1);
}
);
width = 1258;
},
{
background = {
anchors = (
{
name = bottom;
pos = (838,0);
},
{
name = topcap;
pos = (984,1643);
}
);
shapes = (
{
closed = 1;
nodes = (
(1000,1523,l),
(120,292,ls),
(-1,123,o),
(-32,102,o),
(-189,68,c),
(-212,0,l),
(307,0,l),
(330,68,l),
(221,94,o),
(179,121,o),
(179,165,cs),
(179,193,o),
(197,231,o),
(238,289,cs),
(1019,1373,l)
);
},
{
closed = 1;
nodes = (
(859,547,l),
(323,547,l),
(285,443,l),
(820,443,l)
);
},
{
closed = 1;
nodes = (
(727,226,ls),
(715,102,o),
(684,79,o),
(525,68,c),
(502,0,l),
(1080,0,l),
(1104,68,l),
(984,83,o),
(960,106,o),
(969,193,cs),
(1101,1523,l),
(1000,1523,l),
(820,1152,l)
);
},
{
closed = 1;
nodes = (
(1266,1674,l),
(1332,1865,l),
(778,1865,l),
(710,1674,l)
);
}
);
};
layerId = "D3934E74-9B53-4E98-B19F-CD3DFEE08352";
shapes = (
{
ref = A;
},
{
pos = (341,0);
ref = macron.cap;
scale = (0.84,1);
}
);
width = 1273;
}
);
metricLeft = A;
metricRight = A;
unicode = 256;
},
{
glyphname = Aogonek;
kernLeft = A;
kernRight = A;
layers = (
{
background = {
anchors = (
{
name = bottom;
pos = (778,0);
},
{
name = topcap;
pos = (1040,1643);
}
);
shapes = (
{
closed = 1;
nodes = (
(1028,1524,l),
(126,275,ls),
(12,117,o),
(-45,71,o),
(-193,45,c),
(-212,0,l),
(268,0,l),
(286,45,l),
(185,61,o),
(147,96,o),
(147,139,cs),
(147,172,o),
(164,201,o),
(215,271,cs),
(1002,1360,l)
);
},
{
closed = 1;
nodes = (
(835,639,l),
(454,639,l),
(402,565,l),
(826,565,l)
);
},
{
closed = 1;
nodes = (
(769,208,ls),
(755,93,o),
(705,47,o),
(570,45,c),
(550,0,l),
(1053,0,l),
(1072,45,l),
(949,55,o),
(927,92,o),
(937,182,cs),
(1083,1523,l),
(1028,1524,l),
(895,1286,l)
);
},
{
closed = 1;
nodes = (
(863,-507,o),
(941,-466,o),
(1016,-392,c,{
name = hr00;
}),
(1007,-357,l),
(956,-388,o),
(929,-398,o),
(899,-398,cs),
(857,-398,o),
(838,-380,o),
(838,-341,cs),
(838,-258,o),
(927,-127,o),
(1062,0,c),
(999,0,l),
(811,-117,o),
(678,-281,o),
(678,-404,cs),
(678,-471,o),
(717,-507,o),
(789,-507,cs)
);
}
);
};
layerId = master01;
shapes = (
{
ref = A;
},
{
alignment = -1;
pos = (650,0);
ref = ogonek;
scale = (0.84,1);
}
);
width = 1353;
},
{
background = {
anchors = (
{
name = bottom;
pos = (838,0);
},
{
name = topcap;
pos = (984,1643);
}
);
shapes = (
{
closed = 1;
nodes = (
(1000,1523,l),
(120,292,ls),
(-1,123,o),
(-32,102,o),
(-189,68,c),
(-212,0,l),
(307,0,l),
(330,68,l),
(221,94,o),
(179,121,o),
(179,165,cs),
(179,193,o),
(197,231,o),
(238,289,cs),
(1019,1373,l)
);
},
{
closed = 1;
nodes = (
(859,547,l),
(323,547,l),
(285,443,l),
(820,443,l)
);
},
{
closed = 1;
nodes = (
(727,226,ls),
(715,102,o),
(684,79,o),
(525,68,c),
(502,0,l),
(1080,0,l),
(1104,68,l),
(984,83,o),
(960,106,o),
(969,193,cs),
(1101,1523,l),
(1000,1523,l),
(820,1152,l)
);
},
{
closed = 1;
nodes = (
(856,-507,o),
(949,-459,o),
(1040,-368,c,{
name = hr00;
}),
(1031,-321,l),
(977,-354,o),
(945,-365,o),
(914,-365,cs),
(863,-365,o),
(838,-334,o),
(838,-289,cs),
(838,-208,o),
(920,-97,o),
(1071,0,c),
(975,0,l),
(727,-117,o),
(634,-258,o),
(634,-364,cs),
(634,-444,o),
(688,-507,o),
(778,-507,cs)
);
}
);
};
layerId = "D3934E74-9B53-4E98-B19F-CD3DFEE08352";
shapes = (
{
ref = A;
},
{
alignment = -1;
pos = (920,0);
ref = ogonek;
scale = (0.84,1);
}
);
width = 1359;
}
);
metricLeft = A;
metricRight = A;
unicode = 260;
},
{
glyphname = Aring;
kernLeft = A;
kernRight = A;
layers = (
{
background = {
anchors = (
{
name = bottom;
pos = (778,0);
},
{
name = topcap;
pos = (1040,1643);
}
);
shapes = (
{
closed = 1;
nodes = (
(1028,1524,l),
(126,275,ls),
(12,117,o),
(-45,71,o),
(-193,45,c),
(-212,0,l),
(268,0,l),
(286,45,l),
(185,61,o),
(147,96,o),
(147,139,cs),
(147,172,o),
(164,201,o),
(215,271,cs),
(1002,1360,l)
);
},
{
closed = 1;
nodes = (
(835,639,l),
(454,639,l),
(402,565,l),
(826,565,l)
);
},
{
closed = 1;
nodes = (
(769,208,ls),
(755,93,o),
(705,47,o),
(570,45,c),
(550,0,l),
(1053,0,l),
(1072,45,l),
(949,55,o),
(927,92,o),
(937,182,cs),
(1083,1523,l),
(1028,1524,l),
(895,1286,l)
);
},
{
closed = 1;
nodes = (
(1115,1643,o),
(1184,1716,o),
(1184,1795,cs),
(1184,1864,o),
(1130,1920,o),
(1064,1920,cs),
(989,1920,o),
(929,1848,o),
(929,1768,cs),
(929,1696,o),
(974,1643,o),
(1040,1643,cs)
);
},
{
closed = 1;
nodes = (
(1021,1719,o),
(1000,1743,o),
(1000,1776,cs),
(1000,1809,o),
(1027,1839,o),
(1059,1839,cs),
(1086,1839,o),
(1111,1815,o),
(1111,1786,cs),
(1111,1753,o),
(1079,1719,o),
(1049,1719,cs)
);
}
);
};
layerId = master01;
shapes = (
{
ref = A;
},
{
pos = (971,0);
ref = ring.cap;
scale = (0.84,1);
}
);
width = 1258;
},
{
background = {
anchors = (
{
name = bottom;
pos = (838,0);
},
{
name = topcap;
pos = (984,1643);
}
);
shapes = (
{
closed = 1;
nodes = (
(1000,1523,l),
(120,292,ls),
(-1,123,o),
(-32,102,o),
(-189,68,c),
(-212,0,l),
(307,0,l),
(330,68,l),
(221,94,o),
(179,121,o),
(179,165,cs),
(179,193,o),
(197,231,o),
(238,289,cs),
(1019,1373,l)
);
},
{
closed = 1;
nodes = (
(859,547,l),
(323,547,l),
(285,443,l),
(820,443,l)
);
},
{
closed = 1;
nodes = (
(727,226,ls),
(715,102,o),
(684,79,o),
(525,68,c),
(502,0,l),
(1080,0,l),
(1104,68,l),
(984,83,o),
(960,106,o),
(969,193,cs),
(1101,1523,l),
(1000,1523,l),
(820,1152,l)
);
},
{
closed = 1;
nodes = (
(1084,1622,o),
(1161,1704,o),
(1161,1793,cs),
(1161,1871,o),
(1102,1933,o),
(1026,1933,cs),
(942,1933,o),
(874,1853,o),
(874,1763,cs),
(874,1682,o),
(926,1622,o),
(1000,1622,cs)
);
},
{
closed = 1;
nodes = (
(981,1712,o),
(958,1738,o),
(958,1770,cs),
(958,1807,o),
(987,1839,o),
(1021,1839,cs),
(1049,1839,o),
(1075,1814,o),
(1075,1783,cs),
(1075,1748,o),
(1042,1712,o),
(1009,1712,cs)
);
}
);
};
layerId = "D3934E74-9B53-4E98-B19F-CD3DFEE08352";
shapes = (
{
alignment = -1;
ref = A;
},
{
pos = (463,0);
ref = ring.cap;
scale = (0.84,1);
}
);
width = 1273;
}
);
metricLeft = A;
metricRight = A;
unicode = 197;
},
{
glyphname = Aringacute;
kernLeft = A;
kernRight = A;
layers = (
{
background = {
anchors = (
{
name = bottom;
pos = (778,0);
},
{
name = topcap;
pos = (1040,1643);
}
);
shapes = (
{
closed = 1;
nodes = (
(1225,1734,o),
(1252,1761,o),
(1252,1804,cs),
(1252,1848,o),
(1228,1872,o),
(1179,1872,cs),
(1163,1872,o),
(1150,1868,o),
(1135,1862,c),
(1137,1734,l)
);
},
{
closed = 1;
nodes = (
(956,1810,l),
(851,1769,l),
(858,1721,l),
(951,1718,l)
);
},
{
closed = 1;
nodes = (
(1028,1524,l),
(126,275,ls),
(12,117,o),
(-45,71,o),
(-193,45,c),
(-212,0,l),
(268,0,l),
(286,45,l),
(185,61,o),
(147,96,o),
(147,139,cs),
(147,172,o),
(164,201,o),
(215,271,cs),
(1002,1360,l)
);
},
{
closed = 1;
nodes = (
(835,639,l),
(454,639,l),
(402,565,l),
(826,565,l)
);
},
{
closed = 1;
nodes = (
(769,208,ls),
(755,93,o),
(705,47,o),
(570,45,c),
(550,0,l),
(1053,0,l),
(1072,45,l),
(949,55,o),
(927,92,o),
(937,182,cs),
(1083,1523,l),
(1028,1524,l),
(895,1286,l)
);
},
{
closed = 1;
nodes = (
(1104,1643,o),
(1173,1716,o),
(1173,1795,cs),
(1173,1864,o),
(1119,1920,o),
(1053,1920,cs),
(978,1920,o),
(918,1848,o),
(918,1768,cs),
(918,1696,o),
(963,1643,o),
(1029,1643,cs)
);
},
{
closed = 1;
nodes = (
(1010,1719,o),
(989,1743,o),
(989,1776,cs),
(989,1809,o),
(1016,1839,o),
(1048,1839,cs),
(1075,1839,o),
(1100,1815,o),
(1100,1786,cs),
(1100,1753,o),
(1068,1719,o),
(1038,1719,cs)
);
}
);
};
layerId = master01;
shapes = (
{
closed = 1;
nodes = (
(1296,1734,o),
(1323,1761,o),
(1323,1804,cs),
(1323,1848,o),
(1299,1872,o),
(1250,1872,cs),
(1234,1872,o),
(1221,1868,o),
(1206,1862,c),
(1208,1734,l)
);
},
{
closed = 1;
nodes = (
(1027,1810,l),
(922,1769,l),
(929,1721,l),
(1022,1718,l)
);
},
{
ref = A;
},
{
pos = (971,0);
ref = ring.cap;
scale = (0.84,1);
}
);
width = 1258;
},
{
background = {
anchors = (
{
name = bottom;
pos = (838,0);
},
{
name = topcap;
pos = (984,1643);
}
);
shapes = (
{
closed = 1;
nodes = (
(1222,1721,o),
(1256,1754,o),
(1256,1807,cs),
(1256,1859,o),
(1226,1887,o),
(1168,1887,cs),
(1149,1887,o),
(1132,1883,o),
(1115,1876,c),
(1118,1721,ls)
);
},
{
closed = 1;
nodes = (
(900,1814,l),
(774,1763,l),
(783,1707,l),
(894,1703,l)
);
},
{
closed = 1;
nodes = (
(1000,1523,l),
(120,292,ls),
(-1,123,o),
(-32,102,o),
(-189,68,c),
(-212,0,l),
(307,0,l),
(330,68,l),
(221,94,o),
(179,121,o),
(179,165,cs),
(179,193,o),
(197,231,o),
(238,289,cs),
(1019,1373,l)
);
},
{
closed = 1;
nodes = (
(859,547,l),
(323,547,l),
(285,443,l),
(820,443,l)
);
},
{
closed = 1;
nodes = (
(727,226,ls),
(715,102,o),
(684,79,o),
(525,68,c),
(502,0,l),
(1080,0,l),
(1104,68,l),
(984,83,o),
(960,106,o),
(969,193,cs),
(1101,1523,l),
(1000,1523,l),
(820,1152,l)
);
},
{
closed = 1;
nodes = (
(1088,1622,o),
(1165,1704,o),
(1165,1793,cs),
(1165,1871,o),
(1106,1933,o),
(1030,1933,cs),
(946,1933,o),
(878,1853,o),
(878,1763,cs),
(878,1682,o),
(930,1622,o),
(1004,1622,cs)
);
},
{
closed = 1;
nodes = (
(985,1712,o),
(962,1738,o),
(962,1770,cs),
(962,1807,o),
(991,1839,o),
(1025,1839,cs),
(1053,1839,o),
(1079,1814,o),
(1079,1783,cs),
(1079,1748,o),
(1046,1712,o),
(1013,1712,cs)
);
}
);
};
layerId = "D3934E74-9B53-4E98-B19F-CD3DFEE08352";
shapes = (
{
closed = 1;
nodes = (
(1293,1721,o),
(1327,1754,o),
(1327,1807,cs),
(1327,1859,o),
(1297,1887,o),
(1239,1887,cs),
(1220,1887,o),
(1203,1883,o),
(1186,1876,c),
(1189,1721,ls)
);
},
{
closed = 1;
nodes = (
(971,1814,l),
(845,1763,l),
(854,1707,l),
(965,1703,l)
);
},
{
ref = A;
},
{
pos = (458,0);
ref = ring.cap;
scale = (0.84,1);
}
);
width = 1273;
}
);
metricLeft = A;
metricRight = A;
unicode = 506;
},
{
glyphname = Atilde;
kernLeft = A;
kernRight = A;
layers = (
{
background = {
anchors = (
{
name = bottom;
pos = (778,0);
},
{
name = topcap;
pos = (1040,1643);
}
);
shapes = (
{
closed = 1;
nodes = (
(1028,1524,l),
(126,275,ls),
(12,117,o),
(-45,71,o),
(-193,45,c),
(-212,0,l),
(268,0,l),
(286,45,l),
(185,61,o),
(147,96,o),
(147,139,cs),
(147,172,o),
(164,201,o),
(215,271,cs),
(1002,1360,l)
);
},
{
closed = 1;
nodes = (
(835,639,l),
(454,639,l),
(402,565,l),
(826,565,l)
);
},
{
closed = 1;
nodes = (
(769,208,ls),
(755,93,o),
(705,47,o),
(570,45,c),
(550,0,l),
(1053,0,l),
(1072,45,l),
(949,55,o),
(927,92,o),
(937,182,cs),
(1083,1523,l),
(1028,1524,l),
(895,1286,l)
);
},
{
closed = 1;
nodes = (
(1167,1685,o),
(1252,1781,o),
(1289,1917,c),
(1250,1917,l),
(1228,1868,o),
(1194,1841,o),
(1147,1841,cs),
(1073,1841,o),
(994,1911,o),
(918,1911,cs),
(837,1911,o),
(752,1818,o),
(721,1686,c),
(755,1686,l),
(773,1734,o),
(811,1761,o),
(858,1761,cs),
(937,1761,o),
(1007,1685,o),
(1086,1685,cs)
);
}
);
};
layerId = master01;
shapes = (
{
ref = A;
},
{
alignment = -1;
pos = (841,31);
ref = tilde.cap;
scale = (0.84,1);
}
);
width = 1258;
},
{
background = {
anchors = (
{
name = bottom;
pos = (838,0);
},
{
name = topcap;
pos = (984,1643);
}
);
shapes = (
{
closed = 1;
nodes = (
(1000,1523,l),
(120,292,ls),
(-1,123,o),
(-32,102,o),
(-189,68,c),
(-212,0,l),
(307,0,l),
(330,68,l),
(221,94,o),
(179,121,o),
(179,165,cs),
(179,193,o),
(197,231,o),
(238,289,cs),
(1019,1373,l)
);
},
{
closed = 1;
nodes = (
(859,547,l),
(323,547,l),
(285,443,l),
(820,443,l)
);
},
{
closed = 1;
nodes = (
(727,226,ls),
(715,102,o),
(684,79,o),
(525,68,c),
(502,0,l),
(1080,0,l),
(1104,68,l),
(984,83,o),
(960,106,o),
(969,193,cs),
(1101,1523,l),
(1000,1523,l),
(820,1152,l)
);
},
{
closed = 1;
nodes = (
(1246,1631,o),
(1348,1748,o),
(1394,1910,c),
(1327,1910,l),
(1301,1852,o),
(1260,1821,o),
(1205,1821,cs),
(1115,1821,o),
(1059,1903,o),
(963,1903,cs),
(850,1903,o),
(749,1792,o),
(711,1633,c),
(772,1633,l),
(794,1689,o),
(839,1723,o),
(896,1723,cs),
(990,1723,o),
(1035,1631,o),
(1135,1631,cs)
);
}
);
};
layerId = "D3934E74-9B53-4E98-B19F-CD3DFEE08352";
shapes = (
{
ref = A;
},
{
pos = (353,0);
ref = tilde.cap;
scale = (0.84,1);
}
);
width = 1273;
}
);
metricLeft = A;
metricRight = A;
unicode = 195;
},
{
glyphname = AE;
kernRight = E;
layers = (
{
background = {
shapes = (
{
closed = 1;
nodes = (
(1030,1390,l),
(1068,1390,l),
(613,83,l),
(460,45,l),
(444,0,l),
(1457,0,l),
(1608,456,l),
(1560,456,l),
(1496,330,o),
(1422,204,o),
(1332,78,c),
(795,78,l),
(1031,763,l),
(1320,763,l),
(1317,685,o),
(1310,606,o),
(1291,526,c),
(1340,526,l),
(1527,1069,l),
(1480,1069,l),
(1442,994,o),
(1396,919,o),
(1340,843,c),
(1061,843,l),
(1267,1445,l),
(1643,1445,l),
(1691,1346,o),
(1719,1229,o),
(1739,1088,c),
(1783,1088,l),
(1770,1523,l),
(894,1523,l),
(876,1479,l),
(1030,1436,l)
);
},
{
closed = 1;
nodes = (
(822,639,l),
(473,639,l),
(419,561,l),
(797,561,l)
);
},
{
closed = 1;
nodes = (
(1034,1479,l),
(122,275,ls),
(11,128,o),
(-39,73,o),
(-193,45,c),
(-212,0,l),
(257,0,l),
(275,45,l),
(179,61,o),
(141,94,o),
(141,138,cs),
(141,169,o),
(159,203,o),
(213,271,cs),
(1104,1445,l)
);
}
);
};
layerId = master01;
shapes = (
{
closed = 1;
nodes = (
(1030,1390,l),
(1068,1390,l),
(613,83,l),
(460,45,l),
(444,0,l),
(1457,0,l),
(1608,456,l),
(1560,456,l),
(1496,330,o),
(1422,204,o),
(1332,78,c),
(795,78,l),
(1031,763,l),
(1320,763,l),
(1317,685,o),
(1310,606,o),
(1291,526,c),
(1340,526,l),
(1527,1069,l),
(1480,1069,l),
(1442,994,o),
(1396,919,o),
(1340,843,c),
(1061,843,l),
(1267,1445,l),
(1643,1445,l),
(1691,1346,o),
(1719,1229,o),
(1739,1088,c),
(1783,1088,l),
(1770,1523,l),
(894,1523,l),
(876,1479,l),
(1030,1436,l)
);
},
{
closed = 1;
nodes = (
(822,639,l),
(473,639,l),
(419,561,l),
(797,561,l)
);
},
{
closed = 1;
nodes = (
(1034,1479,l),
(122,275,ls),
(11,128,o),
(-39,73,o),
(-193,45,c),
(-212,0,l),
(257,0,l),
(275,45,l),
(179,61,o),
(141,94,o),
(141,138,cs),
(141,169,o),
(159,203,o),
(213,271,cs),
(1104,1445,l)
);
}
);
width = 1728;
},
{
background = {
shapes = (
{
closed = 1;
nodes = (
(1016,1398,l),
(1065,1398,l),
(613,106,l),
(464,68,l),
(439,0,l),
(1499,0,l),
(1654,463,l),
(1596,463,l),
(1530,341,o),
(1454,229,o),
(1353,104,c),
(876,104,l),
(1104,754,l),
(1292,754,l),
(1310,679,o),
(1315,602,o),
(1307,529,c),
(1377,529,l),
(1570,1082,l),
(1500,1082,l),
(1467,1020,o),
(1411,947,o),
(1330,858,c),
(1141,858,l),
(1336,1420,l),
(1640,1420,l),
(1691,1330,o),
(1733,1225,o),
(1770,1088,c),
(1828,1088,l),
(1814,1523,l),
(848,1523,l),
(823,1455,l),
(1016,1424,l)
);
},
{
closed = 1;
nodes = (
(860,547,l),
(324,547,l),
(286,443,l),
(822,443,l)
);
},
{
closed = 1;
nodes = (
(995,1495,l),
(120,292,ls),
(-5,122,o),
(-32,102,o),
(-189,68,c),
(-212,0,l),
(307,0,l),
(331,68,l),
(222,94,o),
(180,121,o),
(180,165,cs),
(180,193,o),
(197,231,o),
(239,289,cs),
(1088,1449,l)
);
}
);
};
layerId = "D3934E74-9B53-4E98-B19F-CD3DFEE08352";
shapes = (
{
closed = 1;
nodes = (
(1016,1398,l),
(1065,1398,l),
(613,106,l),
(464,68,l),
(439,0,l),
(1499,0,l),
(1654,463,l),
(1596,463,l),
(1530,341,o),
(1454,229,o),
(1353,104,c),
(876,104,l),
(1104,754,l),
(1292,754,l),
(1310,679,o),
(1315,602,o),
(1307,529,c),
(1377,529,l),
(1570,1082,l),
(1500,1082,l),
(1467,1020,o),
(1411,947,o),
(1330,858,c),
(1141,858,l),
(1336,1420,l),
(1640,1420,l),
(1691,1330,o),
(1733,1225,o),
(1770,1088,c),
(1828,1088,l),
(1814,1523,l),
(848,1523,l),
(823,1455,l),
(1016,1424,l)
);
},
{
closed = 1;
nodes = (
(860,547,l),
(324,547,l),
(286,443,l),
(822,443,l)
);
},
{
closed = 1;
nodes = (
(995,1495,l),
(120,292,ls),
(-5,122,o),
(-32,102,o),
(-189,68,c),
(-212,0,l),
(307,0,l),
(331,68,l),
(222,94,o),
(180,121,o),
(180,165,cs),
(180,193,o),
(197,231,o),
(239,289,cs),
(1088,1449,l)
);
}
);
width = 1760;
}
);
metricLeft = A;
metricRight = E;
unicode = 198;
},
{
glyphname = AEacute;
kernLeft = AE;
kernRight = E;
layers = (
{
background = {
shapes = (
{
closed = 1;
nodes = (
(1030,1390,l),
(1068,1390,l),
(613,83,l),
(460,45,l),
(444,0,l),
(1457,0,l),
(1608,456,l),
(1560,456,l),
(1496,330,o),
(1422,204,o),
(1332,78,c),
(795,78,l),
(1031,763,l),
(1320,763,l),
(1317,685,o),
(1310,606,o),
(1291,526,c),
(1340,526,l),
(1527,1069,l),
(1480,1069,l),
(1442,994,o),
(1396,919,o),
(1340,843,c),
(1061,843,l),
(1267,1445,l),
(1643,1445,l),
(1691,1346,o),
(1719,1229,o),
(1739,1088,c),
(1783,1088,l),
(1770,1523,l),
(894,1523,l),
(876,1479,l),
(1030,1436,l)
);
},
{
closed = 1;
nodes = (
(822,639,l),
(473,639,l),
(419,561,l),
(797,561,l)
);
},
{
closed = 1;
nodes = (
(1034,1479,l),
(122,275,ls),
(11,128,o),
(-39,73,o),
(-193,45,c),
(-212,0,l),
(257,0,l),
(275,45,l),
(179,61,o),
(141,94,o),
(141,138,cs),
(141,169,o),
(159,203,o),
(213,271,cs),
(1104,1445,l)
);
},
{
closed = 1;
nodes = (
(1405,1703,ls),
(1493,1732,o),
(1519,1769,o),
(1519,1815,cs),
(1519,1864,o),
(1483,1900,o),
(1447,1900,cs),
(1420,1900,o),
(1399,1891,o),
(1374,1868,cs),
(1136,1656,l),
(1152,1614,l)
);
}
);
};
layerId = master01;
shapes = (
{
alignment = -1;
ref = AE;
},
{
alignment = -1;
pos = (1118,0);
ref = acute.cap;
scale = (0.84,1);
}
);
width = 1728;
},
{
background = {
shapes = (
{
closed = 1;
nodes = (
(1016,1398,l),
(1065,1398,l),
(613,106,l),
(464,68,l),
(439,0,l),
(1499,0,l),
(1654,463,l),
(1596,463,l),
(1530,341,o),
(1454,229,o),
(1353,104,c),
(876,104,l),
(1104,754,l),
(1292,754,l),
(1310,679,o),
(1315,602,o),
(1307,529,c),
(1377,529,l),
(1570,1082,l),
(1500,1082,l),
(1467,1020,o),
(1411,947,o),
(1330,858,c),
(1141,858,l),
(1336,1420,l),
(1640,1420,l),
(1691,1330,o),
(1733,1225,o),
(1770,1088,c),
(1828,1088,l),
(1814,1523,l),
(848,1523,l),
(823,1455,l),
(1016,1424,l)
);
},
{
closed = 1;
nodes = (
(860,547,l),
(324,547,l),
(286,443,l),
(822,443,l)
);
},
{
closed = 1;
nodes = (
(995,1495,l),
(120,292,ls),
(-5,122,o),
(-32,102,o),
(-189,68,c),
(-212,0,l),
(307,0,l),
(331,68,l),
(222,94,o),
(180,121,o),
(180,165,cs),
(180,193,o),
(197,231,o),
(239,289,cs),
(1088,1449,l)
);
},
{
closed = 1;
nodes = (
(1480,1692,ls),
(1526,1702,o),
(1556,1746,o),
(1556,1803,cs),
(1556,1871,o),
(1513,1924,o),
(1456,1924,cs),
(1422,1924,o),
(1388,1903,o),
(1353,1870,cs),
(1145,1674,l),
(1179,1622,l)
);
}
);
};
layerId = "D3934E74-9B53-4E98-B19F-CD3DFEE08352";
shapes = (
{
alignment = -1;
ref = AE;
},
{
alignment = -1;
pos = (696,0);
ref = acute.cap;
scale = (0.84,1);
}
);
width = 1760;
}
);
metricLeft = A;
metricRight = E;
unicode = 508;
},
{
glyphname = B;
kernLeft = I;
kernRight = B;
layers = (
{
background = {
shapes = (
{
closed = 1;
nodes = (
(489,0,ls),
(811,0,o),
(1025,184,o),
(1025,463,cs),
(1025,630,o),
(951,746,o),
(818,786,c),
(818,793,l),
(1038,834,o),
(1200,1013,o),
(1200,1214,cs),
(1200,1406,o),
(1050,1523,o),
(814,1523,cs),
(415,1523,l),
(400,1479,l),
(530,1441,l),
(53,83,l),
(-94,45,l),
(-108,0,l)
);
},
{
closed = 1;
nodes = (
(307,75,o),
(273,94,o),
(273,146,cs),
(273,172,o),
(281,211,o),
(300,267,cs),
(474,770,l),
(594,770,ls),
(763,770,o),
(846,685,o),
(846,497,cs),
(846,226,o),
(693,75,o),
(401,75,cs)
);
},
{
closed = 1;
nodes = (
(712,1443,l),
(814,1443,ls),
(955,1443,o),
(1027,1369,o),
(1027,1211,cs),
(1027,985,o),
(892,849,o),
(657,849,cs),
(502,849,l)
);
}
);
};
guides = (
{
pos = (1539,1251);
}
);
layerId = master01;
shapes = (
{
closed = 1;
nodes = (
(489,0,ls),
(811,0,o),
(1025,184,o),
(1025,463,cs),
(1025,630,o),
(951,746,o),
(818,786,c),
(818,793,l),
(1038,834,o),
(1200,1013,o),
(1200,1214,cs),
(1200,1406,o),
(1050,1523,o),
(814,1523,cs),
(415,1523,l),
(400,1479,l),
(530,1441,l),
(53,83,l),
(-94,45,l),
(-108,0,l)
);
},
{
closed = 1;
nodes = (
(307,75,o),
(273,94,o),
(273,146,cs),
(273,172,o),
(281,211,o),
(300,267,cs),
(474,770,l),
(594,770,ls),
(763,770,o),
(846,685,o),
(846,497,cs),
(846,226,o),
(693,75,o),
(401,75,cs)
);
},
{
closed = 1;
nodes = (
(712,1443,l),
(814,1443,ls),
(955,1443,o),
(1027,1369,o),
(1027,1211,cs),
(1027,985,o),
(892,849,o),
(657,849,cs),
(502,849,l)
);
}
);
width = 1154;
},
{
background = {
shapes = (
{
closed = 1;
nodes = (
(504,0,ls),
(855,0,o),
(1089,204,o),
(1089,474,cs),
(1089,647,o),
(1006,762,o),
(816,791,c),
(816,804,l),
(1130,856,o),
(1283,1006,o),
(1283,1213,cs),
(1283,1413,o),
(1136,1523,o),
(831,1523,cs),
(407,1523,l),
(383,1455,l),
(522,1416,l),
(65,106,l),
(-85,68,l),
(-109,0,l)
);
},
{
closed = 1;
nodes = (
(402,104,o),
(368,126,o),
(368,170,cs),
(368,182,o),
(370,199,o),
(378,222,cs),
(567,759,l),
(618,759,ls),
(755,759,o),
(820,682,o),
(819,518,cs),
(818,272,o),
(678,104,o),
(474,104,cs)
);
},
{
closed = 1;
nodes = (
(797,1420,l),
(806,1420,ls),
(943,1420,o),
(1013,1344,o),
(1013,1193,cs),
(1013,993,o),
(887,862,o),
(690,862,cs),
(602,862,l)
);
}
);
};
guides = (
{
pos = (736,703);
}
);
layerId = "D3934E74-9B53-4E98-B19F-CD3DFEE08352";
shapes = (
{
closed = 1;
nodes = (
(504,0,ls),
(855,0,o),
(1089,204,o),
(1089,474,cs),
(1089,647,o),
(1006,762,o),
(816,791,c),
(816,804,l),
(1130,856,o),
(1283,1006,o),
(1283,1213,cs),
(1283,1413,o),
(1136,1523,o),
(831,1523,cs),
(407,1523,l),
(383,1455,l),
(522,1416,l),
(65,106,l),
(-85,68,l),
(-109,0,l)
);
},
{
closed = 1;
nodes = (
(402,104,o),
(368,126,o),
(368,170,cs),
(368,182,o),
(370,199,o),
(378,222,cs),
(567,759,l),
(618,759,ls),
(755,759,o),
(820,682,o),
(819,518,cs),
(818,272,o),
(678,104,o),
(474,104,cs)
);
},
{
closed = 1;
nodes = (
(797,1420,l),
(806,1420,ls),
(943,1420,o),
(1013,1344,o),
(1013,1193,cs),
(1013,993,o),
(887,862,o),
(690,862,cs),
(602,862,l)
);
}
);
width = 1200;
}
);
metricLeft = I;
unicode = 66;
},
{
glyphname = C;
kernLeft = C;
kernRight = C;
layers = (
{
anchors = (
{
name = bottom;
pos = (520,0);
},
{
name = topcap;
pos = (1113,1643);
}
);
background = {
anchors = (
{
name = bottom;
pos = (520,0);
},
{
name = topcap;
pos = (1113,1643);
}
);
shapes = (
{
closed = 1;
nodes = (
(660,-21,o),
(774,29,o),
(906,153,c),
(913,153,l),
(900,0,l),
(945,0,l),
(1129,580,l),
(1081,580,l),
(967,265,o),
(769,73,o),
(556,73,cs),
(388,73,o),
(302,193,o),
(302,433,cs),
(302,944,o),
(676,1457,o),
(1049,1457,cs),
(1179,1457,o),
(1239,1396,o),
(1239,1255,cs),
(1239,1203,o),
(1231,1142,o),
(1214,1069,c),
(1263,1069,l),
(1424,1523,l),
(1387,1523,l),
(1327,1459,l),
(1267,1512,o),
(1172,1544,o),
(1066,1544,cs),
(594,1544,o),
(120,982,o),
(120,421,cs),
(120,128,o),
(249,-21,o),
(511,-21,cs)
);
}
);
};
guides = (
{
angle = 68;
pos = (1273,772);
}
);
layerId = master01;
shapes = (
{
closed = 1;
nodes = (
(660,-21,o),
(774,29,o),
(906,153,c),
(913,153,l),
(900,0,l),
(945,0,l),
(1129,580,l),
(1081,580,l),
(967,265,o),
(769,73,o),
(556,73,cs),
(388,73,o),
(302,193,o),
(302,433,cs),
(302,944,o),
(676,1457,o),
(1049,1457,cs),
(1179,1457,o),
(1239,1396,o),
(1239,1255,cs),
(1239,1203,o),
(1231,1142,o),
(1214,1069,c),
(1263,1069,l),
(1424,1523,l),
(1387,1523,l),
(1327,1459,l),
(1267,1512,o),
(1172,1544,o),
(1066,1544,cs),
(594,1544,o),
(120,982,o),
(120,421,cs),
(120,128,o),
(249,-21,o),
(511,-21,cs)
);
}
);
width = 1234;
},
{
anchors = (
{
name = bottom;
pos = (503,0);
},
{
name = topcap;
pos = (1096,1643);
}
);
background = {
anchors = (
{
name = bottom;
pos = (503,0);
},
{
name = topcap;
pos = (1096,1643);
}
);
shapes = (
{
closed = 1;
nodes = (
(721,-21,o),
(858,38,o),
(978,129,c),
(982,129,l),
(983,0,l),
(1041,0,l),
(1243,611,l),
(1185,611,l),
(1035,278,o),
(810,88,o),
(631,88,cs),
(489,88,o),
(416,187,o),
(416,432,cs),
(416,964,o),
(731,1438,o),
(1059,1438,cs),
(1223,1438,o),
(1306,1324,o),
(1306,1126,cs),
(1306,1093,o),
(1304,1065,o),
(1299,1039,c),
(1357,1039,l),
(1524,1523,l),
(1466,1523,l),
(1395,1435,l),
(1310,1507,o),
(1186,1544,o),
(1055,1544,cs),
(584,1544,o),
(128,1055,o),
(128,488,cs),
(128,157,o),
(285,-21,o),
(565,-21,cs)
);
}
);
};
layerId = "D3934E74-9B53-4E98-B19F-CD3DFEE08352";
shapes = (
{
closed = 1;
nodes = (
(721,-21,o),
(858,38,o),
(978,129,c),
(982,129,l),
(983,0,l),
(1041,0,l),
(1243,611,l),
(1185,611,l),
(1035,278,o),
(810,88,o),
(631,88,cs),
(489,88,o),
(416,187,o),
(416,432,cs),
(416,964,o),
(731,1438,o),
(1059,1438,cs),
(1223,1438,o),
(1306,1324,o),
(1306,1126,cs),
(1306,1093,o),
(1304,1065,o),
(1299,1039,c),
(1357,1039,l),
(1524,1523,l),
(1466,1523,l),
(1395,1435,l),
(1310,1507,o),
(1186,1544,o),
(1055,1544,cs),
(584,1544,o),
(128,1055,o),
(128,488,cs),
(128,157,o),
(285,-21,o),
(565,-21,cs)
);
}
);
width = 1321;
}
);
metricLeft = O;
unicode = 67;
},
{
glyphname = Cacute;
kernLeft = C;
kernRight = C;
layers = (
{
background = {
anchors = (
{
name = bottom;
pos = (520,0);
},
{
name = topcap;
pos = (1113,1643);
}
);
shapes = (
{
closed = 1;
nodes = (
(660,-21,o),
(774,29,o),
(906,153,c),
(913,153,l),
(900,0,l),
(945,0,l),
(1129,580,l),
(1081,580,l),
(967,265,o),
(769,73,o),
(556,73,cs),
(388,73,o),
(302,193,o),
(302,433,cs),
(302,944,o),
(676,1457,o),
(1049,1457,cs),
(1179,1457,o),
(1239,1396,o),
(1239,1255,cs),
(1239,1203,o),
(1231,1142,o),
(1214,1069,c),
(1263,1069,l),
(1424,1523,l),
(1387,1523,l),
(1327,1459,l),
(1267,1512,o),
(1172,1544,o),
(1066,1544,cs),
(594,1544,o),
(120,982,o),
(120,421,cs),
(120,128,o),
(249,-21,o),
(511,-21,cs)
);
},
{
closed = 1;
nodes = (
(1194,1703,ls),
(1282,1732,o),
(1308,1769,o),
(1308,1815,cs),
(1308,1864,o),
(1272,1900,o),
(1236,1900,cs),
(1209,1900,o),
(1188,1891,o),
(1163,1868,cs),
(925,1656,l),
(941,1614,l)
);
}
);
};
layerId = master01;
shapes = (
{
ref = C;
},
{
alignment = -1;
pos = (907,0);
ref = acute.cap;
scale = (0.84,1);
}
);
width = 1233;
},
{
background = {
anchors = (
{
name = bottom;
pos = (504,0);
},
{
name = topcap;
pos = (1097,1643);
}
);
shapes = (
{
closed = 1;
nodes = (
(722,-21,o),
(859,38,o),
(979,129,c),
(983,129,l),
(984,0,l),
(1042,0,l),
(1244,611,l),
(1186,611,l),
(1036,278,o),
(811,88,o),
(632,88,cs),
(490,88,o),
(417,187,o),
(417,432,cs),
(417,964,o),
(732,1438,o),
(1060,1438,cs),
(1224,1438,o),
(1307,1324,o),
(1307,1126,cs),
(1307,1093,o),
(1305,1065,o),
(1300,1039,c),
(1358,1039,l),
(1525,1523,l),
(1467,1523,l),
(1396,1435,l),
(1311,1507,o),
(1187,1544,o),
(1056,1544,cs),
(585,1544,o),
(129,1055,o),
(129,488,cs),
(129,157,o),
(286,-21,o),
(566,-21,cs)
);
},
{
closed = 1;
nodes = (
(1281,1692,ls),
(1327,1702,o),
(1357,1746,o),
(1357,1803,cs),
(1357,1871,o),
(1314,1924,o),
(1257,1924,cs),
(1223,1924,o),
(1189,1903,o),
(1154,1870,cs),
(946,1674,l),
(980,1622,l)
);
}
);
};
layerId = "D3934E74-9B53-4E98-B19F-CD3DFEE08352";
shapes = (
{
ref = C;
},
{
pos = (496,0);
ref = acute.cap;
scale = (0.84,1);
}
);
width = 1321;
}
);
unicode = 262;
},
{
glyphname = Ccaron;
kernLeft = C;
kernRight = C;
layers = (
{
background = {
anchors = (
{
name = bottom;
pos = (520,0);
},
{
name = topcap;
pos = (1113,1643);
}
);
shapes = (
{
closed = 1;
nodes = (
(660,-21,o),
(774,29,o),
(906,153,c),
(913,153,l),
(900,0,l),
(945,0,l),
(1129,580,l),
(1081,580,l),
(967,265,o),
(769,73,o),
(556,73,cs),
(388,73,o),
(302,193,o),
(302,433,cs),
(302,944,o),
(676,1457,o),
(1049,1457,cs),
(1179,1457,o),
(1239,1396,o),
(1239,1255,cs),
(1239,1203,o),
(1231,1142,o),
(1214,1069,c),
(1263,1069,l),
(1424,1523,l),
(1387,1523,l),
(1327,1459,l),
(1267,1512,o),
(1172,1544,o),
(1066,1544,cs),
(594,1544,o),
(120,982,o),
(120,421,cs),
(120,128,o),
(249,-21,o),
(511,-21,cs)
);
},
{
closed = 1;
nodes = (
(1136,1622,o),
(1159,1643,o),
(1200,1677,cs),
(1419,1867,l),
(1400,1900,l),
(1126,1765,l),
(974,1900,l),
(932,1867,l),
(1021,1677,ls),
(1039,1639,o),
(1055,1622,o),
(1094,1622,cs)
);
}
);
};
layerId = master01;
shapes = (
{
ref = C;
},
{
alignment = -1;
pos = (914,0);
ref = caron.cap;
scale = (0.84,1);
}
);
width = 1233;
},
{
background = {
anchors = (
{
name = bottom;
pos = (504,0);
},
{
name = topcap;
pos = (1097,1643);
}
);
shapes = (
{
closed = 1;
nodes = (
(722,-21,o),
(859,38,o),
(979,129,c),
(983,129,l),
(984,0,l),
(1042,0,l),
(1244,611,l),
(1186,611,l),
(1036,278,o),
(811,88,o),
(632,88,cs),
(490,88,o),
(417,187,o),
(417,432,cs),
(417,964,o),
(732,1438,o),
(1060,1438,cs),
(1224,1438,o),
(1307,1324,o),
(1307,1126,cs),
(1307,1093,o),
(1305,1065,o),
(1300,1039,c),
(1358,1039,l),
(1525,1523,l),
(1467,1523,l),
(1396,1435,l),
(1311,1507,o),
(1187,1544,o),
(1056,1544,cs),
(585,1544,o),
(129,1055,o),
(129,488,cs),
(129,157,o),
(286,-21,o),
(566,-21,cs)
);
},
{
closed = 1;
nodes = (
(1141,1622,o),
(1173,1639,o),
(1232,1692,cs),
(1459,1900,l),
(1438,1935,l),
(1141,1810,l),
(973,1935,l),
(926,1898,l),
(1017,1692,ls),
(1039,1641,o),
(1062,1622,o),
(1104,1622,cs)
);
}
);
};
layerId = "D3934E74-9B53-4E98-B19F-CD3DFEE08352";
shapes = (
{
ref = C;
},
{
pos = (423,0);
ref = caron.cap;
scale = (0.84,1);
}
);
width = 1321;
}
);
unicode = 268;
},
{
glyphname = Ccedilla;
kernLeft = C;
kernRight = C;
layers = (
{
background = {
anchors = (
{
name = bottom;
pos = (520,0);
},
{
name = topcap;
pos = (1113,1643);
}
);
shapes = (
{
closed = 1;
nodes = (
(660,-21,o),
(774,29,o),
(906,153,c),
(913,153,l),
(900,0,l),
(945,0,l),
(1129,580,l),
(1081,580,l),
(967,265,o),
(769,73,o),
(556,73,cs),
(388,73,o),
(302,193,o),
(302,433,cs),
(302,944,o),
(676,1457,o),
(1049,1457,cs),
(1179,1457,o),
(1239,1396,o),
(1239,1255,cs),
(1239,1203,o),
(1231,1142,o),
(1214,1069,c),
(1263,1069,l),
(1424,1523,l),
(1387,1523,l),
(1327,1459,l),
(1267,1512,o),
(1172,1544,o),
(1066,1544,cs),
(594,1544,o),
(120,982,o),
(120,421,cs),
(120,128,o),
(249,-21,o),
(511,-21,cs)
);
},
{
closed = 1;
nodes = (
(498,-508,o),
(630,-388,o),
(630,-253,cs),
(630,-167,o),
(578,-115,o),
(484,-115,c),
(578,33,l),
(512,33,l),
(331,-240,l),
(344,-265,l),
(364,-250,o),
(392,-242,o),
(424,-242,cs),
(473,-242,o),
(494,-264,o),
(494,-310,cs),
(494,-390,o),
(429,-448,o),
(346,-448,cs),
(310,-448,o),
(284,-438,o),
(258,-416,c),
(231,-461,l),
(250,-491,o),
(291,-508,o),
(347,-508,cs)
);
}
);
};
layerId = master01;
shapes = (
{
ref = C;
},
{
pos = (276,0);
ref = cedilla;
scale = (0.84,1);
}
);
width = 1234;
},
{
background = {
anchors = (
{
name = bottom;
pos = (504,0);
},
{
name = topcap;
pos = (1097,1643);
}
);
shapes = (
{
closed = 1;
nodes = (
(722,-21,o),
(859,38,o),
(979,129,c),
(983,129,l),
(984,0,l),
(1042,0,l),
(1244,611,l),
(1186,611,l),
(1036,278,o),
(811,88,o),
(632,88,cs),
(490,88,o),
(417,187,o),
(417,432,cs),
(417,964,o),
(732,1438,o),
(1060,1438,cs),
(1224,1438,o),
(1307,1324,o),
(1307,1126,cs),
(1307,1093,o),
(1305,1065,o),
(1300,1039,c),
(1358,1039,l),
(1525,1523,l),
(1467,1523,l),
(1396,1435,l),
(1311,1507,o),
(1187,1544,o),
(1056,1544,cs),
(585,1544,o),
(129,1055,o),
(129,488,cs),
(129,157,o),
(286,-21,o),
(566,-21,cs)
);
},
{
closed = 1;
nodes = (
(485,-509,o),
(634,-383,o),
(634,-245,cs),
(634,-165,o),
(586,-114,o),
(474,-114,c),
(568,33,l),
(479,33,l),
(291,-251,l),
(306,-294,l),
(331,-278,o),
(361,-266,o),
(398,-266,cs),
(442,-266,o),
(471,-281,o),
(471,-327,cs),
(471,-387,o),
(422,-438,o),
(338,-438,cs),
(285,-438,o),
(254,-419,o),
(224,-395,c),
(190,-449,l),
(218,-485,o),
(276,-509,o),
(339,-509,cs)
);
}
);
};
layerId = "D3934E74-9B53-4E98-B19F-CD3DFEE08352";
shapes = (
{
ref = C;
},
{
pos = (481,0);
ref = cedilla;
scale = (0.84,1);
}
);
width = 1321;
}
);
unicode = 199;
},
{
glyphname = Ccircumflex;
kernLeft = C;
kernRight = C;
layers = (
{
background = {
anchors = (
{
name = bottom;
pos = (520,0);
},
{
name = topcap;
pos = (1113,1643);
}
);
shapes = (
{
closed = 1;
nodes = (
(660,-21,o),
(774,29,o),
(906,153,c),
(913,153,l),
(900,0,l),
(945,0,l),
(1129,580,l),
(1081,580,l),
(967,265,o),
(769,73,o),
(556,73,cs),
(388,73,o),
(302,193,o),
(302,433,cs),
(302,944,o),
(676,1457,o),
(1049,1457,cs),
(1179,1457,o),
(1239,1396,o),
(1239,1255,cs),
(1239,1203,o),
(1231,1142,o),
(1214,1069,c),
(1263,1069,l),
(1424,1523,l),
(1387,1523,l),
(1327,1459,l),
(1267,1512,o),
(1172,1544,o),
(1066,1544,cs),
(594,1544,o),
(120,982,o),
(120,421,cs),
(120,128,o),
(249,-21,o),
(511,-21,cs)
);
},
{
closed = 1;
nodes = (
(1151,1757,l),
(1302,1622,l),
(1345,1656,l),
(1256,1847,ls),
(1237,1885,o),
(1221,1900,o),
(1183,1900,cs),
(1142,1900,o),
(1116,1880,o),
(1076,1847,cs),
(858,1656,l),
(877,1622,l)
);
}
);
};
layerId = master01;
shapes = (
{
ref = C;
},
{
pos = (840,0);
ref = circumflex.cap;
scale = (0.84,1);
}
);
width = 1234;
},
{
background = {
anchors = (
{
name = bottom;
pos = (504,0);
},
{
name = topcap;
pos = (1097,1643);
}
);
shapes = (
{
closed = 1;
nodes = (
(722,-21,o),
(859,38,o),
(979,129,c),
(983,129,l),
(984,0,l),
(1042,0,l),
(1244,611,l),
(1186,611,l),
(1036,278,o),
(811,88,o),
(632,88,cs),
(490,88,o),
(417,187,o),
(417,432,cs),
(417,964,o),
(732,1438,o),
(1060,1438,cs),
(1224,1438,o),
(1307,1324,o),
(1307,1126,cs),
(1307,1093,o),
(1305,1065,o),
(1300,1039,c),
(1358,1039,l),
(1525,1523,l),
(1467,1523,l),
(1396,1435,l),
(1311,1507,o),
(1187,1544,o),
(1056,1544,cs),
(585,1544,o),
(129,1055,o),
(129,488,cs),
(129,157,o),
(286,-21,o),
(566,-21,cs)
);
},
{
closed = 1;
nodes = (
(1134,1747,l),
(1303,1622,l),
(1350,1659,l),
(1259,1865,ls),
(1236,1915,o),
(1214,1935,o),
(1172,1935,cs),
(1134,1935,o),
(1102,1918,o),
(1044,1865,cs),
(817,1657,l),
(838,1622,l)
);
}
);
};
layerId = "D3934E74-9B53-4E98-B19F-CD3DFEE08352";
shapes = (
{
ref = C;
},
{
pos = (372,0);
ref = circumflex.cap;
scale = (0.84,1);
}
);
width = 1321;
}
);
unicode = 264;
},
{
glyphname = Cdotaccent;
kernLeft = C;
kernRight = C;
layers = (
{
background = {
anchors = (
{
name = bottom;
pos = (520,0);
},
{
name = topcap;
pos = (1113,1643);
}
);
shapes = (
{
closed = 1;
nodes = (
(660,-21,o),
(774,29,o),
(906,153,c),
(913,153,l),
(900,0,l),
(945,0,l),
(1129,580,l),
(1081,580,l),
(967,265,o),
(769,73,o),
(556,73,cs),
(388,73,o),
(302,193,o),
(302,433,cs),
(302,944,o),
(676,1457,o),
(1049,1457,cs),
(1179,1457,o),
(1239,1396,o),
(1239,1255,cs),
(1239,1203,o),
(1231,1142,o),
(1214,1069,c),
(1263,1069,l),
(1424,1523,l),
(1387,1523,l),
(1327,1459,l),
(1267,1512,o),
(1172,1544,o),
(1066,1544,cs),
(594,1544,o),
(120,982,o),
(120,421,cs),
(120,128,o),
(249,-21,o),
(511,-21,cs)
);
},
{
closed = 1;
nodes = (
(1224,1654,o),
(1285,1719,o),
(1285,1792,cs),
(1285,1852,o),
(1235,1900,o),
(1180,1900,cs),
(1116,1900,o),
(1059,1839,o),
(1059,1765,cs),
(1059,1698,o),
(1098,1654,o),
(1161,1654,cs)
);
}
);
};
layerId = master01;
shapes = (
{
ref = C;
},
{
alignment = -1;
pos = (1041,0);
ref = dotaccent.cap;
scale = (0.84,1);
}
);
width = 1233;
},
{
background = {
anchors = (
{
name = bottom;
pos = (504,0);
},
{
name = topcap;
pos = (1097,1643);
}
);
shapes = (
{
closed = 1;
nodes = (
(722,-21,o),
(859,38,o),
(979,129,c),
(983,129,l),
(984,0,l),
(1042,0,l),
(1244,611,l),
(1186,611,l),
(1036,278,o),
(811,88,o),
(632,88,cs),
(490,88,o),
(417,187,o),
(417,432,cs),
(417,964,o),
(732,1438,o),
(1060,1438,cs),
(1224,1438,o),
(1307,1324,o),
(1307,1126,cs),
(1307,1093,o),
(1305,1065,o),
(1300,1039,c),
(1358,1039,l),
(1525,1523,l),
(1467,1523,l),
(1396,1435,l),
(1311,1507,o),
(1187,1544,o),
(1056,1544,cs),
(585,1544,o),
(129,1055,o),
(129,488,cs),
(129,157,o),
(286,-21,o),
(566,-21,cs)
);
},
{
closed = 1;
nodes = (
(1215,1654,o),
(1283,1728,o),
(1283,1810,cs),
(1283,1880,o),
(1228,1932,o),
(1164,1932,cs),
(1093,1932,o),
(1029,1863,o),
(1029,1781,cs),
(1029,1705,o),
(1072,1654,o),
(1143,1654,cs)
);
}
);
};
layerId = "D3934E74-9B53-4E98-B19F-CD3DFEE08352";
shapes = (
{
ref = C;
},
{
pos = (548,0);
ref = dotaccent.cap;
scale = (0.84,1);
}
);
width = 1321;
}
);
unicode = 266;
},
{
glyphname = D;
kernLeft = I;
kernRight = D;
layers = (
{
anchors = (
{
name = bottom;
pos = (427,0);
},
{
name = topcap;
pos = (958,1643);
}
);
background = {
anchors = (
{
name = bottom;
pos = (427,0);
},
{
name = topcap;
pos = (958,1643);
}
);
shapes = (
{
closed = 1;
nodes = (
(405,0,ls),
(928,0,o),
(1302,466,o),
(1302,965,cs),
(1302,1338,o),
(1090,1523,o),
(761,1523,cs),
(419,1523,l),
(402,1479,l),
(532,1441,l),
(60,83,l),
(-94,45,l),
(-110,0,l)
);
},
{
closed = 1;
nodes = (
(311,83,o),
(279,104,o),
(279,159,cs),
(279,182,o),
(286,214,o),
(301,256,cs),
(714,1445,l),
(759,1445,ls),
(983,1445,o),
(1118,1313,o),
(1118,1010,cs),
(1118,516,o),
(774,83,o),
(400,83,cs)
);
}
);
};
layerId = master01;
shapes = (
{
closed = 1;
nodes = (
(405,0,ls),
(928,0,o),
(1302,466,o),
(1302,965,cs),
(1302,1338,o),
(1090,1523,o),
(761,1523,cs),
(419,1523,l),
(402,1479,l),
(532,1441,l),
(60,83,l),
(-94,45,l),
(-110,0,l)
);
},
{
closed = 1;
nodes = (
(311,83,o),
(279,104,o),
(279,159,cs),
(279,182,o),
(286,214,o),
(301,256,cs),
(714,1445,l),
(759,1445,ls),
(983,1445,o),
(1118,1313,o),
(1118,1010,cs),
(1118,516,o),
(774,83,o),
(400,83,cs)
);
}
);
width = 1299;
},
{
anchors = (
{
name = bottom;
pos = (501,0);
},
{
name = topcap;
pos = (1033,1643);
}
);
background = {
anchors = (
{
name = bottom;
pos = (501,0);
},
{
name = topcap;
pos = (1033,1643);
}
);
shapes = (
{
closed = 1;
nodes = (
(498,0,l),
(1059,0,o),
(1469,409,o),
(1469,934,cs),
(1469,1318,o),
(1257,1523,o),
(868,1523,cs),
(407,1523,l),
(383,1455,l),
(522,1416,l),
(65,106,l),
(-85,68,l),
(-109,0,l)
);
},
{
closed = 1;
nodes = (
(410,107,o),
(379,131,o),
(379,176,cs),
(379,190,o),
(382,207,o),
(389,226,cs),
(805,1414,l),
(877,1414,ls),
(1067,1414,o),
(1182,1278,o),
(1182,994,cs),
(1182,522,o),
(869,107,o),
(471,107,cs)
);
}
);
};
layerId = "D3934E74-9B53-4E98-B19F-CD3DFEE08352";
shapes = (
{
closed = 1;
nodes = (
(498,0,l),
(1059,0,o),
(1469,409,o),
(1469,934,cs),
(1469,1318,o),
(1257,1523,o),
(868,1523,cs),
(407,1523,l),
(383,1455,l),
(522,1416,l),
(65,106,l),
(-85,68,l),
(-109,0,l)
);
},
{
closed = 1;
nodes = (
(410,107,o),
(379,131,o),
(379,176,cs),
(379,190,o),
(382,207,o),
(389,226,cs),
(805,1414,l),
(877,1414,ls),
(1067,1414,o),
(1182,1278,o),
(1182,994,cs),
(1182,522,o),
(869,107,o),
(471,107,cs)
);
}
);
width = 1462;
}
);
metricLeft = I;
metricRight = D;
unicode = 68;
},
{
glyphname = Dcaron;
kernLeft = I;
kernRight = D;
layers = (
{
background = {
anchors = (
{
name = bottom;
pos = (427,0);
},
{
name = topcap;
pos = (958,1643);
}
);
shapes = (
{
closed = 1;
nodes = (
(405,0,ls),
(928,0,o),
(1302,466,o),
(1302,965,cs),
(1302,1338,o),
(1090,1523,o),
(761,1523,cs),
(419,1523,l),
(402,1479,l),
(532,1441,l),
(60,83,l),
(-94,45,l),
(-110,0,l)
);
},
{
closed = 1;
nodes = (
(311,83,o),
(279,104,o),
(279,159,cs),
(279,182,o),
(286,214,o),
(301,256,cs),
(714,1445,l),
(759,1445,ls),
(983,1445,o),
(1118,1313,o),
(1118,1010,cs),
(1118,516,o),
(774,83,o),
(400,83,cs)
);
},
{
closed = 1;
nodes = (
(912,1622,o),
(935,1643,o),
(976,1677,cs),
(1195,1867,l),
(1176,1900,l),
(902,1765,l),
(750,1900,l),
(708,1867,l),
(797,1677,ls),
(815,1639,o),
(831,1622,o),
(870,1622,cs)
);
}
);
};
layerId = master01;
shapes = (
{
ref = D;
},
{
alignment = -1;
pos = (690,0);
ref = caron.cap;
scale = (0.84,1);
}
);
width = 1339;
},
{
background = {
anchors = (
{
name = bottom;
pos = (501,0);
},
{
name = topcap;
pos = (1033,1643);
}
);
shapes = (
{
closed = 1;
nodes = (
(498,0,l),
(1059,0,o),
(1469,409,o),
(1469,934,cs),
(1469,1318,o),
(1257,1523,o),
(868,1523,cs),
(407,1523,l),
(383,1455,l),
(522,1416,l),
(65,106,l),
(-85,68,l),
(-109,0,l)
);
},
{
closed = 1;
nodes = (
(410,107,o),
(379,131,o),
(379,176,cs),
(379,190,o),
(382,207,o),
(389,226,cs),
(805,1414,l),
(877,1414,ls),
(1067,1414,o),
(1182,1278,o),
(1182,994,cs),
(1182,522,o),
(869,107,o),
(471,107,cs)
);
},
{
closed = 1;
nodes = (
(1077,1622,o),
(1109,1639,o),
(1168,1692,cs),
(1395,1900,l),
(1374,1935,l),
(1077,1810,l),
(909,1935,l),
(862,1898,l),
(953,1692,ls),
(975,1641,o),
(998,1622,o),
(1040,1622,cs)
);
}
);
};
layerId = "D3934E74-9B53-4E98-B19F-CD3DFEE08352";
shapes = (
{
ref = D;
},
{
pos = (360,0);
ref = caron.cap;
scale = (0.84,1);
}
);
width = 1462;
}
);
unicode = 270;
},
{
glyphname = Dcroat;
kernLeft = I;
kernRight = D;
layers = (
{
background = {
anchors = (
{
name = bottom;
pos = (486,0);
},
{
name = topcap;
pos = (1017,1643);
}
);
shapes = (
{
closed = 1;
nodes = (
(747,744,l),
(778,831,l),
(185,831,l),
(155,744,l)
);
},
{
closed = 1;
nodes = (
(464,0,ls),
(987,0,o),
(1361,466,o),
(1361,965,cs),
(1361,1338,o),
(1149,1523,o),
(820,1523,cs),
(478,1523,l),
(461,1479,l),
(591,1441,l),
(119,83,l),
(-35,45,l),
(-51,0,l)
);
},
{
closed = 1;
nodes = (
(370,83,o),
(338,104,o),
(338,159,cs),
(338,182,o),
(345,214,o),
(360,256,cs),
(773,1445,l),
(818,1445,ls),
(1042,1445,o),
(1177,1313,o),
(1177,1010,cs),
(1177,516,o),
(833,83,o),
(459,83,cs)
);
}
);
};
layerId = master01;
shapes = (
{
ref = Eth;
}
);
width = 1300;
},
{
background = {
anchors = (
{
name = bottom;
pos = (528,0);
},
{
name = topcap;
pos = (1060,1643);
}
);
shapes = (
{
closed = 1;
nodes = (
(760,721,l),
(806,854,l),
(175,854,l),
(129,721,l)
);
},
{
closed = 1;
nodes = (
(525,0,l),
(1086,0,o),
(1496,409,o),
(1496,934,cs),
(1496,1318,o),
(1284,1523,o),
(895,1523,cs),
(434,1523,l),
(410,1455,l),
(549,1416,l),
(92,106,l),
(-58,68,l),
(-82,0,l)
);
},
{
closed = 1;
nodes = (
(437,107,o),
(406,131,o),
(406,176,cs),
(406,190,o),
(409,207,o),
(416,226,cs),
(832,1414,l),
(904,1414,ls),
(1094,1414,o),
(1209,1278,o),
(1209,994,cs),
(1209,522,o),
(896,107,o),
(498,107,cs)
);
}
);
};
layerId = "D3934E74-9B53-4E98-B19F-CD3DFEE08352";
shapes = (
{
ref = Eth;
}
);
width = 1463;
}
);
metricLeft = D;
metricRight = D;
unicode = 272;
},
{
glyphname = Ddotbelow;
kernLeft = I;
kernRight = D;
layers = (
{
background = {
anchors = (
{
name = bottom;
pos = (427,0);
},
{
name = topcap;
pos = (958,1643);
}
);
shapes = (
{
closed = 1;
nodes = (
(405,0,ls),
(928,0,o),
(1302,466,o),
(1302,965,cs),
(1302,1338,o),
(1090,1523,o),
(761,1523,cs),
(419,1523,l),
(402,1479,l),
(532,1441,l),
(60,83,l),
(-94,45,l),
(-110,0,l)
);
},
{
closed = 1;
nodes = (
(311,83,o),
(279,104,o),
(279,159,cs),
(279,182,o),
(286,214,o),
(301,256,cs),
(714,1445,l),
(759,1445,ls),
(983,1445,o),
(1118,1313,o),
(1118,1010,cs),
(1118,516,o),
(774,83,o),
(400,83,cs)
);
},
{
closed = 1;
nodes = (
(392,-507,o),
(453,-440,o),
(453,-367,cs),
(453,-307,o),
(403,-260,o),
(348,-260,cs),
(284,-260,o),
(227,-320,o),
(227,-394,cs),
(227,-461,o),
(266,-507,o),
(329,-507,cs)
);
}
);
};
layerId = master01;
shapes = (
{
ref = D;
},
{
pos = (209,0);
ref = dotbelow;
}
);
width = 1299;
},
{
background = {
anchors = (
{
name = bottom;
pos = (501,0);
},
{
name = topcap;
pos = (1033,1643);
}
);
shapes = (
{
closed = 1;
nodes = (
(498,0,l),
(1059,0,o),
(1469,409,o),
(1469,934,cs),
(1469,1318,o),
(1257,1523,o),
(868,1523,cs),
(407,1523,l),
(383,1455,l),
(522,1416,l),
(65,106,l),
(-85,68,l),
(-109,0,l)
);
},
{
closed = 1;
nodes = (
(410,107,o),
(379,131,o),
(379,176,cs),
(379,190,o),
(382,207,o),
(389,226,cs),
(805,1414,l),
(877,1414,ls),
(1067,1414,o),
(1182,1278,o),
(1182,994,cs),
(1182,522,o),
(869,107,o),
(471,107,cs)
);
},
{
closed = 1;
nodes = (
(464,-426,o),
(532,-351,o),
(532,-269,cs),
(532,-199,o),
(477,-147,o),
(413,-147,cs),
(342,-147,o),
(278,-216,o),
(278,-298,cs),
(278,-374,o),
(321,-426,o),
(392,-426,cs)
);
}
);
};
layerId = "D3934E74-9B53-4E98-B19F-CD3DFEE08352";
shapes = (
{
ref = D;
},
{
pos = (507,0);
ref = dotbelow;
}
);
width = 1462;
}
);
unicode = 7692;
},
{
glyphname = Eth;
kernLeft = I;
kernRight = D;
layers = (
{
background = {
anchors = (
{
name = bottom;
pos = (428,0);
},
{
name = topcap;
pos = (959,1643);
}
);
shapes = (
{
closed = 1;
nodes = (
(689,744,l),
(720,831,l),
(127,831,l),
(97,744,l)
);
},
{
closed = 1;
nodes = (
(406,0,ls),
(929,0,o),
(1303,466,o),
(1303,965,cs),
(1303,1338,o),
(1091,1523,o),
(762,1523,cs),
(420,1523,l),
(403,1479,l),
(533,1441,l),
(61,83,l),
(-93,45,l),
(-109,0,l)
);
},
{
closed = 1;
nodes = (
(312,83,o),
(280,104,o),
(280,159,cs),
(280,182,o),
(287,214,o),
(302,256,cs),
(715,1445,l),
(760,1445,ls),
(984,1445,o),
(1119,1313,o),
(1119,1010,cs),
(1119,516,o),
(775,83,o),
(401,83,cs)
);
}
);
};
layerId = master01;
shapes = (
{
closed = 1;
nodes = (
(689,744,l),
(720,831,l),
(127,831,l),
(97,744,l)
);
},
{
pos = (1,0);
ref = D;
}
);
width = 1300;
},
{
background = {
anchors = (
{
name = bottom;
pos = (502,0);
},
{
name = topcap;
pos = (1034,1643);
}
);
shapes = (
{
closed = 1;
nodes = (
(734,721,l),
(780,854,l),
(149,854,l),
(103,721,l)
);
},
{
closed = 1;
nodes = (
(499,0,l),
(1060,0,o),
(1470,409,o),
(1470,934,cs),
(1470,1318,o),
(1258,1523,o),
(869,1523,cs),
(408,1523,l),
(384,1455,l),
(523,1416,l),
(66,106,l),
(-84,68,l),
(-108,0,l)
);
},
{
closed = 1;
nodes = (
(411,107,o),
(380,131,o),
(380,176,cs),
(380,190,o),
(383,207,o),
(390,226,cs),
(806,1414,l),
(878,1414,ls),
(1068,1414,o),
(1183,1278,o),
(1183,994,cs),
(1183,522,o),
(870,107,o),
(472,107,cs)
);
}
);
};
layerId = "D3934E74-9B53-4E98-B19F-CD3DFEE08352";
shapes = (
{
closed = 1;
nodes = (
(734,721,l),
(780,854,l),
(149,854,l),
(103,721,l)
);
},
{
pos = (1,0);
ref = D;
}
);
width = 1463;
}
);
metricRight = D;
unicode = 208;
},
{
glyphname = E;
kernLeft = I;
kernRight = E;
layers = (
{
anchors = (
{
name = bottom;
pos = (403,0);
},
{
name = topcap;
pos = (931,1643);
}
);
background = {
anchors = (
{
name = bottom;
pos = (403,0);
},
{
name = topcap;
pos = (931,1643);
}
);
shapes = (
{
closed = 1;
nodes = (
(902,0,l),
(1053,456,l),
(1005,456,l),
(942,330,o),
(868,204,o),
(778,78,c),
(241,78,l),
(477,763,l),
(766,763,l),
(762,685,o),
(755,606,o),
(738,526,c),
(786,526,l),
(974,1069,l),
(926,1069,l),
(887,994,o),
(841,919,o),
(786,843,c),
(507,843,l),
(713,1445,l),
(1088,1445,l),
(1137,1346,o),
(1164,1229,o),
(1185,1088,c),
(1231,1088,l),
(1217,1523,l),
(419,1523,l),
(402,1479,l),
(532,1441,l),
(60,83,l),
(-94,45,l),
(-110,0,l)
);
}
);
};
layerId = master01;
shapes = (
{
closed = 1;
nodes = (
(902,0,l),
(1053,456,l),
(1005,456,l),
(942,330,o),
(868,204,o),
(778,78,c),
(241,78,l),
(477,763,l),
(766,763,l),
(762,685,o),
(755,606,o),
(738,526,c),
(786,526,l),
(974,1069,l),
(926,1069,l),
(887,994,o),
(841,919,o),
(786,843,c),
(507,843,l),
(713,1445,l),
(1088,1445,l),
(1137,1346,o),
(1164,1229,o),
(1185,1088,c),
(1231,1088,l),
(1217,1523,l),
(419,1523,l),
(402,1479,l),
(532,1441,l),
(60,83,l),
(-94,45,l),
(-110,0,l)
);
}
);
width = 1173;
},
{
anchors = (
{
name = bottom;
pos = (509,0);
},
{
name = topcap;
pos = (939,1643);
}
);
background = {
anchors = (
{
name = bottom;
pos = (509,0);
},
{
name = topcap;
pos = (939,1643);
}
);
shapes = (
{
closed = 1;
nodes = (
(969,0,l),
(1124,463,l),
(1066,463,l),
(1002,344,o),
(927,233,o),
(823,104,c),
(346,104,l),
(573,753,l),
(774,753,l),
(780,677,o),
(777,577,o),
(770,510,c),
(840,510,l),
(1026,1043,l),
(957,1043,l),
(924,994,o),
(866,920,o),
(802,857,c),
(609,857,l),
(806,1420,l),
(1110,1420,l),
(1163,1327,o),
(1205,1221,o),
(1240,1088,c),
(1298,1088,l),
(1284,1523,l),
(407,1523,l),
(383,1455,l),
(522,1416,l),
(64,106,l),
(-86,68,l),
(-110,0,l)
);
}
);
};
guides = (
{
pos = (1084,699);
}
);
layerId = "D3934E74-9B53-4E98-B19F-CD3DFEE08352";
shapes = (
{
closed = 1;
nodes = (
(969,0,l),
(1124,463,l),
(1066,463,l),
(1002,344,o),
(927,233,o),
(823,104,c),
(346,104,l),
(573,753,l),
(774,753,l),
(780,677,o),
(777,577,o),
(770,510,c),
(840,510,l),
(1026,1043,l),
(957,1043,l),
(924,994,o),
(866,920,o),
(802,857,c),
(609,857,l),
(806,1420,l),
(1110,1420,l),
(1163,1327,o),
(1205,1221,o),
(1240,1088,c),
(1298,1088,l),
(1284,1523,l),
(407,1523,l),
(383,1455,l),
(522,1416,l),
(64,106,l),
(-86,68,l),
(-110,0,l)
);
}
);
width = 1230;
}
);
metricLeft = I;
unicode = 69;
},
{
glyphname = Eacute;
kernLeft = I;
kernRight = E;
layers = (
{
background = {
anchors = (
{
name = bottom;
pos = (403,0);
},
{
name = topcap;
pos = (931,1643);
}
);
shapes = (
{
closed = 1;
nodes = (
(902,0,l),
(1053,456,l),
(1005,456,l),
(942,330,o),
(868,204,o),
(778,78,c),
(241,78,l),
(477,763,l),
(766,763,l),
(762,685,o),
(755,606,o),
(738,526,c),
(786,526,l),
(974,1069,l),
(926,1069,l),
(887,994,o),
(841,919,o),
(786,843,c),
(507,843,l),
(713,1445,l),
(1088,1445,l),
(1137,1346,o),
(1164,1229,o),
(1185,1088,c),
(1231,1088,l),
(1217,1523,l),
(419,1523,l),
(402,1479,l),
(532,1441,l),
(60,83,l),
(-94,45,l),
(-110,0,l)
);
},
{
closed = 1;
nodes = (
(1012,1703,ls),
(1100,1732,o),
(1126,1769,o),
(1126,1815,cs),
(1126,1864,o),
(1090,1900,o),
(1054,1900,cs),
(1027,1900,o),
(1006,1891,o),
(981,1868,cs),
(743,1656,l),
(759,1614,l)
);
}
);
};
layerId = master01;
shapes = (
{
ref = E;
},
{
pos = (725,0);
ref = acute.cap;
scale = (0.84,1);
}
);
width = 1173;
},
{
background = {
anchors = (
{
name = bottom;
pos = (509,0);
},
{
name = topcap;
pos = (939,1643);
}
);
shapes = (
{
closed = 1;
nodes = (
(969,0,l),
(1124,463,l),
(1066,463,l),
(1002,344,o),
(927,233,o),
(823,104,c),
(346,104,l),
(573,753,l),
(774,753,l),
(780,677,o),
(777,577,o),
(770,510,c),
(840,510,l),
(1026,1043,l),
(957,1043,l),
(924,994,o),
(866,920,o),
(802,857,c),
(609,857,l),
(806,1420,l),
(1110,1420,l),
(1163,1327,o),
(1205,1221,o),
(1240,1088,c),
(1298,1088,l),
(1284,1523,l),
(407,1523,l),
(383,1455,l),
(522,1416,l),
(64,106,l),
(-86,68,l),
(-110,0,l)
);
},
{
closed = 1;
nodes = (
(1123,1692,ls),
(1169,1702,o),
(1199,1746,o),
(1199,1803,cs),
(1199,1871,o),
(1156,1924,o),
(1099,1924,cs),
(1065,1924,o),
(1031,1903,o),
(996,1870,cs),
(788,1674,l),
(822,1622,l)
);
}
);
};
layerId = "D3934E74-9B53-4E98-B19F-CD3DFEE08352";
shapes = (
{
ref = E;
},
{
pos = (339,0);
ref = acute.cap;
scale = (0.84,1);
}
);
width = 1230;
}
);
unicode = 201;
},
{
glyphname = Ebreve;
kernLeft = I;
kernRight = E;
layers = (
{
background = {
anchors = (
{
name = bottom;
pos = (403,0);
},
{
name = topcap;
pos = (931,1643);
}
);
shapes = (
{
closed = 1;
nodes = (
(902,0,l),
(1053,456,l),
(1005,456,l),
(942,330,o),
(868,204,o),
(778,78,c),
(241,78,l),
(477,763,l),
(766,763,l),
(762,685,o),
(755,606,o),
(738,526,c),
(786,526,l),
(974,1069,l),
(926,1069,l),
(887,994,o),
(841,919,o),
(786,843,c),
(507,843,l),
(713,1445,l),
(1088,1445,l),
(1137,1346,o),
(1164,1229,o),
(1185,1088,c),
(1231,1088,l),
(1217,1523,l),
(419,1523,l),
(402,1479,l),
(532,1441,l),
(60,83,l),
(-94,45,l),
(-110,0,l)
);
},
{
closed = 1;
nodes = (
(960,1625,o),
(1090,1655,o),
(1227,1900,c),
(1161,1900,l),
(1092,1809,o),
(1018,1771,o),
(945,1771,cs),
(858,1771,o),
(816,1818,o),
(814,1900,c),
(755,1900,l),
(743,1856,o),
(740,1821,o),
(740,1789,cs),
(740,1669,o),
(812,1625,o),
(888,1625,cs)
);
}
);
};
layerId = master01;
shapes = (
{
ref = E;
},
{
alignment = -1;
pos = (722,0);
ref = breve.cap;
scale = (0.84,1);
}
);
width = 1173;
},
{
background = {
anchors = (
{
name = bottom;
pos = (509,0);
},
{
name = topcap;
pos = (939,1643);
}
);
shapes = (
{
closed = 1;
nodes = (
(969,0,l),
(1124,463,l),
(1066,463,l),
(1002,344,o),
(927,233,o),
(823,104,c),
(346,104,l),
(573,753,l),
(774,753,l),
(780,677,o),
(777,577,o),
(770,510,c),
(840,510,l),
(1026,1043,l),
(957,1043,l),
(924,994,o),
(866,920,o),
(802,857,c),
(609,857,l),
(806,1420,l),
(1110,1420,l),
(1163,1327,o),
(1205,1221,o),
(1240,1088,c),
(1298,1088,l),
(1284,1523,l),
(407,1523,l),
(383,1455,l),
(522,1416,l),
(64,106,l),
(-86,68,l),
(-110,0,l)
);
},
{
closed = 1;
nodes = (
(1087,1622,o),
(1221,1733,o),
(1328,1935,c),
(1241,1935,l),
(1176,1841,o),
(1101,1795,o),
(1012,1795,cs),
(923,1795,o),
(874,1842,o),
(881,1935,c),
(802,1935,l),
(788,1886,o),
(783,1857,o),
(783,1823,cs),
(783,1698,o),
(849,1622,o),
(956,1622,cs)
);
}
);
};
layerId = "D3934E74-9B53-4E98-B19F-CD3DFEE08352";
shapes = (
{
ref = E;
},
{
pos = (285,0);
ref = breve.cap;
scale = (0.84,1);
}
);
width = 1230;
}
);
metricLeft = E;
metricRight = E;
unicode = 276;
},
{
glyphname = Ecaron;
kernLeft = I;
kernRight = E;
layers = (
{
background = {
anchors = (
{
name = bottom;
pos = (403,0);
},
{
name = topcap;
pos = (931,1643);
}
);
shapes = (
{
closed = 1;
nodes = (
(902,0,l),
(1053,456,l),
(1005,456,l),
(942,330,o),
(868,204,o),
(778,78,c),
(241,78,l),
(477,763,l),
(766,763,l),
(762,685,o),
(755,606,o),
(738,526,c),
(786,526,l),
(974,1069,l),
(926,1069,l),
(887,994,o),
(841,919,o),
(786,843,c),
(507,843,l),
(713,1445,l),
(1088,1445,l),
(1137,1346,o),
(1164,1229,o),
(1185,1088,c),
(1231,1088,l),
(1217,1523,l),
(419,1523,l),
(402,1479,l),
(532,1441,l),
(60,83,l),
(-94,45,l),
(-110,0,l)
);
},
{
closed = 1;
nodes = (
(944,1622,o),
(967,1643,o),
(1008,1677,cs),
(1227,1867,l),
(1208,1900,l),
(934,1765,l),
(782,1900,l),
(740,1867,l),
(829,1677,ls),
(847,1639,o),
(863,1622,o),
(902,1622,cs)
);
}
);
};
layerId = master01;
shapes = (
{
ref = E;
},
{
alignment = -1;
pos = (722,0);
ref = caron.cap;
scale = (0.84,1);
}
);
width = 1173;
},
{
background = {
anchors = (
{
name = bottom;
pos = (509,0);
},
{
name = topcap;
pos = (939,1643);
}
);
shapes = (
{
closed = 1;
nodes = (
(969,0,l),
(1124,463,l),
(1066,463,l),
(1002,344,o),
(927,233,o),
(823,104,c),
(346,104,l),
(573,753,l),
(774,753,l),
(780,677,o),
(777,577,o),
(770,510,c),
(840,510,l),
(1026,1043,l),
(957,1043,l),
(924,994,o),
(866,920,o),
(802,857,c),
(609,857,l),
(806,1420,l),
(1110,1420,l),
(1163,1327,o),
(1205,1221,o),
(1240,1088,c),
(1298,1088,l),
(1284,1523,l),
(407,1523,l),
(383,1455,l),
(522,1416,l),
(64,106,l),
(-86,68,l),
(-110,0,l)
);
},
{
closed = 1;
nodes = (
(983,1622,o),
(1015,1639,o),
(1074,1692,cs),
(1301,1900,l),
(1280,1935,l),
(983,1810,l),
(815,1935,l),
(768,1898,l),
(859,1692,ls),
(881,1641,o),
(904,1622,o),
(946,1622,cs)
);
}
);
};
layerId = "D3934E74-9B53-4E98-B19F-CD3DFEE08352";
shapes = (
{
ref = E;
},
{
pos = (266,0);
ref = caron.cap;
scale = (0.84,1);
}
);
width = 1230;
}
);
metricLeft = E;
metricRight = E;
unicode = 282;
},
{
glyphname = Ecircumflex;
kernLeft = I;
kernRight = E;
layers = (
{
background = {
anchors = (
{
name = bottom;
pos = (403,0);
},
{
name = topcap;
pos = (931,1643);
}
);
shapes = (
{
closed = 1;
nodes = (
(902,0,l),
(1053,456,l),
(1005,456,l),
(942,330,o),
(868,204,o),
(778,78,c),
(241,78,l),
(477,763,l),
(766,763,l),
(762,685,o),
(755,606,o),
(738,526,c),
(786,526,l),
(974,1069,l),
(926,1069,l),
(887,994,o),
(841,919,o),
(786,843,c),
(507,843,l),
(713,1445,l),
(1088,1445,l),
(1137,1346,o),
(1164,1229,o),
(1185,1088,c),
(1231,1088,l),
(1217,1523,l),
(419,1523,l),
(402,1479,l),
(532,1441,l),
(60,83,l),
(-94,45,l),
(-110,0,l)
);
},
{
closed = 1;
nodes = (
(933,1757,l),
(1084,1622,l),
(1127,1656,l),
(1038,1847,ls),
(1019,1885,o),
(1003,1900,o),
(965,1900,cs),
(924,1900,o),
(898,1880,o),
(858,1847,cs),
(640,1656,l),
(659,1622,l)
);
}
);
};
layerId = master01;
shapes = (
{
ref = E;
},
{
alignment = -1;
pos = (622,0);
ref = circumflex.cap;
scale = (0.84,1);
}
);
width = 1173;
},
{
background = {
anchors = (
{
name = bottom;
pos = (509,0);
},
{
name = topcap;
pos = (939,1643);
}
);
shapes = (
{
closed = 1;
nodes = (
(969,0,l),
(1124,463,l),
(1066,463,l),
(1002,344,o),
(927,233,o),
(823,104,c),
(346,104,l),
(573,753,l),
(774,753,l),
(780,677,o),
(777,577,o),
(770,510,c),
(840,510,l),
(1026,1043,l),
(957,1043,l),
(924,994,o),
(866,920,o),
(802,857,c),
(609,857,l),
(806,1420,l),
(1110,1420,l),
(1163,1327,o),
(1205,1221,o),
(1240,1088,c),
(1298,1088,l),
(1284,1523,l),
(407,1523,l),
(383,1455,l),
(522,1416,l),
(64,106,l),
(-86,68,l),
(-110,0,l)
);
},
{
closed = 1;
nodes = (
(976,1747,l),
(1145,1622,l),
(1192,1659,l),
(1101,1865,ls),
(1078,1915,o),
(1056,1935,o),
(1014,1935,cs),
(976,1935,o),
(944,1918,o),
(886,1865,cs),
(659,1657,l),
(680,1622,l)
);
}
);
};
layerId = "D3934E74-9B53-4E98-B19F-CD3DFEE08352";
shapes = (
{
ref = E;
},
{
pos = (215,0);
ref = circumflex.cap;
scale = (0.84,1);
}
);
width = 1230;
}
);
metricLeft = E;
metricRight = E;
unicode = 202;
},
{
glyphname = Edieresis;
kernLeft = I;
kernRight = E;
layers = (
{
background = {
anchors = (
{
name = bottom;
pos = (403,0);
},
{
name = topcap;
pos = (931,1643);
}
);
shapes = (
{
closed = 1;
nodes = (
(902,0,l),
(1053,456,l),
(1005,456,l),
(942,330,o),
(868,204,o),
(778,78,c),
(241,78,l),
(477,763,l),
(766,763,l),
(762,685,o),
(755,606,o),
(738,526,c),
(786,526,l),
(974,1069,l),
(926,1069,l),
(887,994,o),
(841,919,o),
(786,843,c),
(507,843,l),
(713,1445,l),
(1088,1445,l),
(1137,1346,o),
(1164,1229,o),
(1185,1088,c),
(1231,1088,l),
(1217,1523,l),
(419,1523,l),
(402,1479,l),
(532,1441,l),
(60,83,l),
(-94,45,l),
(-110,0,l)
);
},
{
closed = 1;
nodes = (
(1095,1680,o),
(1150,1740,o),
(1150,1802,cs),
(1150,1859,o),
(1105,1900,o),
(1056,1900,cs),
(999,1900,o),
(947,1845,o),
(947,1781,cs),
(947,1719,o),
(983,1680,o),
(1038,1680,cs)
);
},
{
closed = 1;
nodes = (
(805,1680,o),
(859,1740,o),
(859,1802,cs),
(859,1859,o),
(815,1900,o),
(765,1900,cs),
(708,1900,o),
(658,1845,o),
(658,1781,cs),
(658,1719,o),
(692,1680,o),
(748,1680,cs)
);
}
);
};
layerId = master01;
shapes = (
{
ref = E;
},
{
alignment = -1;
pos = (640,0);
ref = dieresis.cap;
scale = (0.84,1);
}
);
width = 1173;
},
{
background = {
anchors = (
{
name = bottom;
pos = (509,0);
},
{
name = topcap;
pos = (939,1643);
}
);
shapes = (
{
closed = 1;
nodes = (
(969,0,l),
(1124,463,l),
(1066,463,l),
(1002,344,o),
(927,233,o),
(823,104,c),
(346,104,l),
(573,753,l),
(774,753,l),
(780,677,o),
(777,577,o),
(770,510,c),
(840,510,l),
(1026,1043,l),
(957,1043,l),
(924,994,o),
(866,920,o),
(802,857,c),
(609,857,l),
(806,1420,l),
(1110,1420,l),
(1163,1327,o),
(1205,1221,o),
(1240,1088,c),
(1298,1088,l),
(1284,1523,l),
(407,1523,l),
(383,1455,l),
(522,1416,l),
(64,106,l),
(-86,68,l),
(-110,0,l)
);
},
{
closed = 1;
nodes = (
(1209,1680,o),
(1270,1749,o),
(1270,1822,cs),
(1270,1886,o),
(1220,1933,o),
(1163,1933,cs),
(1098,1933,o),
(1039,1870,o),
(1039,1795,cs),
(1039,1727,o),
(1079,1680,o),
(1144,1680,cs)
);
},
{
closed = 1;
nodes = (
(877,1680,o),
(939,1749,o),
(939,1822,cs),
(939,1886,o),
(888,1933,o),
(831,1933,cs),
(767,1933,o),
(708,1870,o),
(708,1795,cs),
(708,1727,o),
(748,1680,o),
(812,1680,cs)
);
}
);
};
layerId = "D3934E74-9B53-4E98-B19F-CD3DFEE08352";
shapes = (
{
ref = E;
},
{
pos = (207,0);
ref = dieresis.cap;
scale = (0.84,1);
}
);
width = 1230;
}
);
metricLeft = E;
metricRight = E;
unicode = 203;
},
{
glyphname = Edotaccent;
kernLeft = I;
kernRight = E;
layers = (
{
background = {
anchors = (
{
name = bottom;
pos = (403,0);
},
{
name = topcap;
pos = (931,1643);
}
);
shapes = (
{
closed = 1;
nodes = (
(902,0,l),
(1053,456,l),
(1005,456,l),
(942,330,o),
(868,204,o),
(778,78,c),
(241,78,l),
(477,763,l),
(766,763,l),
(762,685,o),
(755,606,o),
(738,526,c),
(786,526,l),
(974,1069,l),
(926,1069,l),
(887,994,o),
(841,919,o),
(786,843,c),
(507,843,l),
(713,1445,l),
(1088,1445,l),
(1137,1346,o),
(1164,1229,o),
(1185,1088,c),
(1231,1088,l),
(1217,1523,l),
(419,1523,l),
(402,1479,l),
(532,1441,l),
(60,83,l),
(-94,45,l),
(-110,0,l)
);
},
{
closed = 1;
nodes = (
(981,1654,o),
(1042,1719,o),
(1042,1792,cs),
(1042,1852,o),
(992,1900,o),
(937,1900,cs),
(873,1900,o),
(816,1839,o),
(816,1765,cs),
(816,1698,o),
(855,1654,o),
(918,1654,cs)
);
}
);
};
layerId = master01;
shapes = (
{
ref = E;
},
{
alignment = -1;
pos = (798,0);
ref = dotaccent.cap;
scale = (0.84,1);
}
);
width = 1173;
},
{
background = {
anchors = (
{
name = bottom;
pos = (509,0);
},
{
name = topcap;
pos = (939,1643);
}
);
shapes = (
{
closed = 1;
nodes = (
(969,0,l),
(1124,463,l),
(1066,463,l),
(1002,344,o),
(927,233,o),
(823,104,c),
(346,104,l),
(573,753,l),
(774,753,l),
(780,677,o),
(777,577,o),
(770,510,c),
(840,510,l),
(1026,1043,l),
(957,1043,l),
(924,994,o),
(866,920,o),
(802,857,c),
(609,857,l),
(806,1420,l),
(1110,1420,l),
(1163,1327,o),
(1205,1221,o),
(1240,1088,c),
(1298,1088,l),
(1284,1523,l),
(407,1523,l),
(383,1455,l),
(522,1416,l),
(64,106,l),
(-86,68,l),
(-110,0,l)
);
},
{
closed = 1;
nodes = (
(1057,1654,o),
(1125,1728,o),
(1125,1810,cs),
(1125,1880,o),
(1070,1932,o),
(1006,1932,cs),
(935,1932,o),
(871,1863,o),
(871,1781,cs),
(871,1705,o),
(914,1654,o),
(985,1654,cs)
);
}
);
};
layerId = "D3934E74-9B53-4E98-B19F-CD3DFEE08352";
shapes = (
{
ref = E;
},
{
pos = (391,0);
ref = dotaccent.cap;
scale = (0.84,1);
}
);
width = 1230;
}
);
metricLeft = E;
metricRight = E;
unicode = 278;
},
{
glyphname = Edotbelow;
kernLeft = I;
kernRight = E;
layers = (
{
background = {
anchors = (
{
name = bottom;
pos = (403,0);
},
{
name = topcap;
pos = (931,1643);
}
);
shapes = (
{
closed = 1;
nodes = (
(902,0,l),
(1053,456,l),
(1005,456,l),
(942,330,o),
(868,204,o),
(778,78,c),
(241,78,l),
(477,763,l),
(766,763,l),
(762,685,o),
(755,606,o),
(738,526,c),
(786,526,l),
(974,1069,l),
(926,1069,l),
(887,994,o),
(841,919,o),
(786,843,c),
(507,843,l),
(713,1445,l),
(1088,1445,l),
(1137,1346,o),
(1164,1229,o),
(1185,1088,c),
(1231,1088,l),
(1217,1523,l),
(419,1523,l),
(402,1479,l),
(532,1441,l),
(60,83,l),
(-94,45,l),
(-110,0,l)
);
},
{
closed = 1;
nodes = (
(462,-507,o),
(523,-440,o),
(523,-367,cs),
(523,-307,o),
(473,-260,o),
(418,-260,cs),
(354,-260,o),
(297,-320,o),
(297,-394,cs),
(297,-461,o),
(336,-507,o),
(399,-507,cs)
);
}
);
};
layerId = master01;
shapes = (
{
ref = E;
},
{
alignment = -1;
pos = (279,0);
ref = dotbelow;
}
);
width = 1173;
},
{
background = {
anchors = (
{
name = bottom;
pos = (509,0);
},
{
name = topcap;
pos = (939,1643);
}
);
shapes = (
{
closed = 1;
nodes = (
(969,0,l),
(1124,463,l),
(1066,463,l),
(1002,344,o),
(927,233,o),
(823,104,c),
(346,104,l),
(573,753,l),
(774,753,l),
(780,677,o),
(777,577,o),
(770,510,c),
(840,510,l),
(1026,1043,l),
(957,1043,l),
(924,994,o),
(866,920,o),
(802,857,c),
(609,857,l),
(806,1420,l),
(1110,1420,l),
(1163,1327,o),
(1205,1221,o),
(1240,1088,c),
(1298,1088,l),
(1284,1523,l),
(407,1523,l),
(383,1455,l),
(522,1416,l),
(64,106,l),
(-86,68,l),
(-110,0,l)
);
},
{
closed = 1;
nodes = (
(472,-426,o),
(540,-351,o),
(540,-269,cs),
(540,-199,o),
(485,-147,o),
(421,-147,cs),
(350,-147,o),
(286,-216,o),
(286,-298,cs),
(286,-374,o),
(329,-426,o),
(400,-426,cs)
);
}
);
};
layerId = "D3934E74-9B53-4E98-B19F-CD3DFEE08352";
shapes = (
{
ref = E;
},
{
pos = (515,0);
ref = dotbelow;
}
);
width = 1230;
}
);
metricLeft = E;
metricRight = E;
unicode = 7864;
},
{
glyphname = Egrave;
kernLeft = I;
kernRight = E;
layers = (
{
background = {
anchors = (
{
name = bottom;
pos = (403,0);
},
{
name = topcap;
pos = (931,1643);
}
);
shapes = (
{
closed = 1;
nodes = (
(902,0,l),
(1053,456,l),
(1005,456,l),
(942,330,o),
(868,204,o),
(778,78,c),
(241,78,l),
(477,763,l),
(766,763,l),
(762,685,o),
(755,606,o),
(738,526,c),
(786,526,l),
(974,1069,l),
(926,1069,l),
(887,994,o),
(841,919,o),
(786,843,c),
(507,843,l),
(713,1445,l),
(1088,1445,l),
(1137,1346,o),
(1164,1229,o),
(1185,1088,c),
(1231,1088,l),
(1217,1523,l),
(419,1523,l),
(402,1479,l),
(532,1441,l),
(60,83,l),
(-94,45,l),
(-110,0,l)
);
},
{
closed = 1;
nodes = (
(1079,1656,l),
(905,1837,ls),
(867,1876,o),
(840,1900,o),
(802,1900,cs),
(751,1900,o),
(719,1862,o),
(719,1804,cs),
(719,1757,o),
(739,1721,o),
(779,1708,cs),
(1046,1614,l)
);
}
);
};
layerId = master01;
shapes = (
{
ref = E;
},
{
alignment = -1;
pos = (701,0);
ref = grave.cap;
scale = (0.84,1);
}
);
width = 1173;
},
{
background = {
anchors = (
{
name = bottom;
pos = (509,0);
},
{
name = topcap;
pos = (939,1643);
}
);
shapes = (
{
closed = 1;
nodes = (
(969,0,l),
(1124,463,l),
(1066,463,l),
(1002,344,o),
(927,233,o),
(823,104,c),
(346,104,l),
(573,753,l),
(774,753,l),
(780,677,o),
(777,577,o),
(770,510,c),
(840,510,l),
(1026,1043,l),
(957,1043,l),
(924,994,o),
(866,920,o),
(802,857,c),
(609,857,l),
(806,1420,l),
(1110,1420,l),
(1163,1327,o),
(1205,1221,o),
(1240,1088,c),
(1298,1088,l),
(1284,1523,l),
(407,1523,l),
(383,1455,l),
(522,1416,l),
(64,106,l),
(-86,68,l),
(-110,0,l)
);
},
{
closed = 1;
nodes = (
(1176,1674,l),
(988,1870,ls),
(954,1906,o),
(919,1924,o),
(886,1924,cs),
(828,1924,o),
(785,1871,o),
(785,1803,cs),
(785,1746,o),
(815,1703,o),
(861,1692,cs),
(1143,1622,l)
);
}
);
};
layerId = "D3934E74-9B53-4E98-B19F-CD3DFEE08352";
shapes = (
{
ref = E;
},
{
pos = (281,0);
ref = grave.cap;
scale = (0.84,1);
}
);
width = 1230;
}
);
metricLeft = E;
metricRight = E;
unicode = 200;
},
{
glyphname = Emacron;
kernLeft = I;
kernRight = E;
layers = (
{
background = {
anchors = (
{
name = bottom;
pos = (403,0);
},
{
name = topcap;
pos = (931,1643);
}
);
shapes = (
{
closed = 1;
nodes = (
(902,0,l),
(1053,456,l),
(1005,456,l),
(942,330,o),
(868,204,o),
(778,78,c),
(241,78,l),
(477,763,l),
(766,763,l),
(762,685,o),
(755,606,o),
(738,526,c),
(786,526,l),
(974,1069,l),
(926,1069,l),
(887,994,o),
(841,919,o),
(786,843,c),
(507,843,l),
(713,1445,l),
(1088,1445,l),
(1137,1346,o),
(1164,1229,o),
(1185,1088,c),
(1231,1088,l),
(1217,1523,l),
(419,1523,l),
(402,1479,l),
(532,1441,l),
(60,83,l),
(-94,45,l),
(-110,0,l)
);
},
{
closed = 1;
nodes = (
(1137,1696,l),
(1186,1837,l),
(708,1837,l),
(663,1696,l)
);
}
);
};
layerId = master01;
shapes = (
{
ref = E;
},
{
alignment = -1;
pos = (645,0);
ref = macron.cap;
scale = (0.84,1);
}
);
width = 1173;
},
{
background = {
anchors = (
{
name = bottom;
pos = (509,0);
},
{
name = topcap;
pos = (939,1643);
}
);
shapes = (
{
closed = 1;
nodes = (
(969,0,l),
(1124,463,l),
(1066,463,l),
(1002,344,o),
(927,233,o),
(823,104,c),
(346,104,l),
(573,753,l),
(774,753,l),
(780,677,o),
(777,577,o),
(770,510,c),
(840,510,l),
(1026,1043,l),
(957,1043,l),
(924,994,o),
(866,920,o),
(802,857,c),
(609,857,l),
(806,1420,l),
(1110,1420,l),
(1163,1327,o),
(1205,1221,o),
(1240,1088,c),
(1298,1088,l),
(1284,1523,l),
(407,1523,l),
(383,1455,l),
(522,1416,l),
(64,106,l),
(-86,68,l),
(-110,0,l)
);
},
{
closed = 1;
nodes = (
(1221,1674,l),
(1287,1865,l),
(733,1865,l),
(665,1674,l)
);
}
);
};
layerId = "D3934E74-9B53-4E98-B19F-CD3DFEE08352";
shapes = (
{
ref = E;
},
{
pos = (216,0);
ref = macron.cap;
scale = (0.84,1);
}
);
width = 1230;
}
);
metricLeft = E;
metricRight = E;
unicode = 274;
},
{
glyphname = Eogonek;
kernLeft = I;
kernRight = E;
layers = (
{
background = {
anchors = (
{
name = bottom;
pos = (403,0);
},
{
name = topcap;
pos = (931,1643);
}
);
shapes = (
{
closed = 1;
nodes = (
(902,0,l),
(1053,456,l),
(1005,456,l),
(942,330,o),
(868,204,o),
(778,78,c),
(241,78,l),
(477,763,l),
(766,763,l),
(762,685,o),
(755,606,o),
(738,526,c),
(786,526,l),
(974,1069,l),
(926,1069,l),
(887,994,o),
(841,919,o),
(786,843,c),
(507,843,l),
(713,1445,l),
(1088,1445,l),
(1137,1346,o),
(1164,1229,o),
(1185,1088,c),
(1231,1088,l),
(1217,1523,l),
(419,1523,l),
(402,1479,l),
(532,1441,l),
(60,83,l),
(-94,45,l),
(-110,0,l)
);
},
{
closed = 1;
nodes = (
(704,-507,o),
(782,-466,o),
(857,-392,c,{
name = hr00;
}),
(848,-357,l),
(797,-388,o),
(770,-398,o),
(740,-398,cs),
(698,-398,o),
(679,-380,o),
(679,-341,cs),
(679,-258,o),
(768,-127,o),
(903,0,c),
(840,0,l),
(652,-117,o),
(519,-281,o),
(519,-404,cs),
(519,-471,o),
(558,-507,o),
(630,-507,cs)
);
}
);
};
layerId = master01;
shapes = (
{
ref = E;
},
{
alignment = -1;
pos = (501,0);
ref = ogonek;
scale = (0.84,1);
}
);
width = 1263;
},
{
background = {
anchors = (
{
name = bottom;
pos = (509,0);
},
{
name = topcap;
pos = (939,1643);
}
);
shapes = (
{
closed = 1;
nodes = (
(969,0,l),
(1124,463,l),
(1066,463,l),
(1002,344,o),
(927,233,o),
(823,104,c),
(346,104,l),
(573,753,l),
(774,753,l),
(780,677,o),
(777,577,o),
(770,510,c),
(840,510,l),
(1026,1043,l),
(957,1043,l),
(924,994,o),
(866,920,o),
(802,857,c),
(609,857,l),
(806,1420,l),
(1110,1420,l),
(1163,1327,o),
(1205,1221,o),
(1240,1088,c),
(1298,1088,l),
(1284,1523,l),
(407,1523,l),
(383,1455,l),
(522,1416,l),
(64,106,l),
(-86,68,l),
(-110,0,l)
);
},
{
closed = 1;
nodes = (
(754,-507,o),
(847,-459,o),
(938,-368,c,{
name = hr00;
}),
(929,-321,l),
(875,-354,o),
(843,-365,o),
(812,-365,cs),
(761,-365,o),
(736,-334,o),
(736,-289,cs),
(736,-208,o),
(818,-97,o),
(969,0,c),
(873,0,l),
(625,-117,o),
(532,-258,o),
(532,-364,cs),
(532,-444,o),
(586,-507,o),
(676,-507,cs)
);
}
);
};
layerId = "D3934E74-9B53-4E98-B19F-CD3DFEE08352";
shapes = (
{
ref = E;
},
{
alignment = -1;
pos = (818,0);
ref = ogonek;
scale = (0.84,1);
}
);
width = 1325;
}
);
metricLeft = E;
metricRight = E;
unicode = 280;
},
{
glyphname = Etilde;
kernLeft = I;
kernRight = E;
layers = (
{
background = {
anchors = (
{
name = bottom;
pos = (403,0);
},
{
name = topcap;
pos = (931,1643);
}
);
shapes = (
{
closed = 1;
nodes = (
(902,0,l),
(1053,456,l),
(1005,456,l),
(942,330,o),
(868,204,o),
(778,78,c),
(241,78,l),
(477,763,l),
(766,763,l),
(762,685,o),
(755,606,o),
(738,526,c),
(786,526,l),
(974,1069,l),
(926,1069,l),
(887,994,o),
(841,919,o),
(786,843,c),
(507,843,l),
(713,1445,l),
(1088,1445,l),
(1137,1346,o),
(1164,1229,o),
(1185,1088,c),
(1231,1088,l),
(1217,1523,l),
(419,1523,l),
(402,1479,l),
(532,1441,l),
(60,83,l),
(-94,45,l),
(-110,0,l)
);
},
{
closed = 1;
nodes = (
(1089,1654,o),
(1174,1750,o),
(1211,1886,c),
(1172,1886,l),
(1150,1837,o),
(1116,1810,o),
(1069,1810,cs),
(995,1810,o),
(916,1880,o),
(840,1880,cs),
(759,1880,o),
(674,1787,o),
(643,1655,c),
(677,1655,l),
(695,1703,o),
(733,1730,o),
(780,1730,cs),
(859,1730,o),
(929,1654,o),
(1008,1654,cs)
);
}
);
};
layerId = master01;
shapes = (
{
ref = E;
},
{
pos = (625,0);
ref = tilde.cap;
scale = (0.84,1);
}
);
width = 1173;
},
{
background = {
anchors = (
{
name = bottom;
pos = (509,0);
},
{
name = topcap;
pos = (939,1643);
}
);
shapes = (
{
closed = 1;
nodes = (
(969,0,l),
(1124,463,l),
(1066,463,l),
(1002,344,o),
(927,233,o),
(823,104,c),
(346,104,l),
(573,753,l),
(774,753,l),
(780,677,o),
(777,577,o),
(770,510,c),
(840,510,l),
(1026,1043,l),
(957,1043,l),
(924,994,o),
(866,920,o),
(802,857,c),
(609,857,l),
(806,1420,l),
(1110,1420,l),
(1163,1327,o),
(1205,1221,o),
(1240,1088,c),
(1298,1088,l),
(1284,1523,l),
(407,1523,l),
(383,1455,l),
(522,1416,l),
(64,106,l),
(-86,68,l),
(-110,0,l)
);
},
{
closed = 1;
nodes = (
(1201,1631,o),
(1303,1748,o),
(1349,1910,c),
(1282,1910,l),
(1256,1852,o),
(1215,1821,o),
(1160,1821,cs),
(1070,1821,o),
(1014,1903,o),
(918,1903,cs),
(805,1903,o),
(704,1792,o),
(666,1633,c),
(727,1633,l),
(749,1689,o),
(794,1723,o),
(851,1723,cs),
(945,1723,o),
(990,1631,o),
(1090,1631,cs)
);
}
);
};
layerId = "D3934E74-9B53-4E98-B19F-CD3DFEE08352";
shapes = (
{
ref = E;
},
{
pos = (228,0);
ref = tilde.cap;
scale = (0.84,1);
}
);
width = 1230;
}
);
metricLeft = E;
metricRight = E;
unicode = 7868;
},
{
glyphname = Schwa;
kernLeft = Schwa;
kernRight = O;
layers = (
{
background = {
shapes = (
{
closed = 1;
nodes = (
(645,-21,o),
(1174,636,o),
(1174,1160,cs),
(1174,1401,o),
(1071,1542,o),
(874,1542,cs),
(669,1542,o),
(465,1393,o),
(270,1102,c),
(331,1059,l),
(486,1307,o),
(664,1445,o),
(837,1445,cs),
(959,1445,o),
(1010,1375,o),
(1010,1239,cs),
(1010,1123,o),
(969,936,o),
(906,750,c),
(365,651,o),
(-5,416,o),
(-5,174,cs),
(-5,54,o),
(83,-21,o),
(225,-21,cs)
);
},
{
closed = 1;
nodes = (
(236,81,o),
(212,107,o),
(212,165,cs),
(212,357,o),
(513,584,o),
(853,656,c),
(777,489,ls),
(675,268,o),
(461,81,o),
(296,81,cs)
);
}
);
};
layerId = master01;
shapes = (
{
closed = 1;
nodes = (
(645,-21,o),
(1174,636,o),
(1174,1160,cs),
(1174,1401,o),
(1071,1542,o),
(874,1542,cs),
(669,1542,o),
(465,1393,o),
(270,1102,c),
(331,1059,l),
(486,1307,o),
(664,1445,o),
(837,1445,cs),
(959,1445,o),
(1010,1375,o),
(1010,1239,cs),
(1010,1123,o),
(969,936,o),
(906,750,c),
(365,651,o),
(-5,416,o),
(-5,174,cs),
(-5,54,o),
(83,-21,o),
(225,-21,cs)
);
},
{
closed = 1;
nodes = (
(236,81,o),
(212,107,o),
(212,165,cs),
(212,357,o),
(513,584,o),
(853,656,c),
(777,489,ls),
(675,268,o),
(461,81,o),
(296,81,cs)
);
}
);
width = 1098;
},
{
background = {
shapes = (
{
closed = 1;
nodes = (
(781,-21,o),
(1251,633,o),
(1251,1141,cs),
(1251,1397,o),
(1122,1546,o),
(894,1546,cs),
(659,1546,o),
(459,1393,o),
(269,1108,c),
(347,1050,l),
(505,1278,o),
(690,1438,o),
(843,1438,cs),
(941,1438,o),
(988,1370,o),
(988,1231,cs),
(988,1087,o),
(966,942,o),
(928,806,c),
(388,706,o),
(-39,474,o),
(-39,204,cs),
(-39,75,o),
(59,-21,o),
(261,-21,cs)
);
},
{
closed = 1;
nodes = (
(279,88,o),
(230,138,o),
(230,215,cs),
(230,396,o),
(496,587,o),
(894,693,c),
(893,690,l),
(773,348,o),
(556,88,o),
(364,88,cs)
);
}
);
};
layerId = "D3934E74-9B53-4E98-B19F-CD3DFEE08352";
shapes = (
{
closed = 1;
nodes = (
(781,-21,o),
(1251,633,o),
(1251,1141,cs),
(1251,1397,o),
(1122,1546,o),
(894,1546,cs),
(659,1546,o),
(459,1393,o),
(269,1108,c),
(347,1050,l),
(505,1278,o),
(690,1438,o),
(843,1438,cs),
(941,1438,o),
(988,1370,o),
(988,1231,cs),
(988,1087,o),
(966,942,o),
(928,806,c),
(388,706,o),
(-39,474,o),
(-39,204,cs),
(-39,75,o),
(59,-21,o),
(261,-21,cs)
);
},
{
closed = 1;
nodes = (
(279,88,o),
(230,138,o),
(230,215,cs),
(230,396,o),
(496,587,o),
(894,693,c),
(893,690,l),
(773,348,o),
(556,88,o),
(364,88,cs)
);
}
);
width = 1172;
}
);
metricRight = O;
unicode = 399;
},
{
glyphname = F;
kernLeft = I;
kernRight = F;
layers = (
{
background = {
shapes = (
{
closed = 1;
nodes = (
(419,0,l),
(435,45,l),
(241,78,l),
(468,740,l),
(758,740,l),
(754,661,o),
(748,582,o),
(729,503,c),
(778,503,l),
(965,1044,l),
(917,1044,l),
(879,970,o),
(832,895,o),
(778,820,c),
(498,820,l),
(713,1445,l),
(1102,1445,l),
(1141,1346,o),
(1168,1229,o),
(1185,1088,c),
(1231,1088,l),
(1231,1523,l),
(419,1523,l),
(402,1479,l),
(532,1441,l),
(60,83,l),
(-94,45,l),
(-110,0,l)
);
}
);
};
layerId = master01;
shapes = (
{
closed = 1;
nodes = (
(419,0,l),
(435,45,l),
(241,78,l),
(468,740,l),
(758,740,l),
(754,661,o),
(748,582,o),
(729,503,c),
(778,503,l),
(965,1044,l),
(917,1044,l),
(879,970,o),
(832,895,o),
(778,820,c),
(498,820,l),
(713,1445,l),
(1102,1445,l),
(1141,1346,o),
(1168,1229,o),
(1185,1088,c),
(1231,1088,l),
(1231,1523,l),
(419,1523,l),
(402,1479,l),
(532,1441,l),
(60,83,l),
(-94,45,l),
(-110,0,l)
);
}
);
width = 1038;
},
{
background = {
shapes = (
{
closed = 1;
nodes = (
(502,0,l),
(526,68,l),
(347,106,l),
(567,737,l),
(756,737,l),
(774,663,o),
(779,586,o),
(771,512,c),
(841,512,l),
(1034,1066,l),
(964,1066,l),
(932,1004,o),
(875,930,o),
(794,841,c),
(604,841,l),
(806,1420,l),
(1110,1420,l),
(1161,1330,o),
(1203,1225,o),
(1240,1088,c),
(1298,1088,l),
(1284,1523,l),
(407,1523,l),
(383,1455,l),
(522,1416,l),
(64,106,l),
(-86,68,l),
(-110,0,l)
);
}
);
};
layerId = "D3934E74-9B53-4E98-B19F-CD3DFEE08352";
shapes = (
{
closed = 1;
nodes = (
(502,0,l),
(526,68,l),
(347,106,l),
(567,737,l),
(756,737,l),
(774,663,o),
(779,586,o),
(771,512,c),
(841,512,l),
(1034,1066,l),
(964,1066,l),
(932,1004,o),
(875,930,o),
(794,841,c),
(604,841,l),
(806,1420,l),
(1110,1420,l),
(1161,1330,o),
(1203,1225,o),
(1240,1088,c),
(1298,1088,l),
(1284,1523,l),
(407,1523,l),
(383,1455,l),
(522,1416,l),
(64,106,l),
(-86,68,l),
(-110,0,l)
);
}
);
width = 1125;
}
);
metricLeft = I;
unicode = 70;
},
{
glyphname = G;
kernLeft = C;
kernRight = G;
layers = (
{
anchors = (
{
name = bottom;
pos = (532,0);
},
{
name = topcap;
pos = (1114,1643);
}
);
background = {
anchors = (
{
name = bottom;
pos = (532,0);
},
{
name = topcap;
pos = (1114,1643);
}
);
shapes = (
{
closed = 1;
nodes = (
(696,-21,o),
(854,28,o),
(990,117,c),
(1184,681,l),
(1344,719,l),
(1362,763,l),
(889,763,l),
(873,719,l),
(1010,681,l),
(883,314,ls),
(823,143,o),
(736,68,o),
(595,68,cs),
(412,68,o),
(322,198,o),
(322,461,cs),
(322,976,o),
(666,1457,o),
(1034,1457,cs),
(1178,1457,o),
(1247,1383,o),
(1247,1229,cs),
(1247,1177,o),
(1240,1120,o),
(1226,1049,c),
(1275,1049,l),
(1438,1523,l),
(1399,1523,l),
(1314,1435,l),
(1240,1511,o),
(1157,1544,o),
(1041,1544,cs),
(587,1544,o),
(134,1008,o),
(134,469,cs),
(134,159,o),
(289,-21,o),
(559,-21,cs)
);
}
);
};
guides = (
{
angle = 68;
pos = (1289,750);
}
);
layerId = master01;
shapes = (
{
closed = 1;
nodes = (
(696,-21,o),
(854,28,o),
(990,117,c),
(1184,681,l),
(1344,719,l),
(1362,763,l),
(889,763,l),
(873,719,l),
(1010,681,l),
(883,314,ls),
(823,143,o),
(736,68,o),
(595,68,cs),
(412,68,o),
(322,198,o),
(322,461,cs),
(322,976,o),
(666,1457,o),
(1034,1457,cs),
(1178,1457,o),
(1247,1383,o),
(1247,1229,cs),
(1247,1177,o),
(1240,1120,o),
(1226,1049,c),
(1275,1049,l),
(1438,1523,l),
(1399,1523,l),
(1314,1435,l),
(1240,1511,o),
(1157,1544,o),
(1041,1544,cs),
(587,1544,o),
(134,1008,o),
(134,469,cs),
(134,159,o),
(289,-21,o),
(559,-21,cs)
);
}
);
width = 1327;
},
{
anchors = (
{
name = bottom;
pos = (590,0);
},
{
name = topcap;
pos = (1161,1643);
}
);
background = {
anchors = (
{
name = bottom;
pos = (590,0);
},
{
name = topcap;
pos = (1161,1643);
}
);
shapes = (
{
closed = 1;
nodes = (
(798,-21,o),
(1021,51,o),
(1169,161,c),
(1336,656,l),
(1487,696,l),
(1510,763,l),
(940,763,l),
(916,696,l),
(1055,656,l),
(941,318,ls),
(894,177,o),
(778,88,o),
(642,88,cs),
(496,88,o),
(423,199,o),
(423,421,cs),
(423,967,o),
(727,1436,o),
(1079,1436,cs),
(1257,1436,o),
(1361,1317,o),
(1361,1126,cs),
(1361,1099,o),
(1359,1070,o),
(1354,1039,c),
(1410,1039,l),
(1579,1523,l),
(1520,1523,l),
(1410,1420,l),
(1312,1507,o),
(1214,1544,o),
(1075,1544,cs),
(578,1544,o),
(137,1062,o),
(137,524,cs),
(137,166,o),
(294,-21,o),
(605,-21,cs)
);
}
);
};
layerId = "D3934E74-9B53-4E98-B19F-CD3DFEE08352";
shapes = (
{
closed = 1;
nodes = (
(798,-21,o),
(1021,51,o),
(1169,161,c),
(1336,656,l),
(1487,696,l),
(1510,763,l),
(940,763,l),
(916,696,l),
(1055,656,l),
(941,318,ls),
(894,177,o),
(778,88,o),
(642,88,cs),
(496,88,o),
(423,199,o),
(423,421,cs),
(423,967,o),
(727,1436,o),
(1079,1436,cs),
(1257,1436,o),
(1361,1317,o),
(1361,1126,cs),
(1361,1099,o),
(1359,1070,o),
(1354,1039,c),
(1410,1039,l),
(1579,1523,l),
(1520,1523,l),
(1410,1420,l),
(1312,1507,o),
(1214,1544,o),
(1075,1544,cs),
(578,1544,o),
(137,1062,o),
(137,524,cs),
(137,166,o),
(294,-21,o),
(605,-21,cs)
);
}
);
width = 1467;
}
);
metricLeft = O;
unicode = 71;
},
{
glyphname = Gbreve;
kernLeft = C;
kernRight = G;
layers = (
{
background = {
anchors = (
{
name = bottom;
pos = (532,0);
},
{
name = topcap;
pos = (1114,1643);
}
);
shapes = (
{
closed = 1;
nodes = (
(696,-21,o),
(854,28,o),
(990,117,c),
(1184,681,l),
(1344,719,l),
(1362,763,l),
(889,763,l),
(873,719,l),
(1010,681,l),
(883,314,ls),
(823,143,o),
(736,68,o),
(595,68,cs),
(412,68,o),
(322,198,o),
(322,461,cs),
(322,976,o),
(666,1457,o),
(1034,1457,cs),
(1178,1457,o),
(1247,1383,o),
(1247,1229,cs),
(1247,1177,o),
(1240,1120,o),
(1226,1049,c),
(1275,1049,l),
(1438,1523,l),
(1399,1523,l),
(1314,1435,l),
(1240,1511,o),
(1157,1544,o),
(1041,1544,cs),
(587,1544,o),
(134,1008,o),
(134,469,cs),
(134,159,o),
(289,-21,o),
(559,-21,cs)
);
},
{
closed = 1;
nodes = (
(1151,1625,o),
(1281,1655,o),
(1418,1900,c),
(1352,1900,l),
(1283,1809,o),
(1209,1771,o),
(1136,1771,cs),
(1049,1771,o),
(1007,1818,o),
(1005,1900,c),
(946,1900,l),
(934,1856,o),
(931,1821,o),
(931,1789,cs),
(931,1669,o),
(1003,1625,o),
(1079,1625,cs)
);
}
);
};
layerId = master01;
shapes = (
{
ref = G;
},
{
alignment = -1;
pos = (913,0);
ref = breve.cap;
scale = (0.84,1);
}
);
width = 1325;
},
{
background = {
anchors = (
{
name = bottom;
pos = (590,0);
},
{
name = topcap;
pos = (1161,1643);
}
);
shapes = (
{
closed = 1;
nodes = (
(798,-21,o),
(1021,51,o),
(1169,161,c),
(1336,656,l),
(1487,696,l),
(1510,763,l),
(940,763,l),
(916,696,l),
(1055,656,l),
(941,318,ls),
(894,177,o),
(778,88,o),
(642,88,cs),
(496,88,o),
(423,199,o),
(423,421,cs),
(423,967,o),
(727,1436,o),
(1079,1436,cs),
(1257,1436,o),
(1361,1317,o),
(1361,1126,cs),
(1361,1099,o),
(1359,1070,o),
(1354,1039,c),
(1410,1039,l),
(1579,1523,l),
(1520,1523,l),
(1410,1420,l),
(1312,1507,o),
(1214,1544,o),
(1075,1544,cs),
(578,1544,o),
(137,1062,o),
(137,524,cs),
(137,166,o),
(294,-21,o),
(605,-21,cs)
);
},
{
closed = 1;
nodes = (
(1309,1622,o),
(1443,1733,o),
(1550,1935,c),
(1463,1935,l),
(1398,1841,o),
(1323,1795,o),
(1234,1795,cs),
(1145,1795,o),
(1096,1842,o),
(1103,1935,c),
(1024,1935,l),
(1010,1886,o),
(1005,1857,o),
(1005,1823,cs),
(1005,1698,o),
(1071,1622,o),
(1178,1622,cs)
);
}
);
};
layerId = "D3934E74-9B53-4E98-B19F-CD3DFEE08352";
shapes = (
{
ref = G;
},
{
pos = (507,0);
ref = breve.cap;
scale = (0.84,1);
}
);
width = 1467;
}
);
metricRight = G;
unicode = 286;
},
{
glyphname = Gcircumflex;
kernLeft = C;
kernRight = G;
layers = (
{
background = {
anchors = (
{
name = bottom;
pos = (532,0);
},
{
name = topcap;
pos = (1114,1643);
}
);
shapes = (
{
closed = 1;
nodes = (
(696,-21,o),
(854,28,o),
(990,117,c),
(1184,681,l),
(1344,719,l),
(1362,763,l),
(889,763,l),
(873,719,l),
(1010,681,l),
(883,314,ls),
(823,143,o),
(736,68,o),
(595,68,cs),
(412,68,o),
(322,198,o),
(322,461,cs),
(322,976,o),
(666,1457,o),
(1034,1457,cs),
(1178,1457,o),
(1247,1383,o),
(1247,1229,cs),
(1247,1177,o),
(1240,1120,o),
(1226,1049,c),
(1275,1049,l),
(1438,1523,l),
(1399,1523,l),
(1314,1435,l),
(1240,1511,o),
(1157,1544,o),
(1041,1544,cs),
(587,1544,o),
(134,1008,o),
(134,469,cs),
(134,159,o),
(289,-21,o),
(559,-21,cs)
);
},
{
closed = 1;
nodes = (
(1169,1757,l),
(1320,1622,l),
(1363,1656,l),
(1274,1847,ls),
(1255,1885,o),
(1239,1900,o),
(1201,1900,cs),
(1160,1900,o),
(1134,1880,o),
(1094,1847,cs),
(876,1656,l),
(895,1622,l)
);
}
);
};
layerId = master01;
shapes = (
{
ref = G;
},
{
alignment = -1;
pos = (858,0);
ref = circumflex.cap;
scale = (0.84,1);
}
);
width = 1325;
},
{
background = {
anchors = (
{
name = bottom;
pos = (590,0);
},
{
name = topcap;
pos = (1161,1643);
}
);
shapes = (
{
closed = 1;
nodes = (
(798,-21,o),
(1021,51,o),
(1169,161,c),
(1336,656,l),
(1487,696,l),
(1510,763,l),
(940,763,l),
(916,696,l),
(1055,656,l),
(941,318,ls),
(894,177,o),
(778,88,o),
(642,88,cs),
(496,88,o),
(423,199,o),
(423,421,cs),
(423,967,o),
(727,1436,o),
(1079,1436,cs),
(1257,1436,o),
(1361,1317,o),
(1361,1126,cs),
(1361,1099,o),
(1359,1070,o),
(1354,1039,c),
(1410,1039,l),
(1579,1523,l),
(1520,1523,l),
(1410,1420,l),
(1312,1507,o),
(1214,1544,o),
(1075,1544,cs),
(578,1544,o),
(137,1062,o),
(137,524,cs),
(137,166,o),
(294,-21,o),
(605,-21,cs)
);
},
{
closed = 1;
nodes = (
(1198,1747,l),
(1367,1622,l),
(1414,1659,l),
(1323,1865,ls),
(1300,1915,o),
(1278,1935,o),
(1236,1935,cs),
(1198,1935,o),
(1166,1918,o),
(1108,1865,cs),
(881,1657,l),
(902,1622,l)
);
}
);
};
layerId = "D3934E74-9B53-4E98-B19F-CD3DFEE08352";
shapes = (
{
ref = G;
},
{
pos = (437,0);
ref = circumflex.cap;
scale = (0.84,1);
}
);
width = 1467;
}
);
metricRight = G;
unicode = 284;
},
{
glyphname = Gcommaaccent;
kernLeft = C;
kernRight = G;
layers = (
{
background = {
anchors = (
{
name = bottom;
pos = (532,0);
},
{
name = topcap;
pos = (1114,1643);
}
);
shapes = (
{
closed = 1;
nodes = (
(696,-21,o),
(854,28,o),
(990,117,c),
(1184,681,l),
(1344,719,l),
(1362,763,l),
(889,763,l),
(873,719,l),
(1010,681,l),
(883,314,ls),
(823,143,o),
(736,68,o),
(595,68,cs),
(412,68,o),
(322,198,o),
(322,461,cs),
(322,976,o),
(666,1457,o),
(1034,1457,cs),
(1178,1457,o),
(1247,1383,o),
(1247,1229,cs),
(1247,1177,o),
(1240,1120,o),
(1226,1049,c),
(1275,1049,l),
(1438,1523,l),
(1399,1523,l),
(1314,1435,l),
(1240,1511,o),
(1157,1544,o),
(1041,1544,cs),
(587,1544,o),
(134,1008,o),
(134,469,cs),
(134,159,o),
(289,-21,o),
(559,-21,cs)
);
},
{
closed = 1;
nodes = (
(503,-506,o),
(577,-400,o),
(577,-300,cs),
(577,-229,o),
(548,-190,o),
(494,-190,cs),
(420,-190,o),
(385,-237,o),
(385,-309,cs),
(385,-358,o),
(401,-388,o),
(432,-397,cs),
(464,-406,o),
(470,-407,o),
(470,-421,cs),
(470,-452,o),
(416,-514,o),
(347,-554,c),
(372,-590,l)
);
}
);
};
layerId = master01;
shapes = (
{
ref = G;
},
{
pos = (377,21);
ref = commaaccent;
scale = (0.84,1);
}
);
width = 1327;
},
{
background = {
anchors = (
{
name = bottom;
pos = (590,0);
},
{
name = topcap;
pos = (1161,1643);
}
);
shapes = (
{
closed = 1;
nodes = (
(798,-21,o),
(1021,51,o),
(1169,161,c),
(1336,656,l),
(1487,696,l),
(1510,763,l),
(940,763,l),
(916,696,l),
(1055,656,l),
(941,318,ls),
(894,177,o),
(778,88,o),
(642,88,cs),
(496,88,o),
(423,199,o),
(423,421,cs),
(423,967,o),
(727,1436,o),
(1079,1436,cs),
(1257,1436,o),
(1361,1317,o),
(1361,1126,cs),
(1361,1099,o),
(1359,1070,o),
(1354,1039,c),
(1410,1039,l),
(1579,1523,l),
(1520,1523,l),
(1410,1420,l),
(1312,1507,o),
(1214,1544,o),
(1075,1544,cs),
(578,1544,o),
(137,1062,o),
(137,524,cs),
(137,166,o),
(294,-21,o),
(605,-21,cs)
);
},
{
closed = 1;
nodes = (
(538,-480,o),
(649,-357,o),
(649,-228,cs),
(649,-152,o),
(609,-107,o),
(539,-107,cs),
(464,-107,o),
(414,-161,o),
(414,-245,cs),
(414,-298,o),
(433,-332,o),
(472,-345,cs),
(490,-352,o),
(498,-362,o),
(498,-374,cs),
(498,-408,o),
(402,-470,o),
(319,-493,c),
(352,-555,l)
);
}
);
};
layerId = "D3934E74-9B53-4E98-B19F-CD3DFEE08352";
shapes = (
{
ref = G;
},
{
pos = (624,0);
ref = commaaccent;
scale = (0.84,1);
}
);
width = 1467;
}
);
metricRight = G;
unicode = 290;
},
{
glyphname = Gdotaccent;
kernLeft = C;
kernRight = G;
layers = (
{
background = {
anchors = (
{
name = bottom;
pos = (532,0);
},
{
name = topcap;
pos = (1114,1643);
}
);
shapes = (
{
closed = 1;
nodes = (
(696,-21,o),
(854,28,o),
(990,117,c),
(1184,681,l),
(1344,719,l),
(1362,763,l),
(889,763,l),
(873,719,l),
(1010,681,l),
(883,314,ls),
(823,143,o),
(736,68,o),
(595,68,cs),
(412,68,o),
(322,198,o),
(322,461,cs),
(322,976,o),
(666,1457,o),
(1034,1457,cs),
(1178,1457,o),
(1247,1383,o),
(1247,1229,cs),
(1247,1177,o),
(1240,1120,o),
(1226,1049,c),
(1275,1049,l),
(1438,1523,l),
(1399,1523,l),
(1314,1435,l),
(1240,1511,o),
(1157,1544,o),
(1041,1544,cs),
(587,1544,o),
(134,1008,o),
(134,469,cs),
(134,159,o),
(289,-21,o),
(559,-21,cs)
);
},
{
closed = 1;
nodes = (
(1215,1654,o),
(1276,1719,o),
(1276,1792,cs),
(1276,1852,o),
(1226,1900,o),
(1171,1900,cs),
(1107,1900,o),
(1050,1839,o),
(1050,1765,cs),
(1050,1698,o),
(1089,1654,o),
(1152,1654,cs)
);
}
);
};
layerId = master01;
shapes = (
{
ref = G;
},
{
alignment = -1;
pos = (1032,0);
ref = dotaccent.cap;
scale = (0.84,1);
}
);
width = 1325;
},
{
background = {
anchors = (
{
name = bottom;
pos = (590,0);
},
{
name = topcap;
pos = (1161,1643);
}
);
shapes = (
{
closed = 1;
nodes = (
(798,-21,o),
(1021,51,o),
(1169,161,c),
(1336,656,l),
(1487,696,l),
(1510,763,l),
(940,763,l),
(916,696,l),
(1055,656,l),
(941,318,ls),
(894,177,o),
(778,88,o),
(642,88,cs),
(496,88,o),
(423,199,o),
(423,421,cs),
(423,967,o),
(727,1436,o),
(1079,1436,cs),
(1257,1436,o),
(1361,1317,o),
(1361,1126,cs),
(1361,1099,o),
(1359,1070,o),
(1354,1039,c),
(1410,1039,l),
(1579,1523,l),
(1520,1523,l),
(1410,1420,l),
(1312,1507,o),
(1214,1544,o),
(1075,1544,cs),
(578,1544,o),
(137,1062,o),
(137,524,cs),
(137,166,o),
(294,-21,o),
(605,-21,cs)
);
},
{
closed = 1;
nodes = (
(1279,1654,o),
(1347,1728,o),
(1347,1810,cs),
(1347,1880,o),
(1292,1932,o),
(1228,1932,cs),
(1157,1932,o),
(1093,1863,o),
(1093,1781,cs),
(1093,1705,o),
(1136,1654,o),
(1207,1654,cs)
);
}
);
};
layerId = "D3934E74-9B53-4E98-B19F-CD3DFEE08352";
shapes = (
{
ref = G;
},
{
pos = (613,0);
ref = dotaccent.cap;
scale = (0.84,1);
}
);
width = 1467;
}
);
metricRight = G;
unicode = 288;
},
{
glyphname = H;
kernLeft = I;
kernRight = I;
layers = (
{
anchors = (
{
name = bottom;
pos = (519,0);
},
{
name = topcap;
pos = (1098,1643);
}
);
background = {
anchors = (
{
name = bottom;
pos = (519,0);
},
{
name = topcap;
pos = (1098,1643);
}
);
shapes = (
{
closed = 1;
nodes = (
(1677,1523,l),
(1195,1523,l),
(1179,1479,l),
(1316,1441,l),
(1107,841,l),
(515,841,l),
(724,1441,l),
(884,1479,l),
(900,1523,l),
(419,1523,l),
(402,1479,l),
(540,1441,l),
(69,83,l),
(-93,45,l),
(-110,0,l),
(370,0,l),
(388,45,l),
(250,83,l),
(486,762,l),
(1079,762,l),
(843,83,l),
(681,45,l),
(664,0,l),
(1147,0,l),
(1163,45,l),
(1027,83,l),
(1501,1441,l),
(1662,1479,l)
);
}
);
};
layerId = master01;
shapes = (
{
closed = 1;
nodes = (
(1677,1523,l),
(1195,1523,l),
(1179,1479,l),
(1316,1441,l),
(1107,841,l),
(515,841,l),
(724,1441,l),
(884,1479,l),
(900,1523,l),
(419,1523,l),
(402,1479,l),
(540,1441,l),
(69,83,l),
(-93,45,l),
(-110,0,l),
(370,0,l),
(388,45,l),
(250,83,l),
(486,762,l),
(1079,762,l),
(843,83,l),
(681,45,l),
(664,0,l),
(1147,0,l),
(1163,45,l),
(1027,83,l),
(1501,1441,l),
(1662,1479,l)
);
}
);
width = 1400;
},
{
anchors = (
{
name = bottom;
pos = (569,0);
},
{
name = topcap;
pos = (1113,1643);
}
);
background = {
anchors = (
{
name = bottom;
pos = (569,0);
},
{
name = topcap;
pos = (1113,1643);
}
);
shapes = (
{
closed = 1;
nodes = (
(1757,1523,l),
(1186,1523,l),
(1162,1455,l),
(1301,1416,l),
(1105,853,l),
(608,853,l),
(806,1416,l),
(957,1455,l),
(981,1523,l),
(407,1523,l),
(383,1455,l),
(522,1416,l),
(66,106,l),
(-84,68,l),
(-108,0,l),
(465,0,l),
(490,68,l),
(349,106,l),
(573,750,l),
(1068,750,l),
(844,106,l),
(695,68,l),
(670,0,l),
(1243,0,l),
(1267,68,l),
(1126,106,l),
(1583,1416,l),
(1733,1455,l)
);
}
);
};
layerId = "D3934E74-9B53-4E98-B19F-CD3DFEE08352";
shapes = (
{
closed = 1;
nodes = (
(1757,1523,l),
(1186,1523,l),
(1162,1455,l),
(1301,1416,l),
(1105,853,l),
(608,853,l),
(806,1416,l),
(957,1455,l),
(981,1523,l),
(407,1523,l),
(383,1455,l),
(522,1416,l),
(66,106,l),
(-84,68,l),
(-108,0,l),
(465,0,l),
(490,68,l),
(349,106,l),
(573,750,l),
(1068,750,l),
(844,106,l),
(695,68,l),
(670,0,l),
(1243,0,l),
(1267,68,l),
(1126,106,l),
(1583,1416,l),
(1733,1455,l)
);
}
);
width = 1455;
}
);
metricLeft = I;
metricRight = I;
unicode = 72;
},
{
glyphname = Hbar;
kernLeft = I;
kernRight = I;
layers = (
{
background = {
anchors = (
{
name = bottom;
pos = (519,0);
},
{
name = topcap;
pos = (1098,1643);
}
);
shapes = (
{
closed = 1;
nodes = (
(1526,1088,l),
(1558,1176,l),
(299,1176,l),
(269,1088,l)
);
},
{
closed = 1;
nodes = (
(1677,1523,l),
(1195,1523,l),
(1179,1479,l),
(1316,1441,l),
(1107,841,l),
(515,841,l),
(724,1441,l),
(884,1479,l),
(900,1523,l),
(419,1523,l),
(402,1479,l),
(540,1441,l),
(69,83,l),
(-93,45,l),
(-110,0,l),
(370,0,l),
(388,45,l),
(250,83,l),
(486,762,l),
(1079,762,l),
(843,83,l),
(681,45,l),
(664,0,l),
(1147,0,l),
(1163,45,l),
(1027,83,l),
(1501,1441,l),
(1662,1479,l)
);
}
);
};
layerId = master01;
shapes = (
{
closed = 1;
nodes = (
(1526,1088,l),
(1558,1176,l),
(299,1176,l),
(269,1088,l)
);
},
{
ref = H;
}
);
width = 1401;
},
{
background = {
anchors = (
{
name = bottom;
pos = (569,0);
},
{
name = topcap;
pos = (1113,1643);
}
);
shapes = (
{
closed = 1;
nodes = (
(1594,1065,l),
(1641,1199,l),
(296,1199,l),
(250,1065,l)
);
},
{
closed = 1;
nodes = (
(1757,1523,l),
(1186,1523,l),
(1162,1455,l),
(1301,1416,l),
(1105,853,l),
(608,853,l),
(806,1416,l),
(957,1455,l),
(981,1523,l),
(407,1523,l),
(383,1455,l),
(522,1416,l),
(66,106,l),
(-84,68,l),
(-108,0,l),
(465,0,l),
(490,68,l),
(349,106,l),
(573,750,l),
(1068,750,l),
(844,106,l),
(695,68,l),
(670,0,l),
(1243,0,l),
(1267,68,l),
(1126,106,l),
(1583,1416,l),
(1733,1455,l)
);
}
);
};
layerId = "D3934E74-9B53-4E98-B19F-CD3DFEE08352";
shapes = (
{
closed = 1;
nodes = (
(1594,1065,l),
(1641,1199,l),
(296,1199,l),
(250,1065,l)
);
},
{
ref = H;
}
);
width = 1455;
}
);
metricLeft = H;
metricRight = H;
unicode = 294;
},
{
glyphname = Hcircumflex;
kernLeft = I;
kernRight = I;
layers = (
{
background = {
anchors = (
{
name = bottom;
pos = (519,0);
},
{
name = topcap;
pos = (1098,1643);
}
);
shapes = (
{
closed = 1;
nodes = (
(1677,1523,l),
(1195,1523,l),
(1179,1479,l),
(1316,1441,l),
(1107,841,l),
(515,841,l),
(724,1441,l),
(884,1479,l),
(900,1523,l),
(419,1523,l),
(402,1479,l),
(540,1441,l),
(69,83,l),
(-93,45,l),
(-110,0,l),
(370,0,l),
(388,45,l),
(250,83,l),
(486,762,l),
(1079,762,l),
(843,83,l),
(681,45,l),
(664,0,l),
(1147,0,l),
(1163,45,l),
(1027,83,l),
(1501,1441,l),
(1662,1479,l)
);
},
{
closed = 1;
nodes = (
(1119,1757,l),
(1270,1622,l),
(1313,1656,l),
(1224,1847,ls),
(1205,1885,o),
(1189,1900,o),
(1151,1900,cs),
(1110,1900,o),
(1084,1880,o),
(1044,1847,cs),
(826,1656,l),
(845,1622,l)
);
}
);
};
layerId = master01;
shapes = (
{
ref = H;
},
{
alignment = -1;
pos = (808,0);
ref = circumflex.cap;
scale = (0.84,1);
}
);
width = 1429;
},
{
background = {
anchors = (
{
name = bottom;
pos = (569,0);
},
{
name = topcap;
pos = (1113,1643);
}
);
shapes = (
{
closed = 1;
nodes = (
(1757,1523,l),
(1186,1523,l),
(1162,1455,l),
(1301,1416,l),
(1105,853,l),
(608,853,l),
(806,1416,l),
(957,1455,l),
(981,1523,l),
(407,1523,l),
(383,1455,l),
(522,1416,l),
(66,106,l),
(-84,68,l),
(-108,0,l),
(465,0,l),
(490,68,l),
(349,106,l),
(573,750,l),
(1068,750,l),
(844,106,l),
(695,68,l),
(670,0,l),
(1243,0,l),
(1267,68,l),
(1126,106,l),
(1583,1416,l),
(1733,1455,l)
);
},
{
closed = 1;
nodes = (
(1150,1747,l),
(1319,1622,l),
(1366,1659,l),
(1275,1865,ls),
(1252,1915,o),
(1230,1935,o),
(1188,1935,cs),
(1150,1935,o),
(1118,1918,o),
(1060,1865,cs),
(833,1657,l),
(854,1622,l)
);
}
);
};
layerId = "D3934E74-9B53-4E98-B19F-CD3DFEE08352";
shapes = (
{
ref = H;
},
{
pos = (389,0);
ref = circumflex.cap;
scale = (0.84,1);
}
);
width = 1455;
}
);
unicode = 292;
},
{
glyphname = Hdotbelow;
kernLeft = I;
kernRight = I;
layers = (
{
background = {
anchors = (
{
name = bottom;
pos = (519,0);
},
{
name = topcap;
pos = (1098,1643);
}
);
shapes = (
{
closed = 1;
nodes = (
(1677,1523,l),
(1195,1523,l),
(1179,1479,l),
(1316,1441,l),
(1107,841,l),
(515,841,l),
(724,1441,l),
(884,1479,l),
(900,1523,l),
(419,1523,l),
(402,1479,l),
(540,1441,l),
(69,83,l),
(-93,45,l),
(-110,0,l),
(370,0,l),
(388,45,l),
(250,83,l),
(486,762,l),
(1079,762,l),
(843,83,l),
(681,45,l),
(664,0,l),
(1147,0,l),
(1163,45,l),
(1027,83,l),
(1501,1441,l),
(1662,1479,l)
);
},
{
closed = 1;
nodes = (
(484,-507,o),
(545,-440,o),
(545,-367,cs),
(545,-307,o),
(495,-260,o),
(440,-260,cs),
(376,-260,o),
(319,-320,o),
(319,-394,cs),
(319,-461,o),
(358,-507,o),
(421,-507,cs)
);
}
);
};
layerId = master01;
shapes = (
{
ref = H;
},
{
pos = (301,0);
ref = dotbelow;
}
);
width = 1400;
},
{
background = {
anchors = (
{
name = bottom;
pos = (569,0);
},
{
name = topcap;
pos = (1113,1643);
}
);
shapes = (
{
closed = 1;
nodes = (
(1757,1523,l),
(1186,1523,l),
(1162,1455,l),
(1301,1416,l),
(1105,853,l),
(608,853,l),
(806,1416,l),
(957,1455,l),
(981,1523,l),
(407,1523,l),
(383,1455,l),
(522,1416,l),
(66,106,l),
(-84,68,l),
(-108,0,l),
(465,0,l),
(490,68,l),
(349,106,l),
(573,750,l),
(1068,750,l),
(844,106,l),
(695,68,l),
(670,0,l),
(1243,0,l),
(1267,68,l),
(1126,106,l),
(1583,1416,l),
(1733,1455,l)
);
},
{
closed = 1;
nodes = (
(532,-426,o),
(600,-351,o),
(600,-269,cs),
(600,-199,o),
(545,-147,o),
(481,-147,cs),
(410,-147,o),
(346,-216,o),
(346,-298,cs),
(346,-374,o),
(389,-426,o),
(460,-426,cs)
);
}
);
};
layerId = "D3934E74-9B53-4E98-B19F-CD3DFEE08352";
shapes = (
{
ref = H;
},
{
pos = (575,0);
ref = dotbelow;
}
);
width = 1455;
}
);
metricLeft = H;
metricRight = H;
unicode = 7716;
},
{
glyphname = I;
kernLeft = I;
kernRight = I;
layers = (
{
anchors = (
{
name = bottom;
pos = (134,0);
},
{
name = topcap;
pos = (727,1643);
}
);
background = {
anchors = (
{
name = bottom;
pos = (134,0);
},
{
name = topcap;
pos = (727,1643);
}
);
shapes = (
{
closed = 1;
nodes = (
(370,0,l),
(388,45,l),
(250,83,l),
(724,1441,l),
(884,1479,l),
(900,1523,l),
(419,1523,l),
(402,1479,l),
(540,1441,l),
(69,83,l),
(-93,45,l),
(-110,0,l)
);
}
);
};
layerId = master01;
shapes = (
{
closed = 1;
nodes = (
(370,0,l),
(388,45,l),
(250,83,l),
(724,1441,l),
(884,1479,l),
(900,1523,l),
(419,1523,l),
(402,1479,l),
(540,1441,l),
(69,83,l),
(-93,45,l),
(-110,0,l)
);
}
);
width = 623;
},
{
anchors = (
{
name = bottom;
pos = (181,0);
},
{
name = topcap;
pos = (735,1643);
}
);
background = {
anchors = (
{
name = bottom;
pos = (181,0);
},
{
name = topcap;
pos = (735,1643);
}
);
shapes = (
{
closed = 1;
nodes = (
(465,0,l),
(489,68,l),
(349,107,l),
(806,1416,l),
(956,1454,l),
(979,1523,l),
(407,1523,l),
(383,1455,l),
(522,1416,l),
(66,107,l),
(-84,69,l),
(-108,0,l)
);
}
);
};
layerId = "D3934E74-9B53-4E98-B19F-CD3DFEE08352";
shapes = (
{
closed = 1;
nodes = (
(465,0,l),
(489,68,l),
(349,107,l),
(806,1416,l),
(956,1454,l),
(979,1523,l),
(407,1523,l),
(383,1455,l),
(522,1416,l),
(66,107,l),
(-84,69,l),
(-108,0,l)
);
}
);
width = 677;
}
);
unicode = 73;
},
{
glyphname = IJ;
kernLeft = I;
kernRight = J;
layers = (
{
background = {
anchors = (
{
name = bottom;
pos = (134,0);
},
{
name = topcap;
pos = (1338,1643);
}
);
shapes = (
{
closed = 1;
nodes = (
(370,0,l),
(388,45,l),
(250,83,l),
(724,1441,l),
(884,1479,l),
(900,1523,l),
(419,1523,l),
(402,1479,l),
(540,1441,l),
(69,83,l),
(-93,45,l),
(-110,0,l)
);
},
{
closed = 1;
nodes = (
(560,-507,o),
(733,-334,o),
(830,-54,cs),
(1352,1441,l),
(1512,1479,l),
(1529,1523,l),
(1046,1523,l),
(1030,1479,l),
(1168,1441,l),
(644,-54,ls),
(542,-341,o),
(498,-427,o),
(426,-427,cs),
(317,-427,o),
(383,-252,o),
(265,-252,cs),
(221,-252,o),
(180,-287,o),
(180,-351,cs),
(180,-435,o),
(257,-507,o),
(379,-507,cs)
);
}
);
};
layerId = master01;
shapes = (
{
ref = I;
},
{
pos = (623,0);
ref = J;
}
);
width = 1267;
},
{
background = {
anchors = (
{
name = bottom;
pos = (181,0);
},
{
name = topcap;
pos = (1429,1643);
}
);
shapes = (
{
closed = 1;
nodes = (
(465,0,l),
(489,68,l),
(349,107,l),
(806,1416,l),
(956,1454,l),
(979,1523,l),
(407,1523,l),
(383,1455,l),
(522,1416,l),
(66,107,l),
(-84,69,l),
(-108,0,l)
);
},
{
closed = 1;
nodes = (
(677,-507,o),
(895,-290,o),
(1017,62,cs),
(1489,1413,l),
(1641,1451,l),
(1667,1523,l),
(1105,1523,l),
(1079,1451,l),
(1206,1412,l),
(707,-17,ls),
(606,-309,o),
(550,-400,o),
(475,-400,cs),
(353,-400,o),
(411,-153,o),
(263,-153,cs),
(191,-153,o),
(142,-211,o),
(142,-288,cs),
(142,-417,o),
(275,-507,o),
(433,-507,cs)
);
}
);
};
layerId = "D3934E74-9B53-4E98-B19F-CD3DFEE08352";
shapes = (
{
ref = I;
},
{
pos = (677,0);
ref = J;
}
);
width = 1394;
}
);
unicode = 306;
},
{
glyphname = Iacute;
kernLeft = I;
kernRight = I;
layers = (
{
background = {
anchors = (
{
name = bottom;
pos = (134,0);
},
{
name = topcap;
pos = (727,1643);
}
);
shapes = (
{
closed = 1;
nodes = (
(370,0,l),
(388,45,l),
(250,83,l),
(724,1441,l),
(884,1479,l),
(900,1523,l),
(419,1523,l),
(402,1479,l),
(540,1441,l),
(69,83,l),
(-93,45,l),
(-110,0,l)
);
},
{
closed = 1;
nodes = (
(808,1703,ls),
(896,1732,o),
(922,1769,o),
(922,1815,cs),
(922,1864,o),
(886,1900,o),
(850,1900,cs),
(823,1900,o),
(802,1891,o),
(777,1868,cs),
(539,1656,l),
(555,1614,l)
);
}
);
};
layerId = master01;
shapes = (
{
ref = I;
},
{
pos = (521,0);
ref = acute.cap;
scale = (0.84,1);
}
);
width = 623;
},
{
background = {
anchors = (
{
name = bottom;
pos = (181,0);
},
{
name = topcap;
pos = (735,1643);
}
);
shapes = (
{
closed = 1;
nodes = (
(465,0,l),
(489,68,l),
(349,107,l),
(806,1416,l),
(956,1454,l),
(979,1523,l),
(407,1523,l),
(383,1455,l),
(522,1416,l),
(66,107,l),
(-84,69,l),
(-108,0,l)
);
},
{
closed = 1;
nodes = (
(919,1692,ls),
(965,1702,o),
(995,1746,o),
(995,1803,cs),
(995,1871,o),
(952,1924,o),
(895,1924,cs),
(861,1924,o),
(827,1903,o),
(792,1870,cs),
(584,1674,l),
(618,1622,l)
);
}
);
};
layerId = "D3934E74-9B53-4E98-B19F-CD3DFEE08352";
shapes = (
{
ref = I;
},
{
pos = (135,0);
ref = acute.cap;
scale = (0.84,1);
}
);
width = 677;
}
);
metricLeft = I;
metricRight = I;
unicode = 205;
},
{
glyphname = Ibreve;
kernLeft = I;
kernRight = I;
layers = (
{
background = {
anchors = (
{
name = bottom;
pos = (161,0);
},
{
name = topcap;
pos = (754,1643);
}
);
shapes = (
{
closed = 1;
nodes = (
(397,0,l),
(415,45,l),
(277,83,l),
(751,1441,l),
(911,1479,l),
(927,1523,l),
(446,1523,l),
(429,1479,l),
(567,1441,l),
(96,83,l),
(-66,45,l),
(-83,0,l)
);
},
{
closed = 1;
nodes = (
(781,1625,o),
(911,1655,o),
(1048,1900,c),
(982,1900,l),
(913,1809,o),
(839,1771,o),
(766,1771,cs),
(679,1771,o),
(637,1818,o),
(635,1900,c),
(576,1900,l),
(564,1856,o),
(561,1821,o),
(561,1789,cs),
(561,1669,o),
(633,1625,o),
(709,1625,cs)
);
}
);
};
layerId = master01;
shapes = (
{
ref = I;
},
{
alignment = -1;
pos = (543,0);
ref = breve.cap;
scale = (0.84,1);
}
);
width = 641;
},
{
background = {
anchors = (
{
name = bottom;
pos = (181,0);
},
{
name = topcap;
pos = (735,1643);
}
);
shapes = (
{
closed = 1;
nodes = (
(465,0,l),
(489,68,l),
(349,107,l),
(806,1416,l),
(956,1454,l),
(979,1523,l),
(407,1523,l),
(383,1455,l),
(522,1416,l),
(66,107,l),
(-84,69,l),
(-108,0,l)
);
},
{
closed = 1;
nodes = (
(883,1622,o),
(1017,1733,o),
(1124,1935,c),
(1037,1935,l),
(972,1841,o),
(897,1795,o),
(808,1795,cs),
(719,1795,o),
(670,1842,o),
(677,1935,c),
(598,1935,l),
(584,1886,o),
(579,1857,o),
(579,1823,cs),
(579,1698,o),
(645,1622,o),
(752,1622,cs)
);
}
);
};
layerId = "D3934E74-9B53-4E98-B19F-CD3DFEE08352";
shapes = (
{
ref = I;
},
{
pos = (81,0);
ref = breve.cap;
scale = (0.84,1);
}
);
width = 677;
}
);
metricLeft = I;
metricRight = I;
unicode = 300;
},
{
glyphname = Icircumflex;
kernLeft = I;
kernRight = I;
layers = (
{
background = {
anchors = (
{
name = bottom;
pos = (153,0);
},
{
name = topcap;
pos = (746,1643);
}
);
shapes = (
{
closed = 1;
nodes = (
(389,0,l),
(407,45,l),
(269,83,l),
(743,1441,l),
(903,1479,l),
(919,1523,l),
(438,1523,l),
(421,1479,l),
(559,1441,l),
(88,83,l),
(-74,45,l),
(-91,0,l)
);
},
{
closed = 1;
nodes = (
(784,1757,l),
(935,1622,l),
(978,1656,l),
(889,1847,ls),
(870,1885,o),
(854,1900,o),
(816,1900,cs),
(775,1900,o),
(749,1880,o),
(709,1847,cs),
(491,1656,l),
(510,1622,l)
);
}
);
};
layerId = master01;
shapes = (
{
ref = I;
},
{
pos = (454,0);
ref = circumflex.cap;
scale = (0.84,1);
}
);
width = 623;
},
{
background = {
anchors = (
{
name = bottom;
pos = (197,0);
},
{
name = topcap;
pos = (751,1643);
}
);
shapes = (
{
closed = 1;
nodes = (
(481,0,l),
(505,68,l),
(365,107,l),
(822,1416,l),
(972,1454,l),
(995,1523,l),
(423,1523,l),
(399,1455,l),
(538,1416,l),
(82,107,l),
(-68,69,l),
(-92,0,l)
);
},
{
closed = 1;
nodes = (
(788,1747,l),
(957,1622,l),
(1004,1659,l),
(913,1865,ls),
(890,1915,o),
(868,1935,o),
(826,1935,cs),
(788,1935,o),
(756,1918,o),
(698,1865,cs),
(471,1657,l),
(492,1622,l)
);
}
);
};
layerId = "D3934E74-9B53-4E98-B19F-CD3DFEE08352";
shapes = (
{
ref = I;
},
{
pos = (11,0);
ref = circumflex.cap;
scale = (0.84,1);
}
);
width = 677;
}
);
metricLeft = I;
metricRight = I;
unicode = 206;
},
{
glyphname = Idieresis;
kernLeft = I;
kernRight = I;
layers = (
{
background = {
anchors = (
{
name = bottom;
pos = (270,0);
},
{
name = topcap;
pos = (863,1643);
}
);
shapes = (
{
closed = 1;
nodes = (
(506,0,l),
(524,45,l),
(386,83,l),
(860,1441,l),
(1020,1479,l),
(1036,1523,l),
(555,1523,l),
(538,1479,l),
(676,1441,l),
(205,83,l),
(43,45,l),
(26,0,l)
);
},
{
closed = 1;
nodes = (
(1056,1680,o),
(1111,1740,o),
(1111,1802,cs),
(1111,1859,o),
(1066,1900,o),
(1017,1900,cs),
(960,1900,o),
(908,1845,o),
(908,1781,cs),
(908,1719,o),
(944,1680,o),
(999,1680,cs)
);
},
{
closed = 1;
nodes = (
(766,1680,o),
(820,1740,o),
(820,1802,cs),
(820,1859,o),
(776,1900,o),
(726,1900,cs),
(669,1900,o),
(619,1845,o),
(619,1781,cs),
(619,1719,o),
(653,1680,o),
(709,1680,cs)
);
}
);
};
layerId = master01;
shapes = (
{
ref = I;
},
{
pos = (465,0);
ref = dieresis.cap;
scale = (0.84,1);
}
);
width = 623;
},
{
background = {
anchors = (
{
name = bottom;
pos = (244,0);
},
{
name = topcap;
pos = (798,1643);
}
);
shapes = (
{
closed = 1;
nodes = (
(528,0,l),
(552,68,l),
(412,107,l),
(869,1416,l),
(1019,1454,l),
(1042,1523,l),
(470,1523,l),
(446,1455,l),
(585,1416,l),
(129,107,l),
(-21,69,l),
(-45,0,l)
);
},
{
closed = 1;
nodes = (
(1068,1680,o),
(1129,1749,o),
(1129,1822,cs),
(1129,1886,o),
(1079,1933,o),
(1022,1933,cs),
(957,1933,o),
(898,1870,o),
(898,1795,cs),
(898,1727,o),
(938,1680,o),
(1003,1680,cs)
);
},
{
closed = 1;
nodes = (
(736,1680,o),
(798,1749,o),
(798,1822,cs),
(798,1886,o),
(747,1933,o),
(690,1933,cs),
(626,1933,o),
(567,1870,o),
(567,1795,cs),
(567,1727,o),
(607,1680,o),
(671,1680,cs)
);
}
);
};
layerId = "D3934E74-9B53-4E98-B19F-CD3DFEE08352";
shapes = (
{
ref = I;
},
{
pos = (3,0);
ref = dieresis.cap;
scale = (0.84,1);
}
);
width = 677;
}
);
metricLeft = I;
metricRight = I;
unicode = 207;
},
{
glyphname = Idotaccent;
kernLeft = I;
kernRight = I;
layers = (
{
background = {
anchors = (
{
name = bottom;
pos = (134,0);
},
{
name = topcap;
pos = (727,1643);
}
);
shapes = (
{
closed = 1;
nodes = (
(370,0,l),
(388,45,l),
(250,83,l),
(724,1441,l),
(884,1479,l),
(900,1523,l),
(419,1523,l),
(402,1479,l),
(540,1441,l),
(69,83,l),
(-93,45,l),
(-110,0,l)
);
},
{
closed = 1;
nodes = (
(790,1654,o),
(851,1719,o),
(851,1792,cs),
(851,1852,o),
(801,1900,o),
(746,1900,cs),
(682,1900,o),
(625,1839,o),
(625,1765,cs),
(625,1698,o),
(664,1654,o),
(727,1654,cs)
);
}
);
};
layerId = master01;
shapes = (
{
ref = I;
},
{
pos = (607,0);
ref = dotaccent.cap;
scale = (0.84,1);
}
);
width = 623;
},
{
background = {
anchors = (
{
name = bottom;
pos = (181,0);
},
{
name = topcap;
pos = (735,1643);
}
);
shapes = (
{
closed = 1;
nodes = (
(465,0,l),
(489,68,l),
(349,107,l),
(806,1416,l),
(956,1454,l),
(979,1523,l),
(407,1523,l),
(383,1455,l),
(522,1416,l),
(66,107,l),
(-84,69,l),
(-108,0,l)
);
},
{
closed = 1;
nodes = (
(853,1654,o),
(921,1728,o),
(921,1810,cs),
(921,1880,o),
(866,1932,o),
(802,1932,cs),
(731,1932,o),
(667,1863,o),
(667,1781,cs),
(667,1705,o),
(710,1654,o),
(781,1654,cs)
);
}
);
};
layerId = "D3934E74-9B53-4E98-B19F-CD3DFEE08352";
shapes = (
{
ref = I;
},
{
pos = (187,0);
ref = dotaccent.cap;
scale = (0.84,1);
}
);
width = 677;
}
);
metricLeft = I;
metricRight = I;
unicode = 304;
},
{
glyphname = Idotbelow;
kernLeft = I;
kernRight = I;
layers = (
{
background = {
anchors = (
{
name = bottom;
pos = (134,0);
},
{
name = topcap;
pos = (727,1643);
}
);
shapes = (
{
closed = 1;
nodes = (
(370,0,l),
(388,45,l),
(250,83,l),
(724,1441,l),
(884,1479,l),
(900,1523,l),
(419,1523,l),
(402,1479,l),
(540,1441,l),
(69,83,l),
(-93,45,l),
(-110,0,l)
);
},
{
closed = 1;
nodes = (
(99,-507,o),
(160,-440,o),
(160,-367,cs),
(160,-307,o),
(110,-260,o),
(55,-260,cs),
(-9,-260,o),
(-66,-320,o),
(-66,-394,cs),
(-66,-461,o),
(-27,-507,o),
(36,-507,cs)
);
}
);
};
layerId = master01;
shapes = (
{
ref = I;
},
{
pos = (-84,0);
ref = dotbelow;
}
);
width = 623;
},
{
background = {
anchors = (
{
name = bottom;
pos = (181,0);
},
{
name = topcap;
pos = (735,1643);
}
);
shapes = (
{
closed = 1;
nodes = (
(465,0,l),
(489,68,l),
(349,107,l),
(806,1416,l),
(956,1454,l),
(979,1523,l),
(407,1523,l),
(383,1455,l),
(522,1416,l),
(66,107,l),
(-84,69,l),
(-108,0,l)
);
},
{
closed = 1;
nodes = (
(144,-426,o),
(212,-351,o),
(212,-269,cs),
(212,-199,o),
(157,-147,o),
(93,-147,cs),
(22,-147,o),
(-42,-216,o),
(-42,-298,cs),
(-42,-374,o),
(1,-426,o),
(72,-426,cs)
);
}
);
};
layerId = "D3934E74-9B53-4E98-B19F-CD3DFEE08352";
shapes = (
{
ref = I;
},
{
pos = (187,0);
ref = dotbelow;
}
);
width = 677;
}
);
metricLeft = I;
metricRight = I;
unicode = 7882;
},
{
glyphname = Igrave;
kernLeft = I;
kernRight = I;
layers = (
{
background = {
anchors = (
{
name = bottom;
pos = (162,0);
},
{
name = topcap;
pos = (755,1643);
}
);
shapes = (
{
closed = 1;
nodes = (
(398,0,l),
(416,45,l),
(278,83,l),
(752,1441,l),
(912,1479,l),
(928,1523,l),
(447,1523,l),
(430,1479,l),
(568,1441,l),
(97,83,l),
(-65,45,l),
(-82,0,l)
);
},
{
closed = 1;
nodes = (
(921,1656,l),
(747,1837,ls),
(709,1876,o),
(682,1900,o),
(644,1900,cs),
(593,1900,o),
(561,1862,o),
(561,1804,cs),
(561,1757,o),
(581,1721,o),
(621,1708,cs),
(888,1614,l)
);
}
);
};
layerId = master01;
shapes = (
{
ref = I;
},
{
pos = (515,0);
ref = grave.cap;
scale = (0.84,1);
}
);
width = 623;
},
{
background = {
anchors = (
{
name = bottom;
pos = (181,0);
},
{
name = topcap;
pos = (735,1643);
}
);
shapes = (
{
closed = 1;
nodes = (
(465,0,l),
(489,68,l),
(349,107,l),
(806,1416,l),
(956,1454,l),
(979,1523,l),
(407,1523,l),
(383,1455,l),
(522,1416,l),
(66,107,l),
(-84,69,l),
(-108,0,l)
);
},
{
closed = 1;
nodes = (
(972,1674,l),
(784,1870,ls),
(750,1906,o),
(715,1924,o),
(682,1924,cs),
(624,1924,o),
(581,1871,o),
(581,1803,cs),
(581,1746,o),
(611,1703,o),
(657,1692,cs),
(939,1622,l)
);
}
);
};
layerId = "D3934E74-9B53-4E98-B19F-CD3DFEE08352";
shapes = (
{
ref = I;
},
{
pos = (77,0);
ref = grave.cap;
scale = (0.84,1);
}
);
width = 677;
}
);
metricLeft = I;
metricRight = I;
unicode = 204;
},
{
glyphname = Imacron;
kernLeft = I;
kernRight = I;
layers = (
{
background = {
anchors = (
{
name = bottom;
pos = (157,0);
},
{
name = topcap;
pos = (750,1643);
}
);
shapes = (
{
closed = 1;
nodes = (
(393,0,l),
(411,45,l),
(273,83,l),
(747,1441,l),
(907,1479,l),
(923,1523,l),
(442,1523,l),
(425,1479,l),
(563,1441,l),
(92,83,l),
(-70,45,l),
(-87,0,l)
);
},
{
closed = 1;
nodes = (
(979,1696,l),
(1028,1837,l),
(550,1837,l),
(505,1696,l)
);
}
);
};
layerId = master01;
shapes = (
{
ref = I;
},
{
alignment = -1;
pos = (487,0);
ref = macron.cap;
scale = (0.84,1);
}
);
width = 643;
},
{
background = {
anchors = (
{
name = bottom;
pos = (223,0);
},
{
name = topcap;
pos = (777,1643);
}
);
shapes = (
{
closed = 1;
nodes = (
(507,0,l),
(531,68,l),
(391,107,l),
(848,1416,l),
(998,1454,l),
(1021,1523,l),
(449,1523,l),
(425,1455,l),
(564,1416,l),
(108,107,l),
(-42,69,l),
(-66,0,l)
);
},
{
closed = 1;
nodes = (
(1059,1674,l),
(1125,1865,l),
(571,1865,l),
(503,1674,l)
);
}
);
};
layerId = "D3934E74-9B53-4E98-B19F-CD3DFEE08352";
shapes = (
{
ref = I;
},
{
pos = (12,0);
ref = macron.cap;
scale = (0.84,1);
}
);
width = 677;
}
);
metricLeft = I;
metricRight = I;
unicode = 298;
},
{
glyphname = Iogonek;
kernLeft = I;
kernRight = I;
layers = (
{
background = {
anchors = (
{
name = bottom;
pos = (134,0);
},
{
name = topcap;
pos = (727,1643);
}
);
shapes = (
{
closed = 1;
nodes = (
(370,0,l),
(388,45,l),
(250,83,l),
(724,1441,l),
(884,1479,l),
(900,1523,l),
(419,1523,l),
(402,1479,l),
(540,1441,l),
(69,83,l),
(-93,45,l),
(-110,0,l)
);
},
{
closed = 1;
nodes = (
(172,-507,o),
(250,-466,o),
(325,-392,c,{
name = hr00;
}),
(316,-357,l),
(265,-388,o),
(238,-398,o),
(208,-398,cs),
(166,-398,o),
(147,-380,o),
(147,-341,cs),
(147,-258,o),
(236,-127,o),
(371,0,c),
(308,0,l),
(120,-117,o),
(-13,-281,o),
(-13,-404,cs),
(-13,-471,o),
(26,-507,o),
(98,-507,cs)
);
}
);
};
layerId = master01;
shapes = (
{
ref = I;
},
{
alignment = -1;
pos = (-31,0);
ref = ogonek;
scale = (0.84,1);
}
);
width = 708;
},
{
background = {
anchors = (
{
name = bottom;
pos = (181,0);
},
{
name = topcap;
pos = (735,1643);
}
);
shapes = (
{
closed = 1;
nodes = (
(465,0,l),
(489,68,l),
(349,107,l),
(806,1416,l),
(956,1454,l),
(979,1523,l),
(407,1523,l),
(383,1455,l),
(522,1416,l),
(66,107,l),
(-84,69,l),
(-108,0,l)
);
},
{
closed = 1;
nodes = (
(249,-507,o),
(342,-459,o),
(433,-368,c,{
name = hr00;
}),
(424,-321,l),
(370,-354,o),
(338,-365,o),
(307,-365,cs),
(256,-365,o),
(231,-334,o),
(231,-289,cs),
(231,-208,o),
(313,-97,o),
(464,0,c),
(368,0,l),
(120,-117,o),
(27,-258,o),
(27,-364,cs),
(27,-444,o),
(81,-507,o),
(171,-507,cs)
);
}
);
};
layerId = "D3934E74-9B53-4E98-B19F-CD3DFEE08352";
shapes = (
{
ref = I;
},
{
alignment = -1;
pos = (313,0);
ref = ogonek;
scale = (0.84,1);
}
);
width = 771;
}
);
metricLeft = I;
metricRight = I;
unicode = 302;
},
{
glyphname = Itilde;
kernLeft = I;
kernRight = I;
layers = (
{
background = {
anchors = (
{
name = bottom;
pos = (242,0);
},
{
name = topcap;
pos = (835,1643);
}
);
shapes = (
{
closed = 1;
nodes = (
(478,0,l),
(496,45,l),
(358,83,l),
(832,1441,l),
(992,1479,l),
(1008,1523,l),
(527,1523,l),
(510,1479,l),
(648,1441,l),
(177,83,l),
(15,45,l),
(-2,0,l)
);
},
{
closed = 1;
nodes = (
(993,1654,o),
(1078,1750,o),
(1115,1886,c),
(1076,1886,l),
(1054,1837,o),
(1020,1810,o),
(973,1810,cs),
(899,1810,o),
(820,1880,o),
(744,1880,cs),
(663,1880,o),
(578,1787,o),
(547,1655,c),
(581,1655,l),
(599,1703,o),
(637,1730,o),
(684,1730,cs),
(763,1730,o),
(833,1654,o),
(912,1654,cs)
);
}
);
};
layerId = master01;
shapes = (
{
ref = I;
},
{
pos = (421,0);
ref = tilde.cap;
scale = (0.84,1);
}
);
width = 623;
},
{
background = {
anchors = (
{
name = bottom;
pos = (204,0);
},
{
name = topcap;
pos = (758,1643);
}
);
shapes = (
{
closed = 1;
nodes = (
(488,0,l),
(512,68,l),
(372,107,l),
(829,1416,l),
(979,1454,l),
(1002,1523,l),
(430,1523,l),
(406,1455,l),
(545,1416,l),
(89,107,l),
(-61,69,l),
(-85,0,l)
);
},
{
closed = 1;
nodes = (
(1020,1631,o),
(1122,1748,o),
(1168,1910,c),
(1101,1910,l),
(1075,1852,o),
(1034,1821,o),
(979,1821,cs),
(889,1821,o),
(833,1903,o),
(737,1903,cs),
(624,1903,o),
(523,1792,o),
(485,1633,c),
(546,1633,l),
(568,1689,o),
(613,1723,o),
(670,1723,cs),
(764,1723,o),
(809,1631,o),
(909,1631,cs)
);
}
);
};
layerId = "D3934E74-9B53-4E98-B19F-CD3DFEE08352";
shapes = (
{
ref = I;
},
{
pos = (24,0);
ref = tilde.cap;
scale = (0.84,1);
}
);
width = 677;
}
);
metricLeft = I;
metricRight = I;
unicode = 296;
},
{
glyphname = J;
kernLeft = J;
kernRight = J;
layers = (
{
anchors = (
{
name = topcap;
pos = (715,1643);
}
);
background = {
anchors = (
{
name = topcap;
pos = (715,1643);
}
);
shapes = (
{
closed = 1;
nodes = (
(-63,-507,o),
(110,-334,o),
(207,-54,cs),
(729,1441,l),
(889,1479,l),
(906,1523,l),
(423,1523,l),
(407,1479,l),
(545,1441,l),
(21,-54,ls),
(-81,-341,o),
(-125,-427,o),
(-197,-427,cs),
(-306,-427,o),
(-240,-252,o),
(-358,-252,cs),
(-402,-252,o),
(-443,-287,o),
(-443,-351,cs),
(-443,-435,o),
(-366,-507,o),
(-244,-507,cs)
);
}
);
};
layerId = master01;
shapes = (
{
closed = 1;
nodes = (
(-63,-507,o),
(110,-334,o),
(207,-54,cs),
(729,1441,l),
(889,1479,l),
(906,1523,l),
(423,1523,l),
(407,1479,l),
(545,1441,l),
(21,-54,ls),
(-81,-341,o),
(-125,-427,o),
(-197,-427,cs),
(-306,-427,o),
(-240,-252,o),
(-358,-252,cs),
(-402,-252,o),
(-443,-287,o),
(-443,-351,cs),
(-443,-435,o),
(-366,-507,o),
(-244,-507,cs)
);
}
);
width = 644;
},
{
anchors = (
{
name = topcap;
pos = (752,1643);
}
);
background = {
anchors = (
{
name = topcap;
pos = (752,1643);
}
);
shapes = (
{
closed = 1;
nodes = (
(0,-507,o),
(218,-290,o),
(340,62,cs),
(812,1413,l),
(964,1451,l),
(990,1523,l),
(428,1523,l),
(402,1451,l),
(529,1412,l),
(30,-17,ls),
(-71,-309,o),
(-127,-400,o),
(-202,-400,cs),
(-324,-400,o),
(-266,-153,o),
(-414,-153,cs),
(-486,-153,o),
(-535,-211,o),
(-535,-288,cs),
(-535,-417,o),
(-402,-507,o),
(-244,-507,cs)
);
}
);
};
layerId = "D3934E74-9B53-4E98-B19F-CD3DFEE08352";
shapes = (
{
closed = 1;
nodes = (
(0,-507,o),
(218,-290,o),
(340,62,cs),
(812,1413,l),
(964,1451,l),
(990,1523,l),
(428,1523,l),
(402,1451,l),
(529,1412,l),
(30,-17,ls),
(-71,-309,o),
(-127,-400,o),
(-202,-400,cs),
(-324,-400,o),
(-266,-153,o),
(-414,-153,cs),
(-486,-153,o),
(-535,-211,o),
(-535,-288,cs),
(-535,-417,o),
(-402,-507,o),
(-244,-507,cs)
);
}
);
width = 717;
}
);
unicode = 74;
},
{
glyphname = Jcircumflex;
kernLeft = J;
kernRight = J;
layers = (
{
background = {
anchors = (
{
name = topcap;
pos = (715,1643);
}
);
shapes = (
{
closed = 1;
nodes = (
(-63,-507,o),
(110,-334,o),
(207,-54,cs),
(729,1441,l),
(889,1479,l),
(906,1523,l),
(423,1523,l),
(407,1479,l),
(545,1441,l),
(21,-54,ls),
(-81,-341,o),
(-125,-427,o),
(-197,-427,cs),
(-306,-427,o),
(-240,-252,o),
(-358,-252,cs),
(-402,-252,o),
(-443,-287,o),
(-443,-351,cs),
(-443,-435,o),
(-366,-507,o),
(-244,-507,cs)
);
},
{
closed = 1;
nodes = (
(723,1757,l),
(874,1622,l),
(917,1656,l),
(828,1847,ls),
(809,1885,o),
(793,1900,o),
(755,1900,cs),
(714,1900,o),
(688,1880,o),
(648,1847,cs),
(430,1656,l),
(449,1622,l)
);
}
);
};
layerId = master01;
shapes = (
{
alignment = -1;
ref = J;
},
{
alignment = -1;
pos = (412,0);
ref = circumflex.cap;
scale = (0.84,1);
}
);
width = 632;
},
{
background = {
anchors = (
{
name = topcap;
pos = (752,1643);
}
);
shapes = (
{
closed = 1;
nodes = (
(0,-507,o),
(218,-290,o),
(340,62,cs),
(812,1413,l),
(964,1451,l),
(990,1523,l),
(428,1523,l),
(402,1451,l),
(529,1412,l),
(30,-17,ls),
(-71,-309,o),
(-127,-400,o),
(-202,-400,cs),
(-324,-400,o),
(-266,-153,o),
(-414,-153,cs),
(-486,-153,o),
(-535,-211,o),
(-535,-288,cs),
(-535,-417,o),
(-402,-507,o),
(-244,-507,cs)
);
},
{
closed = 1;
nodes = (
(789,1747,l),
(958,1622,l),
(1005,1659,l),
(914,1865,ls),
(891,1915,o),
(869,1935,o),
(827,1935,cs),
(789,1935,o),
(757,1918,o),
(699,1865,cs),
(472,1657,l),
(493,1622,l)
);
}
);
};
layerId = "D3934E74-9B53-4E98-B19F-CD3DFEE08352";
shapes = (
{
ref = J;
},
{
pos = (28,0);
ref = circumflex.cap;
scale = (0.84,1);
}
);
width = 717;
}
);
unicode = 308;
},
{
glyphname = K;
kernLeft = I;
kernRight = K;
layers = (
{
anchors = (
{
name = bottom;
pos = (466,0);
}
);
background = {
anchors = (
{
name = bottom;
pos = (466,0);
}
);
shapes = (
{
closed = 1;
nodes = (
(712,1443,l),
(847,1479,l),
(864,1523,l),
(415,1523,l),
(400,1479,l),
(529,1441,l),
(54,83,l),
(-93,45,l),
(-108,0,l),
(419,0,l),
(434,45,l),
(237,83,l)
);
},
{
closed = 1;
nodes = (
(552,793,l),
(786,0,l),
(1078,0,l),
(1090,45,l),
(943,83,l),
(677,924,l)
);
},
{
closed = 1;
nodes = (
(371,588,l),
(1197,1365,ls),
(1269,1432,o),
(1320,1461,o),
(1417,1468,c),
(1441,1523,l),
(988,1523,l),
(974,1479,l),
(1054,1474,o),
(1089,1445,o),
(1089,1406,cs),
(1089,1377,o),
(1065,1344,o),
(1014,1297,cs),
(434,750,l)
);
}
);
};
layerId = master01;
shapes = (
{
closed = 1;
nodes = (
(712,1443,l),
(847,1479,l),
(864,1523,l),
(415,1523,l),
(400,1479,l),
(529,1441,l),
(54,83,l),
(-93,45,l),
(-108,0,l),
(419,0,l),
(434,45,l),
(237,83,l)
);
},
{
closed = 1;
nodes = (
(552,793,l),
(786,0,l),
(1078,0,l),
(1090,45,l),
(943,83,l),
(677,924,l)
);
},
{
closed = 1;
nodes = (
(371,588,l),
(1197,1365,ls),
(1269,1432,o),
(1320,1461,o),
(1417,1468,c),
(1441,1523,l),
(988,1523,l),
(974,1479,l),
(1054,1474,o),
(1089,1445,o),
(1089,1406,cs),
(1089,1377,o),
(1065,1344,o),
(1014,1297,cs),
(434,750,l)
);
}
);
width = 1232;
},
{
anchors = (
{
name = bottom;
pos = (653,0);
}
);
background = {
anchors = (
{
name = bottom;
pos = (653,0);
}
);
shapes = (
{
closed = 1;
nodes = (
(786,1416,l),
(937,1455,l),
(960,1523,l),
(407,1523,l),
(383,1455,l),
(522,1416,l),
(64,106,l),
(-86,68,l),
(-110,0,l),
(484,0,l),
(508,68,l),
(328,106,l)
);
},
{
closed = 1;
nodes = (
(639,765,l),
(810,0,l),
(1177,0,l),
(1201,68,l),
(1060,106,l),
(832,962,l)
);
},
{
closed = 1;
nodes = (
(486,603,l),
(1313,1328,ls),
(1430,1423,o),
(1467,1441,o),
(1598,1455,c),
(1621,1523,l),
(1117,1523,l),
(1094,1455,l),
(1166,1450,o),
(1203,1431,o),
(1203,1403,cs),
(1203,1383,o),
(1188,1360,o),
(1157,1333,cs),
(528,778,l)
);
}
);
};
layerId = "D3934E74-9B53-4E98-B19F-CD3DFEE08352";
shapes = (
{
closed = 1;
nodes = (
(786,1416,l),
(937,1455,l),
(960,1523,l),
(407,1523,l),
(383,1455,l),
(522,1416,l),
(64,106,l),
(-86,68,l),
(-110,0,l),
(484,0,l),
(508,68,l),
(328,106,l)
);
},
{
closed = 1;
nodes = (
(639,765,l),
(810,0,l),
(1177,0,l),
(1201,68,l),
(1060,106,l),
(832,962,l)
);
},
{
closed = 1;
nodes = (
(486,603,l),
(1313,1328,ls),
(1430,1423,o),
(1467,1441,o),
(1598,1455,c),
(1621,1523,l),
(1117,1523,l),
(1094,1455,l),
(1166,1450,o),
(1203,1431,o),
(1203,1403,cs),
(1203,1383,o),
(1188,1360,o),
(1157,1333,cs),
(528,778,l)
);
}
);
width = 1322;
}
);
metricLeft = I;
unicode = 75;
},
{
glyphname = Kcommaaccent;
kernLeft = I;
kernRight = K;
layers = (
{
background = {
anchors = (
{
name = bottom;
pos = (468,0);
}
);
shapes = (
{
closed = 1;
nodes = (
(714,1443,l),
(849,1479,l),
(866,1523,l),
(417,1523,l),
(402,1479,l),
(531,1441,l),
(56,83,l),
(-91,45,l),
(-106,0,l),
(421,0,l),
(436,45,l),
(239,83,l)
);
},
{
closed = 1;
nodes = (
(554,793,l),
(788,0,l),
(1080,0,l),
(1092,45,l),
(945,83,l),
(679,924,l)
);
},
{
closed = 1;
nodes = (
(373,588,l),
(1199,1365,ls),
(1271,1432,o),
(1322,1461,o),
(1419,1468,c),
(1443,1523,l),
(990,1523,l),
(976,1479,l),
(1056,1474,o),
(1091,1445,o),
(1091,1406,cs),
(1091,1377,o),
(1067,1344,o),
(1016,1297,cs),
(436,750,l)
);
},
{
closed = 1;
nodes = (
(531,-506,o),
(605,-400,o),
(605,-300,cs),
(605,-229,o),
(576,-190,o),
(522,-190,cs),
(448,-190,o),
(413,-237,o),
(413,-309,cs),
(413,-358,o),
(429,-388,o),
(460,-397,cs),
(492,-406,o),
(498,-407,o),
(498,-421,cs),
(498,-452,o),
(444,-514,o),
(375,-554,c),
(400,-590,l)
);
}
);
};
layerId = master01;
shapes = (
{
ref = K;
},
{
alignment = -1;
pos = (405,21);
ref = commaaccent;
scale = (0.84,1);
}
);
width = 1232;
},
{
background = {
anchors = (
{
name = bottom;
pos = (653,0);
}
);
shapes = (
{
closed = 1;
nodes = (
(786,1416,l),
(937,1455,l),
(960,1523,l),
(407,1523,l),
(383,1455,l),
(522,1416,l),
(64,106,l),
(-86,68,l),
(-110,0,l),
(484,0,l),
(508,68,l),
(328,106,l)
);
},
{
closed = 1;
nodes = (
(639,765,l),
(810,0,l),
(1177,0,l),
(1201,68,l),
(1060,106,l),
(832,962,l)
);
},
{
closed = 1;
nodes = (
(486,603,l),
(1313,1328,ls),
(1430,1423,o),
(1467,1441,o),
(1598,1455,c),
(1621,1523,l),
(1117,1523,l),
(1094,1455,l),
(1166,1450,o),
(1203,1431,o),
(1203,1403,cs),
(1203,1383,o),
(1188,1360,o),
(1157,1333,cs),
(528,778,l)
);
},
{
closed = 1;
nodes = (
(601,-480,o),
(712,-357,o),
(712,-228,cs),
(712,-152,o),
(672,-107,o),
(602,-107,cs),
(527,-107,o),
(477,-161,o),
(477,-245,cs),
(477,-298,o),
(496,-332,o),
(535,-345,cs),
(553,-352,o),
(561,-362,o),
(561,-374,cs),
(561,-408,o),
(465,-470,o),
(382,-493,c),
(415,-555,l)
);
}
);
};
layerId = "D3934E74-9B53-4E98-B19F-CD3DFEE08352";
shapes = (
{
ref = K;
},
{
pos = (687,0);
ref = commaaccent;
scale = (0.84,1);
}
);
width = 1322;
}
);
unicode = 310;
},
{
glyphname = L;
kernLeft = I;
kernRight = L;
layers = (
{
anchors = (
{
name = bottom;
pos = (443,0);
},
{
name = middle;
pos = (803,748);
},
{
name = topcap;
pos = (679,1643);
}
);
background = {
anchors = (
{
name = bottom;
pos = (443,0);
},
{
name = middle;
pos = (803,748);
},
{
name = topcap;
pos = (679,1643);
}
);
shapes = (
{
closed = 1;
nodes = (
(902,0,l),
(1062,479,l),
(1005,479,l),
(942,355,o),
(859,204,o),
(769,78,c),
(241,78,l),
(709,1435,l),
(877,1479,l),
(894,1523,l),
(419,1523,l),
(402,1479,l),
(532,1441,l),
(60,83,l),
(-94,45,l),
(-110,0,l)
);
}
);
};
layerId = master01;
shapes = (
{
closed = 1;
nodes = (
(902,0,l),
(1062,479,l),
(1005,479,l),
(942,355,o),
(859,204,o),
(769,78,c),
(241,78,l),
(709,1435,l),
(877,1479,l),
(894,1523,l),
(419,1523,l),
(402,1479,l),
(532,1441,l),
(60,83,l),
(-94,45,l),
(-110,0,l)
);
}
);
width = 1105;
},
{
anchors = (
{
name = bottom;
pos = (491,0);
},
{
name = middle;
pos = (887,748);
},
{
name = topcap;
pos = (705,1643);
}
);
background = {
anchors = (
{
name = bottom;
pos = (491,0);
},
{
name = middle;
pos = (887,748);
},
{
name = topcap;
pos = (705,1643);
}
);
shapes = (
{
closed = 1;
nodes = (
(950,0,l),
(1110,479,l),
(1053,479,l),
(981,341,o),
(905,229,o),
(804,104,c),
(345,104,l),
(806,1416,l),
(956,1455,l),
(979,1523,l),
(407,1523,l),
(383,1455,l),
(522,1416,l),
(64,106,l),
(-86,68,l),
(-110,0,l)
);
}
);
};
layerId = "D3934E74-9B53-4E98-B19F-CD3DFEE08352";
shapes = (
{
closed = 1;
nodes = (
(950,0,l),
(1110,479,l),
(1053,479,l),
(981,341,o),
(905,229,o),
(804,104,c),
(345,104,l),
(806,1416,l),
(956,1455,l),
(979,1523,l),
(407,1523,l),
(383,1455,l),
(522,1416,l),
(64,106,l),
(-86,68,l),
(-110,0,l)
);
}
);
width = 1142;
}
);
metricLeft = I;
unicode = 76;
},
{
glyphname = Lacute;
kernLeft = I;
kernRight = L;
layers = (
{
background = {
anchors = (
{
name = bottom;
pos = (443,0);
},
{
name = middle;
pos = (803,748);
},
{
name = topcap;
pos = (679,1643);
}
);
shapes = (
{
closed = 1;
nodes = (
(902,0,l),
(1062,479,l),
(1005,479,l),
(942,355,o),
(859,204,o),
(769,78,c),
(241,78,l),
(709,1435,l),
(877,1479,l),
(894,1523,l),
(419,1523,l),
(402,1479,l),
(532,1441,l),
(60,83,l),
(-94,45,l),
(-110,0,l)
);
},
{
closed = 1;
nodes = (
(760,1703,ls),
(848,1732,o),
(874,1769,o),
(874,1815,cs),
(874,1864,o),
(838,1900,o),
(802,1900,cs),
(775,1900,o),
(754,1891,o),
(729,1868,cs),
(491,1656,l),
(507,1614,l)
);
}
);
};
layerId = master01;
shapes = (
{
ref = L;
},
{
pos = (473,0);
ref = acute.cap;
scale = (0.84,1);
}
);
width = 1105;
},
{
background = {
anchors = (
{
name = bottom;
pos = (491,0);
},
{
name = middle;
pos = (887,748);
},
{
name = topcap;
pos = (705,1643);
}
);
shapes = (
{
closed = 1;
nodes = (
(950,0,l),
(1110,479,l),
(1053,479,l),
(981,341,o),
(905,229,o),
(804,104,c),
(345,104,l),
(806,1416,l),
(956,1455,l),
(979,1523,l),
(407,1523,l),
(383,1455,l),
(522,1416,l),
(64,106,l),
(-86,68,l),
(-110,0,l)
);
},
{
closed = 1;
nodes = (
(889,1692,ls),
(935,1702,o),
(965,1746,o),
(965,1803,cs),
(965,1871,o),
(922,1924,o),
(865,1924,cs),
(831,1924,o),
(797,1903,o),
(762,1870,cs),
(554,1674,l),
(588,1622,l)
);
}
);
};
layerId = "D3934E74-9B53-4E98-B19F-CD3DFEE08352";
shapes = (
{
ref = L;
},
{
pos = (105,0);
ref = acute.cap;
scale = (0.84,1);
}
);
width = 1142;
}
);
unicode = 313;
},
{
glyphname = Lcaron;
kernLeft = I;
kernRight = L;
layers = (
{
background = {
anchors = (
{
name = bottom;
pos = (531,0);
},
{
name = middle;
pos = (891,748);
},
{
name = topcap;
pos = (767,1643);
}
);
shapes = (
{
closed = 1;
nodes = (
(990,0,l),
(1150,479,l),
(1093,479,l),
(1030,355,o),
(947,204,o),
(857,78,c),
(329,78,l),
(797,1435,l),
(965,1479,l),
(982,1523,l),
(507,1523,l),
(490,1479,l),
(620,1441,l),
(148,83,l),
(-6,45,l),
(-22,0,l)
);
},
{
closed = 1;
nodes = (
(816,1622,o),
(839,1643,o),
(880,1677,cs),
(1099,1867,l),
(1080,1900,l),
(806,1765,l),
(654,1900,l),
(612,1867,l),
(701,1677,ls),
(719,1639,o),
(735,1622,o),
(774,1622,cs)
);
}
);
};
layerId = master01;
shapes = (
{
ref = L;
},
{
pos = (506,0);
ref = caron.cap;
scale = (0.84,1);
}
);
width = 1105;
},
{
background = {
anchors = (
{
name = bottom;
pos = (551,0);
},
{
name = middle;
pos = (947,748);
},
{
name = topcap;
pos = (765,1643);
}
);
shapes = (
{
closed = 1;
nodes = (
(1010,0,l),
(1170,479,l),
(1113,479,l),
(1041,341,o),
(965,229,o),
(864,104,c),
(405,104,l),
(866,1416,l),
(1016,1455,l),
(1039,1523,l),
(467,1523,l),
(443,1455,l),
(582,1416,l),
(124,106,l),
(-26,68,l),
(-50,0,l)
);
},
{
closed = 1;
nodes = (
(809,1622,o),
(841,1639,o),
(900,1692,cs),
(1127,1900,l),
(1106,1935,l),
(809,1810,l),
(641,1935,l),
(594,1898,l),
(685,1692,ls),
(707,1641,o),
(730,1622,o),
(772,1622,cs)
);
}
);
};
layerId = "D3934E74-9B53-4E98-B19F-CD3DFEE08352";
shapes = (
{
ref = L;
},
{
pos = (32,0);
ref = caron.cap;
scale = (0.84,1);
}
);
width = 1142;
}
);
metricLeft = L;
metricRight = L;
unicode = 317;
},
{
glyphname = Lcommaaccent;
kernLeft = I;
kernRight = L;
layers = (
{
background = {
anchors = (
{
name = bottom;
pos = (443,0);
},
{
name = middle;
pos = (803,748);
},
{
name = topcap;
pos = (679,1643);
}
);
shapes = (
{
closed = 1;
nodes = (
(902,0,l),
(1062,479,l),
(1005,479,l),
(942,355,o),
(859,204,o),
(769,78,c),
(241,78,l),
(709,1435,l),
(877,1479,l),
(894,1523,l),
(419,1523,l),
(402,1479,l),
(532,1441,l),
(60,83,l),
(-94,45,l),
(-110,0,l)
);
},
{
closed = 1;
nodes = (
(428,-506,o),
(502,-400,o),
(502,-300,cs),
(502,-229,o),
(473,-190,o),
(419,-190,cs),
(345,-190,o),
(310,-237,o),
(310,-309,cs),
(310,-358,o),
(326,-388,o),
(357,-397,cs),
(389,-406,o),
(395,-407,o),
(395,-421,cs),
(395,-452,o),
(341,-514,o),
(272,-554,c),
(297,-590,l)
);
}
);
};
layerId = master01;
shapes = (
{
ref = L;
},
{
alignment = -1;
pos = (302,21);
ref = commaaccent;
scale = (0.84,1);
}
);
width = 1105;
},
{
background = {
anchors = (
{
name = bottom;
pos = (491,0);
},
{
name = middle;
pos = (887,748);
},
{
name = topcap;
pos = (705,1643);
}
);
shapes = (
{
closed = 1;
nodes = (
(950,0,l),
(1110,479,l),
(1053,479,l),
(981,341,o),
(905,229,o),
(804,104,c),
(345,104,l),
(806,1416,l),
(956,1455,l),
(979,1523,l),
(407,1523,l),
(383,1455,l),
(522,1416,l),
(64,106,l),
(-86,68,l),
(-110,0,l)
);
},
{
closed = 1;
nodes = (
(439,-480,o),
(550,-357,o),
(550,-228,cs),
(550,-152,o),
(510,-107,o),
(440,-107,cs),
(365,-107,o),
(315,-161,o),
(315,-245,cs),
(315,-298,o),
(334,-332,o),
(373,-345,cs),
(391,-352,o),
(399,-362,o),
(399,-374,cs),
(399,-408,o),
(303,-470,o),
(220,-493,c),
(253,-555,l)
);
}
);
};
layerId = "D3934E74-9B53-4E98-B19F-CD3DFEE08352";
shapes = (
{
ref = L;
},
{
pos = (525,0);
ref = commaaccent;
scale = (0.84,1);
}
);
width = 1142;
}
);
unicode = 315;
},
{
glyphname = Ldot;
kernLeft = I;
kernRight = L;
layers = (
{
background = {
anchors = (
{
name = bottom;
pos = (443,0);
},
{
name = middle;
pos = (803,748);
},
{
name = topcap;
pos = (679,1643);
}
);
shapes = (
{
closed = 1;
nodes = (
(902,0,l),
(1062,479,l),
(1005,479,l),
(942,355,o),
(859,204,o),
(769,78,c),
(241,78,l),
(709,1435,l),
(877,1479,l),
(894,1523,l),
(419,1523,l),
(402,1479,l),
(532,1441,l),
(60,83,l),
(-94,45,l),
(-110,0,l)
);
},
{
closed = 1;
nodes = (
(846,617,o),
(907,685,o),
(907,755,cs),
(907,817,o),
(857,864,o),
(802,864,cs),
(738,864,o),
(681,802,o),
(681,729,cs),
(681,661,o),
(720,617,o),
(783,617,cs)
);
}
);
};
layerId = master01;
shapes = (
{
ref = L;
},
{
pos = (663,-680);
ref = dotaccent;
scale = (0.84,1);
}
);
width = 1105;
},
{
background = {
anchors = (
{
name = bottom;
pos = (491,0);
},
{
name = middle;
pos = (887,748);
},
{
name = topcap;
pos = (705,1643);
}
);
shapes = (
{
closed = 1;
nodes = (
(950,0,l),
(1110,479,l),
(1053,479,l),
(981,341,o),
(905,229,o),
(804,104,c),
(345,104,l),
(806,1416,l),
(956,1455,l),
(979,1523,l),
(407,1523,l),
(383,1455,l),
(522,1416,l),
(64,106,l),
(-86,68,l),
(-110,0,l)
);
},
{
closed = 1;
nodes = (
(937,606,o),
(1005,680,o),
(1005,762,cs),
(1005,832,o),
(950,884,o),
(886,884,cs),
(815,884,o),
(751,815,o),
(751,733,cs),
(751,657,o),
(794,606,o),
(865,606,cs)
);
}
);
};
layerId = "D3934E74-9B53-4E98-B19F-CD3DFEE08352";
shapes = (
{
ref = L;
},
{
pos = (387,-691);
ref = dotaccent;
scale = (0.84,1);
}
);
width = 1142;
}
);
unicode = 319;
},
{
glyphname = Lslash;
kernLeft = I;
kernRight = L;
layers = (
{
background = {
anchors = (
{
name = bottom;
pos = (456,0);
},
{
name = middle;
pos = (816,748);
},
{
name = topcap;
pos = (692,1643);
}
);
shapes = (
{
closed = 1;
nodes = (
(382,714,l),
(441,702,l),
(753,877,l),
(756,975,l),
(451,803,l),
(393,815,l),
(78,638,l),
(78,542,l)
);
},
{
closed = 1;
nodes = (
(915,0,l),
(1075,479,l),
(1018,479,l),
(955,355,o),
(872,204,o),
(782,78,c),
(254,78,l),
(722,1435,l),
(890,1479,l),
(907,1523,l),
(432,1523,l),
(415,1479,l),
(545,1441,l),
(73,83,l),
(-81,45,l),
(-97,0,l)
);
}
);
};
layerId = master01;
shapes = (
{
closed = 1;
nodes = (
(382,714,l),
(441,702,l),
(753,877,l),
(756,975,l),
(451,803,l),
(393,815,l),
(78,638,l),
(78,542,l)
);
},
{
pos = (13,0);
ref = L;
}
);
width = 1118;
},
{
background = {
anchors = (
{
name = bottom;
pos = (522,0);
},
{
name = middle;
pos = (918,748);
},
{
name = topcap;
pos = (736,1643);
}
);
shapes = (
{
closed = 1;
nodes = (
(420,699,l),
(549,710,l),
(898,912,l),
(901,1056,l),
(545,850,l),
(422,842,l),
(69,638,l),
(69,496,l)
);
},
{
closed = 1;
nodes = (
(981,0,l),
(1141,479,l),
(1084,479,l),
(1012,341,o),
(936,229,o),
(835,104,c),
(376,104,l),
(837,1416,l),
(987,1455,l),
(1010,1523,l),
(438,1523,l),
(414,1455,l),
(553,1416,l),
(95,106,l),
(-55,68,l),
(-79,0,l)
);
}
);
};
layerId = "D3934E74-9B53-4E98-B19F-CD3DFEE08352";
shapes = (
{
closed = 1;
nodes = (
(420,699,l),
(549,710,l),
(898,912,l),
(901,1056,l),
(545,850,l),
(422,842,l),
(69,638,l),
(69,496,l)
);
},
{
pos = (31,0);
ref = L;
}
);
width = 1173;
}
);
metricRight = L;
unicode = 321;
},
{
glyphname = M;
kernLeft = M;
kernRight = I;
layers = (
{
background = {
shapes = (
{
closed = 1;
nodes = (
(591,-21,l),
(1518,1406,l),
(1525,1406,l),
(1061,83,l),
(900,45,l),
(883,0,l),
(1354,0,l),
(1372,45,l),
(1235,83,l),
(1709,1441,l),
(1870,1479,l),
(1885,1523,l),
(1508,1523,l),
(716,304,l),
(710,304,l),
(845,1523,l),
(465,1523,l),
(449,1479,l),
(598,1441,l),
(14,83,l),
(-146,45,l),
(-164,0,l),
(215,0,l),
(230,45,l),
(95,83,l),
(650,1366,l),
(657,1366,l),
(512,-21,l)
);
}
);
};
layerId = master01;
shapes = (
{
closed = 1;
nodes = (
(591,-21,l),
(1518,1406,l),
(1525,1406,l),
(1061,83,l),
(900,45,l),
(883,0,l),
(1354,0,l),
(1372,45,l),
(1235,83,l),
(1709,1441,l),
(1870,1479,l),
(1885,1523,l),
(1508,1523,l),
(716,304,l),
(710,304,l),
(845,1523,l),
(465,1523,l),
(449,1479,l),
(598,1441,l),
(14,83,l),
(-146,45,l),
(-164,0,l),
(215,0,l),
(230,45,l),
(95,83,l),
(650,1366,l),
(657,1366,l),
(512,-21,l)
);
}
);
width = 1616;
},
{
background = {
shapes = (
{
closed = 1;
nodes = (
(596,-21,l),
(1461,1229,l),
(1467,1229,l),
(1086,106,l),
(937,68,l),
(913,0,l),
(1463,0,l),
(1488,68,l),
(1347,106,l),
(1793,1416,l),
(1937,1455,l),
(1961,1523,l),
(1546,1523,l),
(822,476,l),
(806,476,l),
(848,1523,l),
(449,1523,l),
(425,1455,l),
(564,1416,l),
(10,106,l),
(-139,68,l),
(-164,0,l),
(228,0,l),
(253,68,l),
(113,106,l),
(587,1229,l),
(594,1229,l),
(543,-21,l)
);
}
);
};
guides = (
{
pos = (1123,1067);
}
);
layerId = "D3934E74-9B53-4E98-B19F-CD3DFEE08352";
shapes = (
{
closed = 1;
nodes = (
(596,-21,l),
(1461,1229,l),
(1467,1229,l),
(1086,106,l),
(937,68,l),
(913,0,l),
(1463,0,l),
(1488,68,l),
(1347,106,l),
(1793,1416,l),
(1937,1455,l),
(1961,1523,l),
(1546,1523,l),
(822,476,l),
(806,476,l),
(848,1523,l),
(449,1523,l),
(425,1455,l),
(564,1416,l),
(10,106,l),
(-139,68,l),
(-164,0,l),
(228,0,l),
(253,68,l),
(113,106,l),
(587,1229,l),
(594,1229,l),
(543,-21,l)
);
}
);
width = 1715;
}
);
unicode = 77;
userData = {
com.typemytype.robofont.guides = (
{
angle = 0;
isGlobal = 0;
magnetic = 5;
x = 0;
y = 23;
},
{
angle = 0;
isGlobal = 0;
magnetic = 5;
x = 0;
y = 728;
}
);
};
},
{
glyphname = N;
kernLeft = N;
kernRight = N;
layers = (
{
anchors = (
{
name = bottom;
pos = (498,-21);
},
{
name = topcap;
pos = (1091,1643);
}
);
background = {
anchors = (
{
name = bottom;
pos = (498,-21);
},
{
name = topcap;
pos = (1091,1643);
}
);
shapes = (
{
closed = 1;
nodes = (
(930,-21,l),
(1439,1441,l),
(1599,1479,l),
(1615,1523,l),
(1236,1523,l),
(1221,1479,l),
(1358,1441,l),
(978,351,l),
(971,351,l),
(745,1523,l),
(419,1523,l),
(402,1479,l),
(540,1441,l),
(68,83,l),
(-93,45,l),
(-110,0,l),
(268,0,l),
(283,45,l),
(148,83,l),
(591,1353,l),
(596,1353,l),
(870,-21,l)
);
}
);
};
layerId = master01;
shapes = (
{
closed = 1;
nodes = (
(930,-21,l),
(1439,1441,l),
(1599,1479,l),
(1615,1523,l),
(1236,1523,l),
(1221,1479,l),
(1358,1441,l),
(978,351,l),
(971,351,l),
(745,1523,l),
(419,1523,l),
(402,1479,l),
(540,1441,l),
(68,83,l),
(-93,45,l),
(-110,0,l),
(268,0,l),
(283,45,l),
(148,83,l),
(591,1353,l),
(596,1353,l),
(870,-21,l)
);
}
);
width = 1338;
},
{
anchors = (
{
name = bottom;
pos = (535,-21);
},
{
name = topcap;
pos = (1128,1643);
}
);
background = {
anchors = (
{
name = bottom;
pos = (535,-21);
},
{
name = topcap;
pos = (1128,1643);
}
);
shapes = (
{
closed = 1;
nodes = (
(951,-21,l),
(1461,1416,l),
(1610,1455,l),
(1635,1523,l),
(1241,1523,l),
(1217,1455,l),
(1356,1416,l),
(1022,462,l),
(1015,462,l),
(736,1523,l),
(407,1523,l),
(383,1455,l),
(522,1416,l),
(71,106,l),
(-78,68,l),
(-102,0,l),
(286,0,l),
(309,68,l),
(170,106,l),
(553,1200,l),
(557,1200,l),
(879,-21,l)
);
}
);
};
layerId = "D3934E74-9B53-4E98-B19F-CD3DFEE08352";
shapes = (
{
closed = 1;
nodes = (
(951,-21,l),
(1461,1416,l),
(1610,1455,l),
(1635,1523,l),
(1241,1523,l),
(1217,1455,l),
(1356,1416,l),
(1022,462,l),
(1015,462,l),
(736,1523,l),
(407,1523,l),
(383,1455,l),
(522,1416,l),
(71,106,l),
(-78,68,l),
(-102,0,l),
(286,0,l),
(309,68,l),
(170,106,l),
(553,1200,l),
(557,1200,l),
(879,-21,l)
);
}
);
width = 1322;
}
);
metricLeft = I;
metricRight = I;
unicode = 78;
},
{
glyphname = Nacute;
kernLeft = N;
kernRight = N;
layers = (
{
background = {
anchors = (
{
name = bottom;
pos = (498,-21);
},
{
name = topcap;
pos = (1091,1643);
}
);
shapes = (
{
closed = 1;
nodes = (
(930,-21,l),
(1439,1441,l),
(1599,1479,l),
(1615,1523,l),
(1236,1523,l),
(1221,1479,l),
(1358,1441,l),
(978,351,l),
(971,351,l),
(745,1523,l),
(419,1523,l),
(402,1479,l),
(540,1441,l),
(68,83,l),
(-93,45,l),
(-110,0,l),
(268,0,l),
(283,45,l),
(148,83,l),
(591,1353,l),
(596,1353,l),
(870,-21,l)
);
},
{
closed = 1;
nodes = (
(1172,1703,ls),
(1260,1732,o),
(1286,1769,o),
(1286,1815,cs),
(1286,1864,o),
(1250,1900,o),
(1214,1900,cs),
(1187,1900,o),
(1166,1891,o),
(1141,1868,cs),
(903,1656,l),
(919,1614,l)
);
}
);
};
layerId = master01;
shapes = (
{
ref = N;
},
{
pos = (885,0);
ref = acute.cap;
scale = (0.84,1);
}
);
width = 1338;
},
{
background = {
anchors = (
{
name = bottom;
pos = (535,-21);
},
{
name = topcap;
pos = (1128,1643);
}
);
shapes = (
{
closed = 1;
nodes = (
(951,-21,l),
(1461,1416,l),
(1610,1455,l),
(1635,1523,l),
(1241,1523,l),
(1217,1455,l),
(1356,1416,l),
(1022,462,l),
(1015,462,l),
(736,1523,l),
(407,1523,l),
(383,1455,l),
(522,1416,l),
(71,106,l),
(-78,68,l),
(-102,0,l),
(286,0,l),
(309,68,l),
(170,106,l),
(553,1200,l),
(557,1200,l),
(879,-21,l)
);
},
{
closed = 1;
nodes = (
(1312,1692,ls),
(1358,1702,o),
(1388,1746,o),
(1388,1803,cs),
(1388,1871,o),
(1345,1924,o),
(1288,1924,cs),
(1254,1924,o),
(1220,1903,o),
(1185,1870,cs),
(977,1674,l),
(1011,1622,l)
);
}
);
};
layerId = "D3934E74-9B53-4E98-B19F-CD3DFEE08352";
shapes = (
{
ref = N;
},
{
pos = (528,0);
ref = acute.cap;
scale = (0.84,1);
}
);
width = 1322;
}
);
unicode = 323;
},
{
glyphname = Ncaron;
kernLeft = N;
kernRight = N;
layers = (
{
background = {
anchors = (
{
name = bottom;
pos = (498,-21);
},
{
name = topcap;
pos = (1091,1643);
}
);
shapes = (
{
closed = 1;
nodes = (
(930,-21,l),
(1439,1441,l),
(1599,1479,l),
(1615,1523,l),
(1236,1523,l),
(1221,1479,l),
(1358,1441,l),
(978,351,l),
(971,351,l),
(745,1523,l),
(419,1523,l),
(402,1479,l),
(540,1441,l),
(68,83,l),
(-93,45,l),
(-110,0,l),
(268,0,l),
(283,45,l),
(148,83,l),
(591,1353,l),
(596,1353,l),
(870,-21,l)
);
},
{
closed = 1;
nodes = (
(1140,1622,o),
(1163,1643,o),
(1204,1677,cs),
(1423,1867,l),
(1404,1900,l),
(1130,1765,l),
(978,1900,l),
(936,1867,l),
(1025,1677,ls),
(1043,1639,o),
(1059,1622,o),
(1098,1622,cs)
);
}
);
};
layerId = master01;
shapes = (
{
ref = N;
},
{
pos = (918,0);
ref = caron.cap;
scale = (0.84,1);
}
);
width = 1338;
},
{
background = {
anchors = (
{
name = bottom;
pos = (535,-21);
},
{
name = topcap;
pos = (1128,1643);
}
);
shapes = (
{
closed = 1;
nodes = (
(951,-21,l),
(1461,1416,l),
(1610,1455,l),
(1635,1523,l),
(1241,1523,l),
(1217,1455,l),
(1356,1416,l),
(1022,462,l),
(1015,462,l),
(736,1523,l),
(407,1523,l),
(383,1455,l),
(522,1416,l),
(71,106,l),
(-78,68,l),
(-102,0,l),
(286,0,l),
(309,68,l),
(170,106,l),
(553,1200,l),
(557,1200,l),
(879,-21,l)
);
},
{
closed = 1;
nodes = (
(1172,1622,o),
(1204,1639,o),
(1263,1692,cs),
(1490,1900,l),
(1469,1935,l),
(1172,1810,l),
(1004,1935,l),
(957,1898,l),
(1048,1692,ls),
(1070,1641,o),
(1093,1622,o),
(1135,1622,cs)
);
}
);
};
layerId = "D3934E74-9B53-4E98-B19F-CD3DFEE08352";
shapes = (
{
ref = N;
},
{
pos = (455,0);
ref = caron.cap;
scale = (0.84,1);
}
);
width = 1322;
}
);
unicode = 327;
},
{
glyphname = Ncommaaccent;
kernLeft = N;
kernRight = N;
layers = (
{
background = {
anchors = (
{
name = bottom;
pos = (498,-21);
},
{
name = topcap;
pos = (1091,1643);
}
);
shapes = (
{
closed = 1;
nodes = (
(930,-21,l),
(1439,1441,l),
(1599,1479,l),
(1615,1523,l),
(1236,1523,l),
(1221,1479,l),
(1358,1441,l),
(978,351,l),
(971,351,l),
(745,1523,l),
(419,1523,l),
(402,1479,l),
(540,1441,l),
(68,83,l),
(-93,45,l),
(-110,0,l),
(268,0,l),
(283,45,l),
(148,83,l),
(591,1353,l),
(596,1353,l),
(870,-21,l)
);
},
{
closed = 1;
nodes = (
(469,-527,o),
(543,-421,o),
(543,-321,cs),
(543,-250,o),
(514,-211,o),
(460,-211,cs),
(386,-211,o),
(351,-258,o),
(351,-330,cs),
(351,-379,o),
(367,-409,o),
(398,-418,cs),
(430,-427,o),
(436,-428,o),
(436,-442,cs),
(436,-473,o),
(382,-535,o),
(313,-575,c),
(338,-611,l)
);
}
);
};
layerId = master01;
shapes = (
{
ref = N;
},
{
pos = (343,0);
ref = commaaccent;
scale = (0.84,1);
}
);
width = 1338;
},
{
background = {
anchors = (
{
name = bottom;
pos = (535,-21);
},
{
name = topcap;
pos = (1128,1643);
}
);
shapes = (
{
closed = 1;
nodes = (
(951,-21,l),
(1461,1416,l),
(1610,1455,l),
(1635,1523,l),
(1241,1523,l),
(1217,1455,l),
(1356,1416,l),
(1022,462,l),
(1015,462,l),
(736,1523,l),
(407,1523,l),
(383,1455,l),
(522,1416,l),
(71,106,l),
(-78,68,l),
(-102,0,l),
(286,0,l),
(309,68,l),
(170,106,l),
(553,1200,l),
(557,1200,l),
(879,-21,l)
);
},
{
closed = 1;
nodes = (
(483,-501,o),
(594,-378,o),
(594,-249,cs),
(594,-173,o),
(554,-128,o),
(484,-128,cs),
(409,-128,o),
(359,-182,o),
(359,-266,cs),
(359,-319,o),
(378,-353,o),
(417,-366,cs),
(435,-373,o),
(443,-383,o),
(443,-395,cs),
(443,-429,o),
(347,-491,o),
(264,-514,c),
(297,-576,l)
);
}
);
};
layerId = "D3934E74-9B53-4E98-B19F-CD3DFEE08352";
shapes = (
{
ref = N;
},
{
pos = (569,-21);
ref = commaaccent;
scale = (0.84,1);
}
);
width = 1322;
}
);
unicode = 325;
},
{
glyphname = Ndotaccent;
kernLeft = N;
kernRight = N;
layers = (
{
background = {
anchors = (
{
name = bottom;
pos = (498,-21);
},
{
name = topcap;
pos = (1091,1643);
}
);
shapes = (
{
closed = 1;
nodes = (
(930,-21,l),
(1439,1441,l),
(1599,1479,l),
(1615,1523,l),
(1236,1523,l),
(1221,1479,l),
(1358,1441,l),
(978,351,l),
(971,351,l),
(745,1523,l),
(419,1523,l),
(402,1479,l),
(540,1441,l),
(68,83,l),
(-93,45,l),
(-110,0,l),
(268,0,l),
(283,45,l),
(148,83,l),
(591,1353,l),
(596,1353,l),
(870,-21,l)
);
},
{
closed = 1;
nodes = (
(1154,1654,o),
(1215,1719,o),
(1215,1792,cs),
(1215,1852,o),
(1165,1900,o),
(1110,1900,cs),
(1046,1900,o),
(989,1839,o),
(989,1765,cs),
(989,1698,o),
(1028,1654,o),
(1091,1654,cs)
);
}
);
};
layerId = master01;
shapes = (
{
ref = N;
},
{
pos = (971,0);
ref = dotaccent.cap;
scale = (0.84,1);
}
);
width = 1338;
},
{
background = {
anchors = (
{
name = bottom;
pos = (535,-21);
},
{
name = topcap;
pos = (1128,1643);
}
);
shapes = (
{
closed = 1;
nodes = (
(951,-21,l),
(1461,1416,l),
(1610,1455,l),
(1635,1523,l),
(1241,1523,l),
(1217,1455,l),
(1356,1416,l),
(1022,462,l),
(1015,462,l),
(736,1523,l),
(407,1523,l),
(383,1455,l),
(522,1416,l),
(71,106,l),
(-78,68,l),
(-102,0,l),
(286,0,l),
(309,68,l),
(170,106,l),
(553,1200,l),
(557,1200,l),
(879,-21,l)
);
},
{
closed = 1;
nodes = (
(1246,1654,o),
(1314,1728,o),
(1314,1810,cs),
(1314,1880,o),
(1259,1932,o),
(1195,1932,cs),
(1124,1932,o),
(1060,1863,o),
(1060,1781,cs),
(1060,1705,o),
(1103,1654,o),
(1174,1654,cs)
);
}
);
};
layerId = "D3934E74-9B53-4E98-B19F-CD3DFEE08352";
shapes = (
{
ref = N;
},
{
pos = (580,0);
ref = dotaccent.cap;
scale = (0.84,1);
}
);
width = 1322;
}
);
unicode = 7748;
},
{
glyphname = Ntilde;
kernLeft = N;
kernRight = N;
layers = (
{
background = {
anchors = (
{
name = bottom;
pos = (498,-21);
},
{
name = topcap;
pos = (1091,1643);
}
);
shapes = (
{
closed = 1;
nodes = (
(930,-21,l),
(1439,1441,l),
(1599,1479,l),
(1615,1523,l),
(1236,1523,l),
(1221,1479,l),
(1358,1441,l),
(978,351,l),
(971,351,l),
(745,1523,l),
(419,1523,l),
(402,1479,l),
(540,1441,l),
(68,83,l),
(-93,45,l),
(-110,0,l),
(268,0,l),
(283,45,l),
(148,83,l),
(591,1353,l),
(596,1353,l),
(870,-21,l)
);
},
{
closed = 1;
nodes = (
(1249,1654,o),
(1334,1750,o),
(1371,1886,c),
(1332,1886,l),
(1310,1837,o),
(1276,1810,o),
(1229,1810,cs),
(1155,1810,o),
(1076,1880,o),
(1000,1880,cs),
(919,1880,o),
(834,1787,o),
(803,1655,c),
(837,1655,l),
(855,1703,o),
(893,1730,o),
(940,1730,cs),
(1019,1730,o),
(1089,1654,o),
(1168,1654,cs)
);
}
);
};
layerId = master01;
shapes = (
{
ref = N;
},
{
pos = (785,0);
ref = tilde.cap;
scale = (0.84,1);
}
);
width = 1338;
},
{
background = {
anchors = (
{
name = bottom;
pos = (535,-21);
},
{
name = topcap;
pos = (1128,1643);
}
);
shapes = (
{
closed = 1;
nodes = (
(951,-21,l),
(1461,1416,l),
(1610,1455,l),
(1635,1523,l),
(1241,1523,l),
(1217,1455,l),
(1356,1416,l),
(1022,462,l),
(1015,462,l),
(736,1523,l),
(407,1523,l),
(383,1455,l),
(522,1416,l),
(71,106,l),
(-78,68,l),
(-102,0,l),
(286,0,l),
(309,68,l),
(170,106,l),
(553,1200,l),
(557,1200,l),
(879,-21,l)
);
},
{
closed = 1;
nodes = (
(1390,1631,o),
(1492,1748,o),
(1538,1910,c),
(1471,1910,l),
(1445,1852,o),
(1404,1821,o),
(1349,1821,cs),
(1259,1821,o),
(1203,1903,o),
(1107,1903,cs),
(994,1903,o),
(893,1792,o),
(855,1633,c),
(916,1633,l),
(938,1689,o),
(983,1723,o),
(1040,1723,cs),
(1134,1723,o),
(1179,1631,o),
(1279,1631,cs)
);
}
);
};
layerId = "D3934E74-9B53-4E98-B19F-CD3DFEE08352";
shapes = (
{
ref = N;
},
{
pos = (417,0);
ref = tilde.cap;
scale = (0.84,1);
}
);
width = 1322;
}
);
unicode = 209;
},
{
glyphname = Eng;
kernLeft = N;
kernRight = N;
layers = (
{
background = {
anchors = (
{
name = bottom;
pos = (498,-21);
},
{
name = topcap;
pos = (1091,1643);
}
);
shapes = (
{
closed = 1;
nodes = (
(656,-507,o),
(818,-336,o),
(917,-56,cs),
(930,-21,l),
(866,253,l),
(759,-54,ls),
(656,-348,o),
(600,-427,o),
(523,-427,cs),
(423,-427,o),
(470,-252,o),
(362,-252,cs),
(318,-252,o),
(276,-287,o),
(276,-351,cs),
(276,-435,o),
(354,-507,o),
(476,-507,cs)
);
},
{
closed = 1;
nodes = (
(930,-21,l),
(1439,1441,l),
(1599,1479,l),
(1615,1523,l),
(1236,1523,l),
(1221,1479,l),
(1358,1441,l),
(978,351,l),
(971,351,l),
(745,1523,l),
(419,1523,l),
(402,1479,l),
(540,1441,l),
(68,83,l),
(-93,45,l),
(-110,0,l),
(268,0,l),
(283,45,l),
(148,83,l),
(591,1353,l),
(596,1353,l),
(870,-21,l)
);
}
);
};
layerId = master01;
shapes = (
{
closed = 1;
nodes = (
(656,-507,o),
(818,-336,o),
(917,-56,cs),
(930,-21,l),
(866,253,l),
(759,-54,ls),
(656,-348,o),
(600,-427,o),
(523,-427,cs),
(423,-427,o),
(470,-252,o),
(362,-252,cs),
(318,-252,o),
(276,-287,o),
(276,-351,cs),
(276,-435,o),
(354,-507,o),
(476,-507,cs)
);
},
{
ref = N;
}
);
width = 1338;
},
{
background = {
anchors = (
{
name = bottom;
pos = (535,-21);
},
{
name = topcap;
pos = (1128,1643);
}
);
shapes = (
{
closed = 1;
nodes = (
(658,-507,o),
(830,-364,o),
(951,-21,cs),
(974,45,l),
(859,345,l),
(764,50,ls),
(640,-332,o),
(567,-415,o),
(507,-415,cs),
(413,-415,o),
(478,-207,o),
(344,-207,cs),
(281,-207,o),
(244,-256,o),
(244,-316,cs),
(244,-432,o),
(375,-507,o),
(491,-507,cs)
);
},
{
closed = 1;
nodes = (
(951,-21,l),
(1461,1416,l),
(1610,1455,l),
(1635,1523,l),
(1241,1523,l),
(1217,1455,l),
(1356,1416,l),
(1022,462,l),
(1015,462,l),
(736,1523,l),
(407,1523,l),
(383,1455,l),
(522,1416,l),
(71,106,l),
(-78,68,l),
(-102,0,l),
(286,0,l),
(309,68,l),
(170,106,l),
(553,1200,l),
(557,1200,l),
(879,-21,l)
);
}
);
};
layerId = "D3934E74-9B53-4E98-B19F-CD3DFEE08352";
shapes = (
{
closed = 1;
nodes = (
(658,-507,o),
(830,-364,o),
(951,-21,cs),
(974,45,l),
(859,345,l),
(764,50,ls),
(640,-332,o),
(567,-415,o),
(507,-415,cs),
(413,-415,o),
(478,-207,o),
(344,-207,cs),
(281,-207,o),
(244,-256,o),
(244,-316,cs),
(244,-432,o),
(375,-507,o),
(491,-507,cs)
);
},
{
ref = N;
}
);
width = 1322;
}
);
metricLeft = N;
metricRight = N;
unicode = 330;
},
{
glyphname = O;
kernLeft = O;
kernRight = O;
layers = (
{
anchors = (
{
name = bottom;
pos = (490,0);
},
{
name = topcap;
pos = (1060,1643);
}
);
background = {
anchors = (
{
name = bottom;
pos = (490,0);
},
{
name = topcap;
pos = (1060,1643);
}
);
shapes = (
{
closed = 1;
nodes = (
(936,-21,o),
(1347,512,o),
(1347,1051,cs),
(1347,1365,o),
(1206,1544,o),
(963,1544,cs),
(551,1544,o),
(139,1005,o),
(139,466,cs),
(139,159,o),
(279,-21,o),
(519,-21,cs)
);
},
{
closed = 1;
nodes = (
(400,73,o),
(332,184,o),
(332,416,cs),
(332,925,o),
(649,1457,o),
(953,1457,cs),
(1093,1457,o),
(1162,1346,o),
(1162,1118,cs),
(1162,603,o),
(849,73,o),
(544,73,cs)
);
}
);
};
guides = (
{
angle = 68;
pos = (786,680);
},
{
pos = (1216,1265);
}
);
layerId = master01;
shapes = (
{
closed = 1;
nodes = (
(936,-21,o),
(1347,512,o),
(1347,1051,cs),
(1347,1365,o),
(1206,1544,o),
(963,1544,cs),
(551,1544,o),
(139,1005,o),
(139,466,cs),
(139,159,o),
(279,-21,o),
(519,-21,cs)
);
},
{
closed = 1;
nodes = (
(400,73,o),
(332,184,o),
(332,416,cs),
(332,925,o),
(649,1457,o),
(953,1457,cs),
(1093,1457,o),
(1162,1346,o),
(1162,1118,cs),
(1162,603,o),
(849,73,o),
(544,73,cs)
);
}
);
width = 1321;
},
{
anchors = (
{
name = bottom;
pos = (549,0);
},
{
name = topcap;
pos = (1107,1643);
}
);
background = {
anchors = (
{
name = bottom;
pos = (549,0);
},
{
name = topcap;
pos = (1107,1643);
}
);
shapes = (
{
closed = 1;
nodes = (
(1084,-21,o),
(1489,507,o),
(1489,1025,cs),
(1489,1346,o),
(1322,1544,o),
(1027,1544,cs),
(541,1544,o),
(132,1023,o),
(132,501,cs),
(132,183,o),
(292,-21,o),
(588,-21,cs)
);
},
{
closed = 1;
nodes = (
(486,88,o),
(419,200,o),
(419,421,cs),
(419,918,o),
(705,1436,o),
(1000,1436,cs),
(1134,1436,o),
(1202,1325,o),
(1202,1105,cs),
(1202,603,o),
(918,88,o),
(623,88,cs)
);
}
);
};
layerId = "D3934E74-9B53-4E98-B19F-CD3DFEE08352";
shapes = (
{
closed = 1;
nodes = (
(1084,-21,o),
(1489,507,o),
(1489,1025,cs),
(1489,1346,o),
(1322,1544,o),
(1027,1544,cs),
(541,1544,o),
(132,1023,o),
(132,501,cs),
(132,183,o),
(292,-21,o),
(588,-21,cs)
);
},
{
closed = 1;
nodes = (
(486,88,o),
(419,200,o),
(419,421,cs),
(419,918,o),
(705,1436,o),
(1000,1436,cs),
(1134,1436,o),
(1202,1325,o),
(1202,1105,cs),
(1202,603,o),
(918,88,o),
(623,88,cs)
);
}
);
width = 1455;
}
);
unicode = 79;
},
{
glyphname = Oacute;
kernLeft = O;
kernRight = O;
layers = (
{
background = {
anchors = (
{
name = bottom;
pos = (490,0);
},
{
name = topcap;
pos = (1060,1643);
}
);
shapes = (
{
closed = 1;
nodes = (
(936,-21,o),
(1347,512,o),
(1347,1051,cs),
(1347,1365,o),
(1206,1544,o),
(963,1544,cs),
(551,1544,o),
(139,1005,o),
(139,466,cs),
(139,159,o),
(279,-21,o),
(519,-21,cs)
);
},
{
closed = 1;
nodes = (
(400,73,o),
(332,184,o),
(332,416,cs),
(332,925,o),
(649,1457,o),
(953,1457,cs),
(1093,1457,o),
(1162,1346,o),
(1162,1118,cs),
(1162,603,o),
(849,73,o),
(544,73,cs)
);
},
{
closed = 1;
nodes = (
(1141,1703,ls),
(1229,1732,o),
(1255,1769,o),
(1255,1815,cs),
(1255,1864,o),
(1219,1900,o),
(1183,1900,cs),
(1156,1900,o),
(1135,1891,o),
(1110,1868,cs),
(872,1656,l),
(888,1614,l)
);
}
);
};
layerId = master01;
shapes = (
{
ref = O;
},
{
pos = (854,0);
ref = acute.cap;
scale = (0.84,1);
}
);
width = 1321;
},
{
background = {
anchors = (
{
name = bottom;
pos = (549,0);
},
{
name = topcap;
pos = (1107,1643);
}
);
shapes = (
{
closed = 1;
nodes = (
(1084,-21,o),
(1489,507,o),
(1489,1025,cs),
(1489,1346,o),
(1322,1544,o),
(1027,1544,cs),
(541,1544,o),
(132,1023,o),
(132,501,cs),
(132,183,o),
(292,-21,o),
(588,-21,cs)
);
},
{
closed = 1;
nodes = (
(486,88,o),
(419,200,o),
(419,421,cs),
(419,918,o),
(705,1436,o),
(1000,1436,cs),
(1134,1436,o),
(1202,1325,o),
(1202,1105,cs),
(1202,603,o),
(918,88,o),
(623,88,cs)
);
},
{
closed = 1;
nodes = (
(1291,1692,ls),
(1337,1702,o),
(1367,1746,o),
(1367,1803,cs),
(1367,1871,o),
(1324,1924,o),
(1267,1924,cs),
(1233,1924,o),
(1199,1903,o),
(1164,1870,cs),
(956,1674,l),
(990,1622,l)
);
}
);
};
layerId = "D3934E74-9B53-4E98-B19F-CD3DFEE08352";
shapes = (
{
ref = O;
},
{
pos = (507,0);
ref = acute.cap;
scale = (0.84,1);
}
);
width = 1455;
}
);
metricLeft = O;
metricRight = O;
unicode = 211;
},
{
glyphname = Obreve;
kernLeft = O;
kernRight = O;
layers = (
{
background = {
anchors = (
{
name = bottom;
pos = (490,0);
},
{
name = topcap;
pos = (1060,1643);
}
);
shapes = (
{
closed = 1;
nodes = (
(936,-21,o),
(1347,512,o),
(1347,1051,cs),
(1347,1365,o),
(1206,1544,o),
(963,1544,cs),
(551,1544,o),
(139,1005,o),
(139,466,cs),
(139,159,o),
(279,-21,o),
(519,-21,cs)
);
},
{
closed = 1;
nodes = (
(400,73,o),
(332,184,o),
(332,416,cs),
(332,925,o),
(649,1457,o),
(953,1457,cs),
(1093,1457,o),
(1162,1346,o),
(1162,1118,cs),
(1162,603,o),
(849,73,o),
(544,73,cs)
);
},
{
closed = 1;
nodes = (
(1130,1625,o),
(1260,1655,o),
(1397,1900,c),
(1331,1900,l),
(1262,1809,o),
(1188,1771,o),
(1115,1771,cs),
(1028,1771,o),
(986,1818,o),
(984,1900,c),
(925,1900,l),
(913,1856,o),
(910,1821,o),
(910,1789,cs),
(910,1669,o),
(982,1625,o),
(1058,1625,cs)
);
}
);
};
layerId = master01;
shapes = (
{
ref = O;
},
{
pos = (892,0);
ref = breve.cap;
scale = (0.84,1);
}
);
width = 1321;
},
{
background = {
anchors = (
{
name = bottom;
pos = (549,0);
},
{
name = topcap;
pos = (1107,1643);
}
);
shapes = (
{
closed = 1;
nodes = (
(1084,-21,o),
(1489,507,o),
(1489,1025,cs),
(1489,1346,o),
(1322,1544,o),
(1027,1544,cs),
(541,1544,o),
(132,1023,o),
(132,501,cs),
(132,183,o),
(292,-21,o),
(588,-21,cs)
);
},
{
closed = 1;
nodes = (
(486,88,o),
(419,200,o),
(419,421,cs),
(419,918,o),
(705,1436,o),
(1000,1436,cs),
(1134,1436,o),
(1202,1325,o),
(1202,1105,cs),
(1202,603,o),
(918,88,o),
(623,88,cs)
);
},
{
closed = 1;
nodes = (
(1255,1622,o),
(1389,1733,o),
(1496,1935,c),
(1409,1935,l),
(1344,1841,o),
(1269,1795,o),
(1180,1795,cs),
(1091,1795,o),
(1042,1842,o),
(1049,1935,c),
(970,1935,l),
(956,1886,o),
(951,1857,o),
(951,1823,cs),
(951,1698,o),
(1017,1622,o),
(1124,1622,cs)
);
}
);
};
layerId = "D3934E74-9B53-4E98-B19F-CD3DFEE08352";
shapes = (
{
ref = O;
},
{
pos = (453,0);
ref = breve.cap;
scale = (0.84,1);
}
);
width = 1455;
}
);
metricLeft = O;
metricRight = O;
unicode = 334;
},
{
glyphname = Ocircumflex;
kernLeft = O;
kernRight = O;
layers = (
{
background = {
anchors = (
{
name = bottom;
pos = (490,0);
},
{
name = topcap;
pos = (1060,1643);
}
);
shapes = (
{
closed = 1;
nodes = (
(936,-21,o),
(1347,512,o),
(1347,1051,cs),
(1347,1365,o),
(1206,1544,o),
(963,1544,cs),
(551,1544,o),
(139,1005,o),
(139,466,cs),
(139,159,o),
(279,-21,o),
(519,-21,cs)
);
},
{
closed = 1;
nodes = (
(400,73,o),
(332,184,o),
(332,416,cs),
(332,925,o),
(649,1457,o),
(953,1457,cs),
(1093,1457,o),
(1162,1346,o),
(1162,1118,cs),
(1162,603,o),
(849,73,o),
(544,73,cs)
);
},
{
closed = 1;
nodes = (
(1098,1757,l),
(1249,1622,l),
(1292,1656,l),
(1203,1847,ls),
(1184,1885,o),
(1168,1900,o),
(1130,1900,cs),
(1089,1900,o),
(1063,1880,o),
(1023,1847,cs),
(805,1656,l),
(824,1622,l)
);
}
);
};
layerId = master01;
shapes = (
{
ref = O;
},
{
pos = (787,0);
ref = circumflex.cap;
scale = (0.84,1);
}
);
width = 1321;
},
{
background = {
anchors = (
{
name = bottom;
pos = (549,0);
},
{
name = topcap;
pos = (1107,1643);
}
);
shapes = (
{
closed = 1;
nodes = (
(1084,-21,o),
(1489,507,o),
(1489,1025,cs),
(1489,1346,o),
(1322,1544,o),
(1027,1544,cs),
(541,1544,o),
(132,1023,o),
(132,501,cs),
(132,183,o),
(292,-21,o),
(588,-21,cs)
);
},
{
closed = 1;
nodes = (
(486,88,o),
(419,200,o),
(419,421,cs),
(419,918,o),
(705,1436,o),
(1000,1436,cs),
(1134,1436,o),
(1202,1325,o),
(1202,1105,cs),
(1202,603,o),
(918,88,o),
(623,88,cs)
);
},
{
closed = 1;
nodes = (
(1144,1747,l),
(1313,1622,l),
(1360,1659,l),
(1269,1865,ls),
(1246,1915,o),
(1224,1935,o),
(1182,1935,cs),
(1144,1935,o),
(1112,1918,o),
(1054,1865,cs),
(827,1657,l),
(848,1622,l)
);
}
);
};
layerId = "D3934E74-9B53-4E98-B19F-CD3DFEE08352";
shapes = (
{
ref = O;
},
{
pos = (383,0);
ref = circumflex.cap;
scale = (0.84,1);
}
);
width = 1455;
}
);
metricLeft = O;
metricRight = O;
unicode = 212;
},
{
glyphname = Odieresis;
kernLeft = O;
kernRight = O;
layers = (
{
background = {
anchors = (
{
name = bottom;
pos = (490,0);
},
{
name = topcap;
pos = (1060,1643);
}
);
shapes = (
{
closed = 1;
nodes = (
(936,-21,o),
(1347,512,o),
(1347,1051,cs),
(1347,1365,o),
(1206,1544,o),
(963,1544,cs),
(551,1544,o),
(139,1005,o),
(139,466,cs),
(139,159,o),
(279,-21,o),
(519,-21,cs)
);
},
{
closed = 1;
nodes = (
(400,73,o),
(332,184,o),
(332,416,cs),
(332,925,o),
(649,1457,o),
(953,1457,cs),
(1093,1457,o),
(1162,1346,o),
(1162,1118,cs),
(1162,603,o),
(849,73,o),
(544,73,cs)
);
},
{
closed = 1;
nodes = (
(1253,1680,o),
(1308,1740,o),
(1308,1802,cs),
(1308,1859,o),
(1263,1900,o),
(1214,1900,cs),
(1157,1900,o),
(1105,1845,o),
(1105,1781,cs),
(1105,1719,o),
(1141,1680,o),
(1196,1680,cs)
);
},
{
closed = 1;
nodes = (
(963,1680,o),
(1017,1740,o),
(1017,1802,cs),
(1017,1859,o),
(973,1900,o),
(923,1900,cs),
(866,1900,o),
(816,1845,o),
(816,1781,cs),
(816,1719,o),
(850,1680,o),
(906,1680,cs)
);
}
);
};
layerId = master01;
shapes = (
{
ref = O;
},
{
pos = (798,0);
ref = dieresis.cap;
scale = (0.84,1);
}
);
width = 1321;
},
{
background = {
anchors = (
{
name = bottom;
pos = (549,0);
},
{
name = topcap;
pos = (1107,1643);
}
);
shapes = (
{
closed = 1;
nodes = (
(1084,-21,o),
(1489,507,o),
(1489,1025,cs),
(1489,1346,o),
(1322,1544,o),
(1027,1544,cs),
(541,1544,o),
(132,1023,o),
(132,501,cs),
(132,183,o),
(292,-21,o),
(588,-21,cs)
);
},
{
closed = 1;
nodes = (
(486,88,o),
(419,200,o),
(419,421,cs),
(419,918,o),
(705,1436,o),
(1000,1436,cs),
(1134,1436,o),
(1202,1325,o),
(1202,1105,cs),
(1202,603,o),
(918,88,o),
(623,88,cs)
);
},
{
closed = 1;
nodes = (
(1377,1680,o),
(1438,1749,o),
(1438,1822,cs),
(1438,1886,o),
(1388,1933,o),
(1331,1933,cs),
(1266,1933,o),
(1207,1870,o),
(1207,1795,cs),
(1207,1727,o),
(1247,1680,o),
(1312,1680,cs)
);
},
{
closed = 1;
nodes = (
(1045,1680,o),
(1107,1749,o),
(1107,1822,cs),
(1107,1886,o),
(1056,1933,o),
(999,1933,cs),
(935,1933,o),
(876,1870,o),
(876,1795,cs),
(876,1727,o),
(916,1680,o),
(980,1680,cs)
);
}
);
};
layerId = "D3934E74-9B53-4E98-B19F-CD3DFEE08352";
shapes = (
{
ref = O;
},
{
pos = (375,0);
ref = dieresis.cap;
scale = (0.84,1);
}
);
width = 1455;
}
);
metricLeft = O;
metricRight = O;
unicode = 214;
},
{
glyphname = Odotbelow;
kernLeft = O;
kernRight = O;
layers = (
{
background = {
anchors = (
{
name = bottom;
pos = (490,0);
},
{
name = topcap;
pos = (1060,1643);
}
);
shapes = (
{
closed = 1;
nodes = (
(936,-21,o),
(1347,512,o),
(1347,1051,cs),
(1347,1365,o),
(1206,1544,o),
(963,1544,cs),
(551,1544,o),
(139,1005,o),
(139,466,cs),
(139,159,o),
(279,-21,o),
(519,-21,cs)
);
},
{
closed = 1;
nodes = (
(400,73,o),
(332,184,o),
(332,416,cs),
(332,925,o),
(649,1457,o),
(953,1457,cs),
(1093,1457,o),
(1162,1346,o),
(1162,1118,cs),
(1162,603,o),
(849,73,o),
(544,73,cs)
);
},
{
closed = 1;
nodes = (
(455,-507,o),
(516,-440,o),
(516,-367,cs),
(516,-307,o),
(466,-260,o),
(411,-260,cs),
(347,-260,o),
(290,-320,o),
(290,-394,cs),
(290,-461,o),
(329,-507,o),
(392,-507,cs)
);
}
);
};
layerId = master01;
shapes = (
{
ref = O;
},
{
pos = (272,0);
ref = dotbelow;
}
);
width = 1321;
},
{
background = {
anchors = (
{
name = bottom;
pos = (549,0);
},
{
name = topcap;
pos = (1107,1643);
}
);
shapes = (
{
closed = 1;
nodes = (
(1084,-21,o),
(1489,507,o),
(1489,1025,cs),
(1489,1346,o),
(1322,1544,o),
(1027,1544,cs),
(541,1544,o),
(132,1023,o),
(132,501,cs),
(132,183,o),
(292,-21,o),
(588,-21,cs)
);
},
{
closed = 1;
nodes = (
(486,88,o),
(419,200,o),
(419,421,cs),
(419,918,o),
(705,1436,o),
(1000,1436,cs),
(1134,1436,o),
(1202,1325,o),
(1202,1105,cs),
(1202,603,o),
(918,88,o),
(623,88,cs)
);
},
{
closed = 1;
nodes = (
(512,-426,o),
(580,-351,o),
(580,-269,cs),
(580,-199,o),
(525,-147,o),
(461,-147,cs),
(390,-147,o),
(326,-216,o),
(326,-298,cs),
(326,-374,o),
(369,-426,o),
(440,-426,cs)
);
}
);
};
layerId = "D3934E74-9B53-4E98-B19F-CD3DFEE08352";
shapes = (
{
ref = O;
},
{
pos = (555,0);
ref = dotbelow;
}
);
width = 1455;
}
);
metricLeft = O;
metricRight = O;
unicode = 7884;
},
{
glyphname = Ograve;
kernLeft = O;
kernRight = O;
layers = (
{
background = {
anchors = (
{
name = bottom;
pos = (490,0);
},
{
name = topcap;
pos = (1060,1643);
}
);
shapes = (
{
closed = 1;
nodes = (
(936,-21,o),
(1347,512,o),
(1347,1051,cs),
(1347,1365,o),
(1206,1544,o),
(963,1544,cs),
(551,1544,o),
(139,1005,o),
(139,466,cs),
(139,159,o),
(279,-21,o),
(519,-21,cs)
);
},
{
closed = 1;
nodes = (
(400,73,o),
(332,184,o),
(332,416,cs),
(332,925,o),
(649,1457,o),
(953,1457,cs),
(1093,1457,o),
(1162,1346,o),
(1162,1118,cs),
(1162,603,o),
(849,73,o),
(544,73,cs)
);
},
{
closed = 1;
nodes = (
(1226,1656,l),
(1052,1837,ls),
(1014,1876,o),
(987,1900,o),
(949,1900,cs),
(898,1900,o),
(866,1862,o),
(866,1804,cs),
(866,1757,o),
(886,1721,o),
(926,1708,cs),
(1193,1614,l)
);
}
);
};
layerId = master01;
shapes = (
{
ref = O;
},
{
pos = (848,0);
ref = grave.cap;
scale = (0.84,1);
}
);
width = 1321;
},
{
background = {
anchors = (
{
name = bottom;
pos = (549,0);
},
{
name = topcap;
pos = (1107,1643);
}
);
shapes = (
{
closed = 1;
nodes = (
(1084,-21,o),
(1489,507,o),
(1489,1025,cs),
(1489,1346,o),
(1322,1544,o),
(1027,1544,cs),
(541,1544,o),
(132,1023,o),
(132,501,cs),
(132,183,o),
(292,-21,o),
(588,-21,cs)
);
},
{
closed = 1;
nodes = (
(486,88,o),
(419,200,o),
(419,421,cs),
(419,918,o),
(705,1436,o),
(1000,1436,cs),
(1134,1436,o),
(1202,1325,o),
(1202,1105,cs),
(1202,603,o),
(918,88,o),
(623,88,cs)
);
},
{
closed = 1;
nodes = (
(1344,1674,l),
(1156,1870,ls),
(1122,1906,o),
(1087,1924,o),
(1054,1924,cs),
(996,1924,o),
(953,1871,o),
(953,1803,cs),
(953,1746,o),
(983,1703,o),
(1029,1692,cs),
(1311,1622,l)
);
}
);
};
layerId = "D3934E74-9B53-4E98-B19F-CD3DFEE08352";
shapes = (
{
ref = O;
},
{
pos = (449,0);
ref = grave.cap;
scale = (0.84,1);
}
);
width = 1455;
}
);
metricLeft = O;
metricRight = O;
unicode = 210;
},
{
glyphname = Ohungarumlaut;
kernLeft = O;
kernRight = O;
layers = (
{
background = {
anchors = (
{
name = bottom;
pos = (490,0);
},
{
name = topcap;
pos = (1060,1643);
}
);
shapes = (
{
closed = 1;
nodes = (
(936,-21,o),
(1347,512,o),
(1347,1051,cs),
(1347,1365,o),
(1206,1544,o),
(963,1544,cs),
(551,1544,o),
(139,1005,o),
(139,466,cs),
(139,159,o),
(279,-21,o),
(519,-21,cs)
);
},
{
closed = 1;
nodes = (
(400,73,o),
(332,184,o),
(332,416,cs),
(332,925,o),
(649,1457,o),
(953,1457,cs),
(1093,1457,o),
(1162,1346,o),
(1162,1118,cs),
(1162,603,o),
(849,73,o),
(544,73,cs)
);
},
{
closed = 1;
nodes = (
(1033,1710,ls),
(1122,1738,o),
(1148,1777,o),
(1148,1823,cs),
(1148,1870,o),
(1114,1909,o),
(1075,1909,cs),
(1050,1909,o),
(1027,1895,o),
(1004,1876,cs),
(764,1669,l),
(779,1627,l)
);
},
{
closed = 1;
nodes = (
(1363,1708,ls),
(1451,1736,o),
(1478,1773,o),
(1478,1817,cs),
(1478,1868,o),
(1444,1908,o),
(1406,1908,cs),
(1380,1908,o),
(1358,1894,o),
(1334,1875,cs),
(1093,1666,l),
(1110,1625,l)
);
}
);
};
layerId = master01;
shapes = (
{
ref = O;
},
{
pos = (746,0);
ref = hungarumlaut.cap;
scale = (0.84,1);
}
);
width = 1321;
},
{
background = {
anchors = (
{
name = bottom;
pos = (549,0);
},
{
name = topcap;
pos = (1107,1643);
}
);
shapes = (
{
closed = 1;
nodes = (
(1084,-21,o),
(1489,507,o),
(1489,1025,cs),
(1489,1346,o),
(1322,1544,o),
(1027,1544,cs),
(541,1544,o),
(132,1023,o),
(132,501,cs),
(132,183,o),
(292,-21,o),
(588,-21,cs)
);
},
{
closed = 1;
nodes = (
(486,88,o),
(419,200,o),
(419,421,cs),
(419,918,o),
(705,1436,o),
(1000,1436,cs),
(1134,1436,o),
(1202,1325,o),
(1202,1105,cs),
(1202,603,o),
(918,88,o),
(623,88,cs)
);
},
{
closed = 1;
nodes = (
(1096,1716,ls),
(1142,1731,o),
(1173,1770,o),
(1173,1827,cs),
(1173,1895,o),
(1130,1937,o),
(1073,1937,cs),
(1038,1937,o),
(1002,1920,o),
(969,1883,cs),
(782,1675,l),
(815,1624,l)
);
},
{
closed = 1;
nodes = (
(1473,1715,ls),
(1520,1730,o),
(1550,1769,o),
(1550,1826,cs),
(1550,1894,o),
(1507,1936,o),
(1450,1936,cs),
(1415,1936,o),
(1379,1918,o),
(1347,1882,cs),
(1159,1674,l),
(1192,1622,l)
);
}
);
};
layerId = "D3934E74-9B53-4E98-B19F-CD3DFEE08352";
shapes = (
{
ref = O;
},
{
pos = (331,0);
ref = hungarumlaut.cap;
scale = (0.84,1);
}
);
width = 1455;
}
);
metricLeft = O;
metricRight = O;
unicode = 336;
},
{
glyphname = Omacron;
kernLeft = O;
kernRight = O;
layers = (
{
background = {
anchors = (
{
name = bottom;
pos = (490,0);
},
{
name = topcap;
pos = (1060,1643);
}
);
shapes = (
{
closed = 1;
nodes = (
(936,-21,o),
(1347,512,o),
(1347,1051,cs),
(1347,1365,o),
(1206,1544,o),
(963,1544,cs),
(551,1544,o),
(139,1005,o),
(139,466,cs),
(139,159,o),
(279,-21,o),
(519,-21,cs)
);
},
{
closed = 1;
nodes = (
(400,73,o),
(332,184,o),
(332,416,cs),
(332,925,o),
(649,1457,o),
(953,1457,cs),
(1093,1457,o),
(1162,1346,o),
(1162,1118,cs),
(1162,603,o),
(849,73,o),
(544,73,cs)
);
},
{
closed = 1;
nodes = (
(1335,1696,l),
(1384,1837,l),
(906,1837,l),
(861,1696,l)
);
}
);
};
layerId = master01;
shapes = (
{
ref = O;
},
{
pos = (843,0);
ref = macron.cap;
scale = (0.84,1);
}
);
width = 1321;
},
{
background = {
anchors = (
{
name = bottom;
pos = (549,0);
},
{
name = topcap;
pos = (1107,1643);
}
);
shapes = (
{
closed = 1;
nodes = (
(1084,-21,o),
(1489,507,o),
(1489,1025,cs),
(1489,1346,o),
(1322,1544,o),
(1027,1544,cs),
(541,1544,o),
(132,1023,o),
(132,501,cs),
(132,183,o),
(292,-21,o),
(588,-21,cs)
);
},
{
closed = 1;
nodes = (
(486,88,o),
(419,200,o),
(419,421,cs),
(419,918,o),
(705,1436,o),
(1000,1436,cs),
(1134,1436,o),
(1202,1325,o),
(1202,1105,cs),
(1202,603,o),
(918,88,o),
(623,88,cs)
);
},
{
closed = 1;
nodes = (
(1389,1674,l),
(1455,1865,l),
(901,1865,l),
(833,1674,l)
);
}
);
};
layerId = "D3934E74-9B53-4E98-B19F-CD3DFEE08352";
shapes = (
{
ref = O;
},
{
pos = (384,0);
ref = macron.cap;
scale = (0.84,1);
}
);
width = 1455;
}
);
metricLeft = O;
metricRight = O;
unicode = 332;
},
{
glyphname = Oogonek;
kernLeft = O;
kernRight = O;
layers = (
{
background = {
anchors = (
{
name = bottom;
pos = (490,0);
},
{
name = topcap;
pos = (1060,1643);
}
);
shapes = (
{
closed = 1;
nodes = (
(936,-21,o),
(1347,512,o),
(1347,1051,cs),
(1347,1365,o),
(1206,1544,o),
(963,1544,cs),
(551,1544,o),
(139,1005,o),
(139,466,cs),
(139,159,o),
(279,-21,o),
(519,-21,cs)
);
},
{
closed = 1;
nodes = (
(400,73,o),
(332,184,o),
(332,416,cs),
(332,925,o),
(649,1457,o),
(953,1457,cs),
(1093,1457,o),
(1162,1346,o),
(1162,1118,cs),
(1162,603,o),
(849,73,o),
(544,73,cs)
);
},
{
closed = 1;
nodes = (
(400,-507,o),
(478,-466,o),
(553,-392,c,{
name = hr00;
}),
(544,-357,l),
(493,-388,o),
(466,-398,o),
(436,-398,cs),
(394,-398,o),
(375,-380,o),
(375,-341,cs),
(375,-258,o),
(464,-127,o),
(599,0,c),
(536,0,l),
(348,-117,o),
(215,-281,o),
(215,-404,cs),
(215,-471,o),
(254,-507,o),
(326,-507,cs)
);
}
);
};
layerId = master01;
shapes = (
{
ref = O;
},
{
alignment = -1;
pos = (197,0);
ref = ogonek;
scale = (0.84,1);
}
);
width = 1321;
},
{
background = {
anchors = (
{
name = bottom;
pos = (549,0);
},
{
name = topcap;
pos = (1107,1643);
}
);
shapes = (
{
closed = 1;
nodes = (
(1084,-21,o),
(1489,507,o),
(1489,1025,cs),
(1489,1346,o),
(1322,1544,o),
(1027,1544,cs),
(541,1544,o),
(132,1023,o),
(132,501,cs),
(132,183,o),
(292,-21,o),
(588,-21,cs)
);
},
{
closed = 1;
nodes = (
(486,88,o),
(419,200,o),
(419,421,cs),
(419,918,o),
(705,1436,o),
(1000,1436,cs),
(1134,1436,o),
(1202,1325,o),
(1202,1105,cs),
(1202,603,o),
(918,88,o),
(623,88,cs)
);
},
{
closed = 1;
nodes = (
(542,-507,o),
(635,-459,o),
(726,-368,c,{
name = hr00;
}),
(717,-321,l),
(663,-354,o),
(631,-365,o),
(600,-365,cs),
(549,-365,o),
(524,-334,o),
(524,-289,cs),
(524,-208,o),
(606,-97,o),
(757,0,c),
(661,0,l),
(413,-117,o),
(320,-258,o),
(320,-364,cs),
(320,-444,o),
(374,-507,o),
(464,-507,cs)
);
}
);
};
layerId = "D3934E74-9B53-4E98-B19F-CD3DFEE08352";
shapes = (
{
ref = O;
},
{
alignment = -1;
pos = (606,0);
ref = ogonek;
scale = (0.84,1);
}
);
width = 1455;
}
);
metricLeft = O;
metricRight = O;
unicode = 490;
},
{
glyphname = Oslash;
kernLeft = O;
kernRight = O;
layers = (
{
background = {
anchors = (
{
name = bottom;
pos = (490,0);
},
{
name = topcap;
pos = (1060,1643);
}
);
shapes = (
{
closed = 1;
nodes = (
(175,-295,l),
(1402,1759,l),
(1310,1759,l),
(87,-295,l)
);
},
{
closed = 1;
nodes = (
(936,-21,o),
(1347,512,o),
(1347,1051,cs),
(1347,1365,o),
(1206,1544,o),
(963,1544,cs),
(551,1544,o),
(139,1005,o),
(139,466,cs),
(139,159,o),
(279,-21,o),
(519,-21,cs)
);
},
{
closed = 1;
nodes = (
(400,73,o),
(332,184,o),
(332,416,cs),
(332,925,o),
(649,1457,o),
(953,1457,cs),
(1093,1457,o),
(1162,1346,o),
(1162,1118,cs),
(1162,603,o),
(849,73,o),
(544,73,cs)
);
}
);
};
layerId = master01;
shapes = (
{
closed = 1;
nodes = (
(175,-295,l),
(1402,1759,l),
(1310,1759,l),
(87,-295,l)
);
},
{
ref = O;
}
);
width = 1321;
},
{
background = {
anchors = (
{
name = bottom;
pos = (549,0);
},
{
name = topcap;
pos = (1107,1643);
}
);
shapes = (
{
closed = 1;
nodes = (
(234,-295,l),
(1460,1759,l),
(1339,1759,l),
(116,-295,l)
);
},
{
closed = 1;
nodes = (
(1084,-21,o),
(1489,507,o),
(1489,1025,cs),
(1489,1346,o),
(1322,1544,o),
(1027,1544,cs),
(541,1544,o),
(132,1023,o),
(132,501,cs),
(132,183,o),
(292,-21,o),
(588,-21,cs)
);
},
{
closed = 1;
nodes = (
(486,88,o),
(419,200,o),
(419,421,cs),
(419,918,o),
(705,1436,o),
(1000,1436,cs),
(1134,1436,o),
(1202,1325,o),
(1202,1105,cs),
(1202,603,o),
(918,88,o),
(623,88,cs)
);
}
);
};
layerId = "D3934E74-9B53-4E98-B19F-CD3DFEE08352";
shapes = (
{
closed = 1;
nodes = (
(234,-295,l),
(1460,1759,l),
(1339,1759,l),
(116,-295,l)
);
},
{
ref = O;
}
);
width = 1455;
}
);
metricLeft = O;
metricRight = O;
unicode = 216;
},
{
glyphname = Oslashacute;
kernLeft = O;
kernRight = O;
layers = (
{
background = {
anchors = (
{
name = bottom;
pos = (490,0);
},
{
name = topcap;
pos = (1060,1643);
}
);
shapes = (
{
closed = 1;
nodes = (
(175,-295,l),
(1402,1759,l),
(1310,1759,l),
(87,-295,l)
);
},
{
closed = 1;
nodes = (
(1126,1703,ls),
(1214,1732,o),
(1240,1769,o),
(1240,1815,cs),
(1240,1864,o),
(1205,1900,o),
(1168,1900,cs),
(1142,1900,o),
(1121,1890,o),
(1096,1868,cs),
(856,1656,l),
(874,1614,l)
);
},
{
closed = 1;
nodes = (
(936,-21,o),
(1347,512,o),
(1347,1051,cs),
(1347,1365,o),
(1206,1544,o),
(963,1544,cs),
(551,1544,o),
(139,1005,o),
(139,466,cs),
(139,159,o),
(279,-21,o),
(519,-21,cs)
);
},
{
closed = 1;
nodes = (
(400,73,o),
(332,184,o),
(332,416,cs),
(332,925,o),
(649,1457,o),
(953,1457,cs),
(1093,1457,o),
(1162,1346,o),
(1162,1118,cs),
(1162,603,o),
(849,73,o),
(544,73,cs)
);
}
);
};
layerId = master01;
shapes = (
{
closed = 1;
nodes = (
(175,-295,l),
(1402,1759,l),
(1310,1759,l),
(87,-295,l)
);
},
{
closed = 1;
nodes = (
(1126,1703,ls),
(1214,1732,o),
(1240,1769,o),
(1240,1815,cs),
(1240,1864,o),
(1205,1900,o),
(1168,1900,cs),
(1142,1900,o),
(1121,1890,o),
(1096,1868,cs),
(856,1656,l),
(874,1614,l)
);
},
{
ref = O;
}
);
width = 1321;
},
{
background = {
anchors = (
{
name = bottom;
pos = (549,0);
},
{
name = topcap;
pos = (1107,1643);
}
);
shapes = (
{
closed = 1;
nodes = (
(234,-295,l),
(1460,1759,l),
(1339,1759,l),
(116,-295,l)
);
},
{
closed = 1;
nodes = (
(1168,1692,ls),
(1215,1702,o),
(1245,1746,o),
(1245,1803,cs),
(1245,1871,o),
(1202,1924,o),
(1145,1924,cs),
(1110,1924,o),
(1078,1903,o),
(1042,1870,cs),
(835,1674,l),
(868,1622,l)
);
},
{
closed = 1;
nodes = (
(1084,-21,o),
(1489,507,o),
(1489,1025,cs),
(1489,1346,o),
(1322,1544,o),
(1027,1544,cs),
(541,1544,o),
(132,1023,o),
(132,501,cs),
(132,183,o),
(292,-21,o),
(588,-21,cs)
);
},
{
closed = 1;
nodes = (
(486,88,o),
(419,200,o),
(419,421,cs),
(419,918,o),
(705,1436,o),
(1000,1436,cs),
(1134,1436,o),
(1202,1325,o),
(1202,1105,cs),
(1202,603,o),
(918,88,o),
(623,88,cs)
);
}
);
};
layerId = "D3934E74-9B53-4E98-B19F-CD3DFEE08352";
shapes = (
{
closed = 1;
nodes = (
(234,-295,l),
(1460,1759,l),
(1339,1759,l),
(116,-295,l)
);
},
{
closed = 1;
nodes = (
(1168,1692,ls),
(1215,1702,o),
(1245,1746,o),
(1245,1803,cs),
(1245,1871,o),
(1202,1924,o),
(1145,1924,cs),
(1110,1924,o),
(1078,1903,o),
(1042,1870,cs),
(835,1674,l),
(868,1622,l)
);
},
{
ref = O;
}
);
width = 1455;
}
);
metricLeft = O;
metricRight = O;
unicode = 510;
},
{
glyphname = Otilde;
kernLeft = O;
kernRight = O;
layers = (
{
background = {
anchors = (
{
name = bottom;
pos = (490,0);
},
{
name = topcap;
pos = (1060,1643);
}
);
shapes = (
{
closed = 1;
nodes = (
(936,-21,o),
(1347,512,o),
(1347,1051,cs),
(1347,1365,o),
(1206,1544,o),
(963,1544,cs),
(551,1544,o),
(139,1005,o),
(139,466,cs),
(139,159,o),
(279,-21,o),
(519,-21,cs)
);
},
{
closed = 1;
nodes = (
(400,73,o),
(332,184,o),
(332,416,cs),
(332,925,o),
(649,1457,o),
(953,1457,cs),
(1093,1457,o),
(1162,1346,o),
(1162,1118,cs),
(1162,603,o),
(849,73,o),
(544,73,cs)
);
},
{
closed = 1;
nodes = (
(1220,1654,o),
(1305,1750,o),
(1342,1886,c),
(1303,1886,l),
(1281,1837,o),
(1247,1810,o),
(1200,1810,cs),
(1126,1810,o),
(1047,1880,o),
(971,1880,cs),
(890,1880,o),
(805,1787,o),
(774,1655,c),
(808,1655,l),
(826,1703,o),
(864,1730,o),
(911,1730,cs),
(990,1730,o),
(1060,1654,o),
(1139,1654,cs)
);
}
);
};
layerId = master01;
shapes = (
{
alignment = -1;
ref = O;
},
{
alignment = -1;
pos = (756,0);
ref = tilde.cap;
scale = (0.84,1);
}
);
width = 1321;
},
{
background = {
anchors = (
{
name = bottom;
pos = (549,0);
},
{
name = topcap;
pos = (1107,1643);
}
);
shapes = (
{
closed = 1;
nodes = (
(1084,-21,o),
(1489,507,o),
(1489,1025,cs),
(1489,1346,o),
(1322,1544,o),
(1027,1544,cs),
(541,1544,o),
(132,1023,o),
(132,501,cs),
(132,183,o),
(292,-21,o),
(588,-21,cs)
);
},
{
closed = 1;
nodes = (
(486,88,o),
(419,200,o),
(419,421,cs),
(419,918,o),
(705,1436,o),
(1000,1436,cs),
(1134,1436,o),
(1202,1325,o),
(1202,1105,cs),
(1202,603,o),
(918,88,o),
(623,88,cs)
);
},
{
closed = 1;
nodes = (
(1369,1631,o),
(1471,1748,o),
(1517,1910,c),
(1450,1910,l),
(1424,1852,o),
(1383,1821,o),
(1328,1821,cs),
(1238,1821,o),
(1182,1903,o),
(1086,1903,cs),
(973,1903,o),
(872,1792,o),
(834,1633,c),
(895,1633,l),
(917,1689,o),
(962,1723,o),
(1019,1723,cs),
(1113,1723,o),
(1158,1631,o),
(1258,1631,cs)
);
}
);
};
layerId = "D3934E74-9B53-4E98-B19F-CD3DFEE08352";
shapes = (
{
ref = O;
},
{
pos = (396,0);
ref = tilde.cap;
scale = (0.84,1);
}
);
width = 1455;
}
);
metricLeft = O;
metricRight = O;
unicode = 213;
},
{
glyphname = OE;
kernLeft = O;
kernRight = E;
layers = (
{
background = {
shapes = (
{
closed = 1;
nodes = (
(601,-21,o),
(655,-14,o),
(710,0,c),
(1596,0,l),
(1747,456,l),
(1698,456,l),
(1630,320,o),
(1554,196,o),
(1471,78,c),
(934,78,l),
(1169,763,l),
(1460,763,l),
(1456,664,o),
(1447,592,o),
(1431,526,c),
(1480,526,l),
(1667,1069,l),
(1620,1069,l),
(1581,994,o),
(1534,919,o),
(1480,843,c),
(1200,843,l),
(1406,1445,l),
(1782,1445,l),
(1825,1352,o),
(1856,1241,o),
(1878,1088,c),
(1924,1088,l),
(1910,1523,l),
(1185,1523,l),
(1142,1536,o),
(1095,1544,o),
(1039,1544,cs),
(576,1544,o),
(138,1021,o),
(138,471,cs),
(138,161,o),
(289,-21,o),
(550,-21,cs)
);
},
{
closed = 1;
nodes = (
(408,73,o),
(331,185,o),
(331,419,cs),
(331,925,o),
(666,1457,o),
(985,1457,cs),
(1080,1457,o),
(1145,1419,o),
(1187,1341,c),
(738,128,l),
(690,91,o),
(636,73,o),
(572,73,cs)
);
}
);
};
layerId = master01;
shapes = (
{
closed = 1;
nodes = (
(601,-21,o),
(655,-14,o),
(710,0,c),
(1596,0,l),
(1747,456,l),
(1698,456,l),
(1630,320,o),
(1554,196,o),
(1471,78,c),
(934,78,l),
(1169,763,l),
(1460,763,l),
(1456,664,o),
(1447,592,o),
(1431,526,c),
(1480,526,l),
(1667,1069,l),
(1620,1069,l),
(1581,994,o),
(1534,919,o),
(1480,843,c),
(1200,843,l),
(1406,1445,l),
(1782,1445,l),
(1825,1352,o),
(1856,1241,o),
(1878,1088,c),
(1924,1088,l),
(1910,1523,l),
(1185,1523,l),
(1142,1536,o),
(1095,1544,o),
(1039,1544,cs),
(576,1544,o),
(138,1021,o),
(138,471,cs),
(138,161,o),
(289,-21,o),
(550,-21,cs)
);
},
{
closed = 1;
nodes = (
(408,73,o),
(331,185,o),
(331,419,cs),
(331,925,o),
(666,1457,o),
(985,1457,cs),
(1080,1457,o),
(1145,1419,o),
(1187,1341,c),
(738,128,l),
(690,91,o),
(636,73,o),
(572,73,cs)
);
}
);
width = 1867;
},
{
background = {
shapes = (
{
closed = 1;
nodes = (
(650,-21,o),
(707,-14,o),
(762,0,c),
(1650,0,l),
(1805,463,l),
(1747,463,l),
(1681,341,o),
(1605,229,o),
(1504,104,c),
(1047,104,l),
(1274,754,l),
(1454,754,l),
(1461,677,o),
(1458,575,o),
(1451,510,c),
(1521,510,l),
(1707,1043,l),
(1637,1043,l),
(1605,994,o),
(1547,920,o),
(1481,857,c),
(1310,857,l),
(1507,1420,l),
(1790,1420,l),
(1841,1330,o),
(1884,1225,o),
(1921,1088,c),
(1979,1088,l),
(1965,1523,l),
(1185,1523,l),
(1138,1537,o),
(1087,1544,o),
(1031,1544,cs),
(544,1544,o),
(136,1023,o),
(136,524,cs),
(136,183,o),
(296,-21,o),
(592,-21,cs)
);
},
{
closed = 1;
nodes = (
(490,88,o),
(420,200,o),
(420,421,cs),
(420,918,o),
(709,1436,o),
(1004,1436,cs),
(1090,1436,o),
(1150,1390,o),
(1181,1298,c),
(796,195,l),
(749,127,o),
(683,88,o),
(612,88,cs)
);
}
);
};
layerId = "D3934E74-9B53-4E98-B19F-CD3DFEE08352";
shapes = (
{
closed = 1;
nodes = (
(650,-21,o),
(707,-14,o),
(762,0,c),
(1650,0,l),
(1805,463,l),
(1747,463,l),
(1681,341,o),
(1605,229,o),
(1504,104,c),
(1047,104,l),
(1274,754,l),
(1454,754,l),
(1461,677,o),
(1458,575,o),
(1451,510,c),
(1521,510,l),
(1707,1043,l),
(1637,1043,l),
(1605,994,o),
(1547,920,o),
(1481,857,c),
(1310,857,l),
(1507,1420,l),
(1790,1420,l),
(1841,1330,o),
(1884,1225,o),
(1921,1088,c),
(1979,1088,l),
(1965,1523,l),
(1185,1523,l),
(1138,1537,o),
(1087,1544,o),
(1031,1544,cs),
(544,1544,o),
(136,1023,o),
(136,524,cs),
(136,183,o),
(296,-21,o),
(592,-21,cs)
);
},
{
closed = 1;
nodes = (
(490,88,o),
(420,200,o),
(420,421,cs),
(420,918,o),
(709,1436,o),
(1004,1436,cs),
(1090,1436,o),
(1150,1390,o),
(1181,1298,c),
(796,195,l),
(749,127,o),
(683,88,o),
(612,88,cs)
);
}
);
width = 1911;
}
);
metricLeft = O;
metricRight = E;
unicode = 338;
},
{
glyphname = P;
kernLeft = I;
kernRight = P;
layers = (
{
background = {
shapes = (
{
closed = 1;
nodes = (
(419,0,l),
(434,45,l),
(237,83,l),
(439,675,l),
(603,675,ls),
(958,675,o),
(1196,875,o),
(1196,1176,cs),
(1196,1396,o),
(1056,1523,o),
(814,1523,cs),
(415,1523,l),
(400,1479,l),
(529,1441,l),
(54,83,l),
(-93,45,l),
(-108,0,l)
);
},
{
closed = 1;
nodes = (
(712,1443,l),
(814,1443,ls),
(950,1443,o),
(1024,1358,o),
(1024,1203,cs),
(1024,960,o),
(846,762,o),
(625,762,cs),
(471,762,l)
);
}
);
};
layerId = master01;
shapes = (
{
closed = 1;
nodes = (
(419,0,l),
(434,45,l),
(237,83,l),
(439,675,l),
(603,675,ls),
(958,675,o),
(1196,875,o),
(1196,1176,cs),
(1196,1396,o),
(1056,1523,o),
(814,1523,cs),
(415,1523,l),
(400,1479,l),
(529,1441,l),
(54,83,l),
(-93,45,l),
(-108,0,l)
);
},
{
closed = 1;
nodes = (
(712,1443,l),
(814,1443,ls),
(950,1443,o),
(1024,1358,o),
(1024,1203,cs),
(1024,960,o),
(846,762,o),
(625,762,cs),
(471,762,l)
);
}
);
width = 1086;
},
{
background = {
shapes = (
{
closed = 1;
nodes = (
(493,0,l),
(517,68,l),
(339,106,l),
(537,676,l),
(689,676,ls),
(1068,676,o),
(1273,894,o),
(1273,1173,cs),
(1273,1393,o),
(1157,1523,o),
(859,1523,cs),
(407,1523,l),
(383,1455,l),
(522,1416,l),
(66,106,l),
(-84,68,l),
(-108,0,l)
);
},
{
closed = 1;
nodes = (
(796,1420,l),
(825,1420,ls),
(940,1420,o),
(1002,1335,o),
(1002,1183,cs),
(1002,965,o),
(863,780,o),
(673,780,cs),
(573,780,l)
);
}
);
};
layerId = "D3934E74-9B53-4E98-B19F-CD3DFEE08352";
shapes = (
{
closed = 1;
nodes = (
(493,0,l),
(517,68,l),
(339,106,l),
(537,676,l),
(689,676,ls),
(1068,676,o),
(1273,894,o),
(1273,1173,cs),
(1273,1393,o),
(1157,1523,o),
(859,1523,cs),
(407,1523,l),
(383,1455,l),
(522,1416,l),
(66,106,l),
(-84,68,l),
(-108,0,l)
);
},
{
closed = 1;
nodes = (
(796,1420,l),
(825,1420,ls),
(940,1420,o),
(1002,1335,o),
(1002,1183,cs),
(1002,965,o),
(863,780,o),
(673,780,cs),
(573,780,l)
);
}
);
width = 1155;
}
);
metricLeft = I;
unicode = 80;
},
{
glyphname = Thorn;
kernLeft = Thorn;
kernRight = Thorn;
layers = (
{
background = {
shapes = (
{
closed = 1;
nodes = (
(479,0,l),
(496,45,l),
(299,83,l),
(387,330,l),
(551,330,ls),
(905,330,o),
(1143,531,o),
(1143,831,cs),
(1143,1051,o),
(1002,1179,o),
(762,1179,cs),
(688,1179,l),
(781,1441,l),
(926,1479,l),
(942,1523,l),
(417,1523,l),
(400,1479,l),
(599,1441,l),
(116,83,l),
(-31,45,l),
(-45,0,l)
);
},
{
closed = 1;
nodes = (
(660,1099,l),
(762,1099,ls),
(898,1099,o),
(970,1013,o),
(970,859,cs),
(970,615,o),
(793,417,o),
(573,417,cs),
(419,417,l)
);
}
);
};
layerId = master01;
shapes = (
{
closed = 1;
nodes = (
(479,0,l),
(496,45,l),
(299,83,l),
(387,330,l),
(551,330,ls),
(905,330,o),
(1143,531,o),
(1143,831,cs),
(1143,1051,o),
(1002,1179,o),
(762,1179,cs),
(688,1179,l),
(781,1441,l),
(926,1479,l),
(942,1523,l),
(417,1523,l),
(400,1479,l),
(599,1441,l),
(116,83,l),
(-31,45,l),
(-45,0,l)
);
},
{
closed = 1;
nodes = (
(660,1099,l),
(762,1099,ls),
(898,1099,o),
(970,1013,o),
(970,859,cs),
(970,615,o),
(793,417,o),
(573,417,cs),
(419,417,l)
);
}
);
width = 1164;
},
{
background = {
shapes = (
{
closed = 1;
nodes = (
(533,0,l),
(557,68,l),
(378,106,l),
(453,319,l),
(657,319,ls),
(1021,319,o),
(1241,524,o),
(1241,828,cs),
(1241,1066,o),
(1116,1189,o),
(827,1189,cs),
(755,1189,l),
(835,1416,l),
(984,1455,l),
(1009,1523,l),
(407,1523,l),
(383,1455,l),
(562,1416,l),
(106,106,l),
(-45,68,l),
(-69,0,l)
);
},
{
closed = 1;
nodes = (
(720,1086,l),
(793,1086,ls),
(911,1086,o),
(970,998,o),
(970,841,cs),
(970,605,o),
(828,423,o),
(641,423,cs),
(489,423,l)
);
}
);
};
layerId = "D3934E74-9B53-4E98-B19F-CD3DFEE08352";
shapes = (
{
closed = 1;
nodes = (
(533,0,l),
(557,68,l),
(378,106,l),
(453,319,l),
(657,319,ls),
(1021,319,o),
(1241,524,o),
(1241,828,cs),
(1241,1066,o),
(1116,1189,o),
(827,1189,cs),
(755,1189,l),
(835,1416,l),
(984,1455,l),
(1009,1523,l),
(407,1523,l),
(383,1455,l),
(562,1416,l),
(106,106,l),
(-45,68,l),
(-69,0,l)
);
},
{
closed = 1;
nodes = (
(720,1086,l),
(793,1086,ls),
(911,1086,o),
(970,998,o),
(970,841,cs),
(970,605,o),
(828,423,o),
(641,423,cs),
(489,423,l)
);
}
);
width = 1256;
}
);
metricLeft = I;
unicode = 222;
},
{
glyphname = Q;
kernLeft = O;
kernRight = O;
layers = (
{
background = {
shapes = (
{
closed = 1;
nodes = (
(773,-450,o),
(895,-216,o),
(915,-124,c),
(858,-124,l),
(813,-198,o),
(701,-252,o),
(554,-252,cs),
(455,-252,o),
(391,-227,o),
(328,-172,c),
(720,16,ls),
(1050,174,o),
(1347,592,o),
(1347,1049,cs),
(1347,1365,o),
(1207,1544,o),
(967,1544,cs),
(552,1544,o),
(140,1005,o),
(140,469,cs),
(140,180,o),
(259,13,o),
(462,-16,c),
(462,-24,l),
(145,-177,ls),
(71,-213,o),
(34,-256,o),
(34,-314,cs),
(34,-357,o),
(51,-398,o),
(97,-398,cs),
(134,-398,o),
(162,-366,o),
(162,-328,cs),
(162,-311,o),
(155,-292,o),
(155,-276,cs),
(155,-260,o),
(162,-250,o),
(193,-250,cs),
(331,-250,o),
(350,-450,o),
(554,-450,cs)
);
},
{
closed = 1;
nodes = (
(401,73,o),
(333,185,o),
(333,419,cs),
(333,925,o),
(650,1457,o),
(957,1457,cs),
(1095,1457,o),
(1163,1346,o),
(1163,1112,cs),
(1163,603,o),
(849,73,o),
(543,73,cs)
);
}
);
};
layerId = master01;
shapes = (
{
closed = 1;
nodes = (
(773,-450,o),
(895,-216,o),
(915,-124,c),
(858,-124,l),
(813,-198,o),
(701,-252,o),
(554,-252,cs),
(455,-252,o),
(391,-227,o),
(328,-172,c),
(720,16,ls),
(1050,174,o),
(1347,592,o),
(1347,1049,cs),
(1347,1365,o),
(1207,1544,o),
(967,1544,cs),
(552,1544,o),
(140,1005,o),
(140,469,cs),
(140,180,o),
(259,13,o),
(462,-16,c),
(462,-24,l),
(145,-177,ls),
(71,-213,o),
(34,-256,o),
(34,-314,cs),
(34,-357,o),
(51,-398,o),
(97,-398,cs),
(134,-398,o),
(162,-366,o),
(162,-328,cs),
(162,-311,o),
(155,-292,o),
(155,-276,cs),
(155,-260,o),
(162,-250,o),
(193,-250,cs),
(331,-250,o),
(350,-450,o),
(554,-450,cs)
);
},
{
closed = 1;
nodes = (
(401,73,o),
(333,185,o),
(333,419,cs),
(333,925,o),
(650,1457,o),
(957,1457,cs),
(1095,1457,o),
(1163,1346,o),
(1163,1112,cs),
(1163,603,o),
(849,73,o),
(543,73,cs)
);
}
);
width = 1320;
},
{
background = {
shapes = (
{
closed = 1;
nodes = (
(848,-465,o),
(1001,-329,o),
(1074,-124,c),
(1006,-124,l),
(953,-196,o),
(854,-241,o),
(748,-241,cs),
(640,-241,o),
(526,-202,o),
(467,-145,c),
(840,24,ls),
(1226,200,o),
(1494,608,o),
(1494,1025,cs),
(1494,1352,o),
(1322,1544,o),
(1032,1544,cs),
(570,1544,o),
(136,1050,o),
(136,524,cs),
(136,222,o),
(260,37,o),
(498,-17,c),
(498,-25,l),
(251,-139,ls),
(97,-211,o),
(59,-248,o),
(59,-326,cs),
(59,-402,o),
(96,-443,o),
(154,-443,cs),
(213,-443,o),
(258,-400,o),
(258,-345,cs),
(258,-322,o),
(249,-297,o),
(249,-274,cs),
(249,-251,o),
(260,-237,o),
(283,-237,cs),
(385,-237,o),
(489,-465,o),
(694,-465,cs)
);
},
{
closed = 1;
nodes = (
(491,88,o),
(421,200,o),
(421,421,cs),
(421,926,o),
(715,1436,o),
(1005,1436,cs),
(1139,1436,o),
(1207,1324,o),
(1207,1105,cs),
(1207,595,o),
(918,88,o),
(627,88,cs)
);
}
);
};
layerId = "D3934E74-9B53-4E98-B19F-CD3DFEE08352";
shapes = (
{
closed = 1;
nodes = (
(848,-465,o),
(1001,-329,o),
(1074,-124,c),
(1006,-124,l),
(953,-196,o),
(854,-241,o),
(748,-241,cs),
(640,-241,o),
(526,-202,o),
(467,-145,c),
(840,24,ls),
(1226,200,o),
(1494,608,o),
(1494,1025,cs),
(1494,1352,o),
(1322,1544,o),
(1032,1544,cs),
(570,1544,o),
(136,1050,o),
(136,524,cs),
(136,222,o),
(260,37,o),
(498,-17,c),
(498,-25,l),
(251,-139,ls),
(97,-211,o),
(59,-248,o),
(59,-326,cs),
(59,-402,o),
(96,-443,o),
(154,-443,cs),
(213,-443,o),
(258,-400,o),
(258,-345,cs),
(258,-322,o),
(249,-297,o),
(249,-274,cs),
(249,-251,o),
(260,-237,o),
(283,-237,cs),
(385,-237,o),
(489,-465,o),
(694,-465,cs)
);
},
{
closed = 1;
nodes = (
(491,88,o),
(421,200,o),
(421,421,cs),
(421,926,o),
(715,1436,o),
(1005,1436,cs),
(1139,1436,o),
(1207,1324,o),
(1207,1105,cs),
(1207,595,o),
(918,88,o),
(627,88,cs)
);
}
);
width = 1457;
}
);
metricLeft = O;
metricRight = O;
unicode = 81;
},
